999
dxfrw 0.6.3
  0
SECTION
  2
HEADER
  9
$ACADVER
  1
AC1021
  9
$DWGCODEPAGE
  3
ANSI_1252
  9
$INSBASE
 10
0
 20
0
 30
0
  9
$EXTMIN
 10
-0.5
 20
0.25
 30
0
  9
$EXTMAX
 10
419.5
 20
297.25
 30
0
  9
$LIMMIN
 10
0
 20
0
  9
$LIMMAX
 10
420
 20
297
  9
$ORTHOMODE
 70
    0
  9
$REGENMODE
 70
    1
  9
$FILLMODE
 70
    1
  9
$QTEXTMODE
 70
    0
  9
$MIRRTEXT
 70
    0
  9
$LTSCALE
 40
1
  9
$ATTMODE
 70
    0
  9
$TEXTSIZE
 40
2.5
  9
$TRACEWID
 40
15.68
  9
$TEXTSTYLE
  7
STANDARD
  9
$CLAYER
  8
schematic
  9
$CELTYPE
  6
BYLAYER
  9
$CECOLOR
 62
  256
  9
$CELTSCALE
 40
1
  9
$DISPSILH
 70
    0
  9
$DIMSCALE
 40
1
  9
$DIMASZ
 40
2.5
  9
$DIMEXO
 40
0.625
  9
$DIMDLI
 40
3.75
  9
$DIMRND
 40
0
  9
$DIMDLE
 40
0
  9
$DIMEXE
 40
1.25
  9
$DIMTP
 40
0
  9
$DIMTM
 40
0
  9
$DIMTXT
 40
2.5
  9
$DIMCEN
 40
2.5
  9
$DIMTSZ
 40
0
  9
$DIMTOL
 70
    0
  9
$DIMLIM
 70
    0
  9
$DIMTIH
 70
    0
  9
$DIMTOH
 70
    0
  9
$DIMSE1
 70
    0
  9
$DIMSE2
 70
    0
  9
$DIMTAD
 70
    1
  9
$DIMZIN
 70
    8
  9
$DIMBLK
  1

  9
$DIMASO
 70
    1
  9
$DIMSHO
 70
    1
  9
$DIMPOST
  1

  9
$DIMAPOST
  1

  9
$DIMALT
 70
    0
  9
$DIMALTD
 70
    3
  9
$DIMALTF
 40
0.03937
  9
$DIMLFAC
 40
1
  9
$DIMTOFL
 70
    1
  9
$DIMTVP
 40
0
  9
$DIMTIX
 70
    0
  9
$DIMSOXD
 70
    0
  9
$DIMSAH
 70
    0
  9
$DIMBLK1
  1

  9
$DIMBLK2
  1

  9
$DIMSTYLE
  2
Standard
  9
$DIMCLRD
 70
    0
  9
$DIMCLRE
 70
    0
  9
$DIMCLRT
 70
    0
  9
$DIMTFAC
 40
1
  9
$DIMGAP
 40
0.625
  9
$DIMJUST
 70
    0
  9
$DIMSD1
 70
    0
  9
$DIMSD2
 70
    0
  9
$DIMTOLJ
 70
    0
  9
$DIMTZIN
 70
    8
  9
$DIMALTZ
 70
    0
  9
$DIMALTTZ
 70
    0
  9
$DIMUPT
 70
    0
  9
$DIMDEC
 70
    2
  9
$DIMTDEC
 70
    2
  9
$DIMALTU
 70
    2
  9
$DIMALTTD
 70
    3
  9
$DIMTXSTY
  7
STANDARD
  9
$DIMAUNIT
 70
    0
  9
$DIMADEC
 70
    0
  9
$DIMALTRND
 40
0
  9
$DIMAZIN
 70
    0
  9
$DIMDSEP
 70
   44
  9
$DIMATFIT
 70
    3
  9
$DIMFRAC
 70
    0
  9
$DIMLDRBLK
  1
STANDARD
  9
$DIMLUNIT
 70
    2
  9
$DIMLWD
 70
   -2
  9
$DIMLWE
 70
   -2
  9
$DIMTMOVE
 70
    0
  9
$DIMFXL
 40
1
  9
$DIMFXLON
 70
    0
  9
$DIMJOGANG
 40
0.7854
  9
$DIMTFILL
 70
    0
  9
$DIMTFILLCLR
 70
    0
  9
$DIMARCSYM
 70
    0
  9
$DIMLTYPE
  6

  9
$DIMLTEX1
  6

  9
$DIMLTEX2
  6

  9
$LUNITS
 70
    2
  9
$LUPREC
 70
    4
  9
$SKETCHINC
 40
1
  9
$FILLETRAD
 40
0
  9
$AUNITS
 70
    0
  9
$AUPREC
 70
    2
  9
$MENU
  1
.
  9
$ELEVATION
 40
0
  9
$PELEVATION
 40
0
  9
$THICKNESS
 40
0
  9
$LIMCHECK
 70
    0
  9
$CHAMFERA
 40
0
  9
$CHAMFERB
 40
0
  9
$CHAMFERC
 40
0
  9
$CHAMFERD
 40
0
  9
$SKPOLY
 70
    0
  9
$USRTIMER
 70
    1
  9
$ANGBASE
 50
0
  9
$ANGDIR
 70
    0
  9
$PDMODE
 70
   34
  9
$PDSIZE
 40
0
  9
$PLINEWID
 40
0
  9
$SPLFRAME
 70
    0
  9
$SPLINETYPE
 70
    2
  9
$SPLINESEGS
 70
    8
  9
$HANDSEED
  5
20000
  9
$SURFTAB1
 70
    6
  9
$SURFTAB2
 70
    6
  9
$SURFTYPE
 70
    6
  9
$SURFU
 70
    6
  9
$SURFV
 70
    6
  9
$UCSBASE
  2

  9
$UCSNAME
  2

  9
$UCSORG
 10
0
 20
0
 30
0
  9
$UCSXDIR
 10
1
 20
0
 30
0
  9
$UCSYDIR
 10
0
 20
1
 30
0
  9
$UCSORTHOREF
  2

  9
$UCSORTHOVIEW
 70
    0
  9
$UCSORGTOP
 10
0
 20
0
 30
0
  9
$UCSORGBOTTOM
 10
0
 20
0
 30
0
  9
$UCSORGLEFT
 10
0
 20
0
 30
0
  9
$UCSORGRIGHT
 10
0
 20
0
 30
0
  9
$UCSORGFRONT
 10
0
 20
0
 30
0
  9
$UCSORGBACK
 10
0
 20
0
 30
0
  9
$PUCSBASE
  2

  9
$PUCSNAME
  2

  9
$PUCSORG
 10
0
 20
0
 30
0
  9
$PUCSXDIR
 10
1
 20
0
 30
0
  9
$PUCSYDIR
 10
0
 20
1
 30
0
  9
$PUCSORTHOREF
  2

  9
$PUCSORTHOVIEW
 70
    0
  9
$PUCSORGTOP
 10
0
 20
0
 30
0
  9
$PUCSORGBOTTOM
 10
0
 20
0
 30
0
  9
$PUCSORGLEFT
 10
0
 20
0
 30
0
  9
$PUCSORGRIGHT
 10
0
 20
0
 30
0
  9
$PUCSORGFRONT
 10
0
 20
0
 30
0
  9
$PUCSORGBACK
 10
0
 20
0
 30
0
  9
$USERI1
 70
    0
  9
$USERI2
 70
    0
  9
$USERI3
 70
    0
  9
$USERI4
 70
    0
  9
$USERI5
 70
    0
  9
$USERR1
 40
0
  9
$USERR2
 40
0
  9
$USERR3
 40
0
  9
$USERR4
 40
0
  9
$USERR5
 40
0
  9
$WORLDVIEW
 70
    1
  9
$SHADEDGE
 70
    3
  9
$SHADEDIF
 70
   70
  9
$TILEMODE
 70
    1
  9
$MAXACTVP
 70
   64
  9
$PINSBASE
 10
18.0033670034
 20
12.3442760943
 30
0
  9
$PLIMCHECK
 70
    0
  9
$PEXTMIN
 10
0
 20
0
 30
0
  9
$PEXTMAX
 10
0
 20
0
 30
0
  9
$GRIDMODE
 70
    1
  9
$SNAPSTYLE
 70
    0
  9
$PLIMMIN
 10
0
 20
0
  9
$PLIMMAX
 10
297
 20
210
  9
$UNITMODE
 70
    0
  9
$VISRETAIN
 70
    1
  9
$PLINEGEN
 70
    0
  9
$PSLTSCALE
 70
    1
  9
$TREEDEPTH
 70
 3020
  9
$CMLSTYLE
  2
Standard
  9
$CMLJUST
 70
    0
  9
$CMLSCALE
 40
20
  9
$PROXYGRAPHICS
 70
    1
  9
$MEASUREMENT
 70
    1
  9
$CELWEIGHT
370
   -1
  9
$ENDCAPS
280
    0
  9
$JOINSTYLE
280
    0
  9
$LWDISPLAY
290
    0
  9
$INSUNITS
 70
    0
  9
$HYPERLINKBASE
  1

  9
$STYLESHEET
  1

  9
$XEDIT
290
    1
  9
$CEPSNTYPE
380
    0
  9
$PSTYLEMODE
290
    1
  9
$EXTNAMES
290
    1
  9
$PSVPSCALE
 40
0.622895622896
  9
$OLESTARTUP
290
    0
  9
$SORTENTS
280
  127
  9
$INDEXCTL
280
    0
  9
$HIDETEXT
280
    1
  9
$XCLIPFRAME
290
    0
  9
$HALOGAP
280
    0
  9
$OBSCOLOR
 70
  257
  9
$OBSLTYPE
280
    0
  9
$INTERSECTIONDISPLAY
280
    0
  9
$INTERSECTIONCOLOR
 70
  257
  9
$DIMASSOC
280
    0
  9
$PROJECTNAME
  1

  9
$CAMERADISPLAY
290
    0
  9
$LENSLENGTH
 40
50
  9
$CAMERAHEIGHT
 40
0
  9
$STEPSPERSEC
 40
2
  9
$STEPSIZE
 40
50
  9
$3DDWFPREC
 40
2
  9
$PSOLWIDTH
 40
5
  9
$PSOLHEIGHT
 40
80
  9
$LOFTANG1
 40
1.570796326794897
  9
$LOFTANG2
 40
1.570796326794897
  9
$LOFTMAG1
 40
0
  9
$LOFTMAG2
 40
0
  9
$LOFTPARAM
 70
    7
  9
$LOFTNORMALS
280
    1
  9
$LATITUDE
 40
1
  9
$LONGITUDE
 40
1
  9
$NORTHDIRECTION
 40
0
  9
$TIMEZONE
 70
-8000
  9
$LIGHTGLYPHDISPLAY
280
    1
  9
$TILEMODELIGHTSYNCH
280
    1
  9
$SOLIDHIST
280
    1
  9
$SHOWHIST
280
    1
  9
$DWFFRAME
280
    2
  9
$DGNFRAME
280
    0
  9
$REALWORLDSCALE
290
    1
  9
$INTERFERECOLOR
 62
    1
  9
$CSHADOW
280
    0
  9
$SHADOWPLANELOCATION
 40
0
  0
ENDSEC
  0
SECTION
  2
CLASSES
  0
ENDSEC
  0
SECTION
  2
TABLES
  0
TABLE
  2
VPORT
  5
8
330
0
100
AcDbSymbolTable
 70
    1
  0
VPORT
  5
31
330
2
100
AcDbSymbolTableRecord
100
AcDbViewportTableRecord
  2
*ACTIVE
 70
    0
 10
0
 20
0
 11
1
 21
1
 12
234.312382739212
 22
151.2861163227017
 13
0
 23
0
 14
10
 24
10
 15
10
 25
10
 16
0
 26
0
 36
1
 17
0
 27
0
 37
0
 40
308.1444652908067
 41
1.681735985533454
 42
50
 43
0
 44
0
 50
0
 51
0
 71
    0
 72
  100
 73
    1
 74
    3
 75
    0
 76
    1
 77
    0
 78
    0
281
    0
 65
    1
110
0
120
0
130
0
111
1
121
0
131
0
112
0
122
1
132
0
 79
    0
146
0
348
10020
 60
    7
 61
    5
292
1
282
    1
141
0
142
0
 63
  250
421
3358443
  0
ENDTAB
  0
TABLE
  2
LTYPE
  5
5
330
0
100
AcDbSymbolTable
 70
    4
  0
LTYPE
  5
14
330
5
100
AcDbSymbolTableRecord
100
AcDbLinetypeTableRecord
  2
ByBlock
 70
    0
  3

 72
   65
 73
    0
 40
0
  0
LTYPE
  5
15
330
5
100
AcDbSymbolTableRecord
100
AcDbLinetypeTableRecord
  2
ByLayer
 70
    0
  3

 72
   65
 73
    0
 40
0
  0
LTYPE
  5
16
330
5
100
AcDbSymbolTableRecord
100
AcDbLinetypeTableRecord
  2
Continuous
 70
    0
  3
Solid line
 72
   65
 73
    0
 40
0
  0
LTYPE
  5
32
330
5
100
AcDbSymbolTableRecord
100
AcDbLinetypeTableRecord
  2
DOT
 70
    0
  3
Dot . . . . . . . . . . . . . . . . . . . . . .
 72
   65
 73
    2
 40
6.35
 49
0
 74
    0
 49
-6.35
 74
    0
  0
LTYPE
  5
33
330
5
100
AcDbSymbolTableRecord
100
AcDbLinetypeTableRecord
  2
DOTTINY
 70
    0
  3
Dot (.15x) .....................................
 72
   65
 73
    2
 40
0.9525
 49
0
 74
    0
 49
-0.9525
 74
    0
  0
LTYPE
  5
34
330
5
100
AcDbSymbolTableRecord
100
AcDbLinetypeTableRecord
  2
DOT2
 70
    0
  3
Dot (.5x) .....................................
 72
   65
 73
    2
 40
3.175
 49
0
 74
    0
 49
-3.175
 74
    0
  0
LTYPE
  5
35
330
5
100
AcDbSymbolTableRecord
100
AcDbLinetypeTableRecord
  2
DOTX2
 70
    0
  3
Dot (2x) .  .  .  .  .  .  .  .  .  .  .  .  .
 72
   65
 73
    2
 40
12.7
 49
0
 74
    0
 49
-12.7
 74
    0
  0
LTYPE
  5
36
330
5
100
AcDbSymbolTableRecord
100
AcDbLinetypeTableRecord
  2
DASHED
 70
    0
  3
Dashed _ _ _ _ _ _ _ _ _ _ _ _ _ _ _ _ _
 72
   65
 73
    2
 40
19.05
 49
12.7
 74
    0
 49
-6.35
 74
    0
  0
LTYPE
  5
37
330
5
100
AcDbSymbolTableRecord
100
AcDbLinetypeTableRecord
  2
DASHEDTINY
 70
    0
  3
Dashed (.15x) _ _ _ _ _ _ _ _ _ _ _ _ _ _ _ _ _
 72
   65
 73
    2
 40
2.8575
 49
1.905
 74
    0
 49
-0.9525
 74
    0
  0
LTYPE
  5
38
330
5
100
AcDbSymbolTableRecord
100
AcDbLinetypeTableRecord
  2
DASHED2
 70
    0
  3
Dashed (.5x) _ _ _ _ _ _ _ _ _ _ _ _ _ _ _ _ _
 72
   65
 73
    2
 40
9.524999999999999
 49
6.35
 74
    0
 49
-3.175
 74
    0
  0
LTYPE
  5
39
330
5
100
AcDbSymbolTableRecord
100
AcDbLinetypeTableRecord
  2
DASHEDX2
 70
    0
  3
Dashed (2x) ____  ____  ____  ____  ____  ___
 72
   65
 73
    2
 40
38.09999999999999
 49
25.4
 74
    0
 49
-12.7
 74
    0
  0
LTYPE
  5
3A
330
5
100
AcDbSymbolTableRecord
100
AcDbLinetypeTableRecord
  2
DASHDOT
 70
    0
  3
Dash dot __ . __ . __ . __ . __ . __ . __ . __
 72
   65
 73
    4
 40
25.4
 49
12.7
 74
    0
 49
-6.35
 74
    0
 49
0
 74
    0
 49
-6.35
 74
    0
  0
LTYPE
  5
3B
330
5
100
AcDbSymbolTableRecord
100
AcDbLinetypeTableRecord
  2
DASHDOTTINY
 70
    0
  3
Dash dot (.15x) _._._._._._._._._._._._._._._.
 72
   65
 73
    4
 40
3.81
 49
1.905
 74
    0
 49
-0.9525
 74
    0
 49
0
 74
    0
 49
-0.9525
 74
    0
  0
LTYPE
  5
3C
330
5
100
AcDbSymbolTableRecord
100
AcDbLinetypeTableRecord
  2
DASHDOT2
 70
    0
  3
Dash dot (.5x) _._._._._._._._._._._._._._._.
 72
   65
 73
    4
 40
12.7
 49
6.35
 74
    0
 49
-3.175
 74
    0
 49
0
 74
    0
 49
-3.175
 74
    0
  0
LTYPE
  5
3D
330
5
100
AcDbSymbolTableRecord
100
AcDbLinetypeTableRecord
  2
DASHDOTX2
 70
    0
  3
Dash dot (2x) ____  .  ____  .  ____  .  ___
 72
   65
 73
    4
 40
50.8
 49
25.4
 74
    0
 49
-12.7
 74
    0
 49
0
 74
    0
 49
-12.7
 74
    0
  0
LTYPE
  5
3E
330
5
100
AcDbSymbolTableRecord
100
AcDbLinetypeTableRecord
  2
DIVIDE
 70
    0
  3
Divide ____ . . ____ . . ____ . . ____ . . ____
 72
   65
 73
    6
 40
31.75
 49
12.7
 74
    0
 49
-6.35
 74
    0
 49
0
 74
    0
 49
-6.35
 74
    0
 49
0
 74
    0
 49
-6.35
 74
    0
  0
LTYPE
  5
3F
330
5
100
AcDbSymbolTableRecord
100
AcDbLinetypeTableRecord
  2
DIVIDETINY
 70
    0
  3
Divide (.15x) __..__..__..__..__..__..__..__.._
 72
   65
 73
    6
 40
4.7625
 49
1.905
 74
    0
 49
-0.9525
 74
    0
 49
0
 74
    0
 49
-0.9525
 74
    0
 49
0
 74
    0
 49
-0.9525
 74
    0
  0
LTYPE
  5
40
330
5
100
AcDbSymbolTableRecord
100
AcDbLinetypeTableRecord
  2
DIVIDE2
 70
    0
  3
Divide (.5x) __..__..__..__..__..__..__..__.._
 72
   65
 73
    6
 40
15.875
 49
6.35
 74
    0
 49
-3.175
 74
    0
 49
0
 74
    0
 49
-3.175
 74
    0
 49
0
 74
    0
 49
-3.175
 74
    0
  0
LTYPE
  5
41
330
5
100
AcDbSymbolTableRecord
100
AcDbLinetypeTableRecord
  2
DIVIDEX2
 70
    0
  3
Divide (2x) ________  .  .  ________  .  .  _
 72
   65
 73
    6
 40
63.5
 49
25.4
 74
    0
 49
-12.7
 74
    0
 49
0
 74
    0
 49
-12.7
 74
    0
 49
0
 74
    0
 49
-12.7
 74
    0
  0
LTYPE
  5
42
330
5
100
AcDbSymbolTableRecord
100
AcDbLinetypeTableRecord
  2
BORDER
 70
    0
  3
Border __ __ . __ __ . __ __ . __ __ . __ __ .
 72
   65
 73
    6
 40
44.45
 49
12.7
 74
    0
 49
-6.35
 74
    0
 49
12.7
 74
    0
 49
-6.35
 74
    0
 49
0
 74
    0
 49
-6.35
 74
    0
  0
LTYPE
  5
43
330
5
100
AcDbSymbolTableRecord
100
AcDbLinetypeTableRecord
  2
BORDERTINY
 70
    0
  3
Border (.15x) __.__.__.__.__.__.__.__.__.__.__.
 72
   65
 73
    6
 40
6.6675
 49
1.905
 74
    0
 49
-0.9525
 74
    0
 49
1.905
 74
    0
 49
-0.9525
 74
    0
 49
0
 74
    0
 49
-0.9525
 74
    0
  0
LTYPE
  5
44
330
5
100
AcDbSymbolTableRecord
100
AcDbLinetypeTableRecord
  2
BORDER2
 70
    0
  3
Border (.5x) __.__.__.__.__.__.__.__.__.__.__.
 72
   65
 73
    6
 40
22.225
 49
6.35
 74
    0
 49
-3.175
 74
    0
 49
6.35
 74
    0
 49
-3.175
 74
    0
 49
0
 74
    0
 49
-3.175
 74
    0
  0
LTYPE
  5
45
330
5
100
AcDbSymbolTableRecord
100
AcDbLinetypeTableRecord
  2
BORDERX2
 70
    0
  3
Border (2x) ____  ____  .  ____  ____  .  ___
 72
   65
 73
    6
 40
88.89999999999999
 49
25.4
 74
    0
 49
-12.7
 74
    0
 49
25.4
 74
    0
 49
-12.7
 74
    0
 49
0
 74
    0
 49
-12.7
 74
    0
  0
LTYPE
  5
46
330
5
100
AcDbSymbolTableRecord
100
AcDbLinetypeTableRecord
  2
CENTER
 70
    0
  3
Center ____ _ ____ _ ____ _ ____ _ ____ _ ____
 72
   65
 73
    4
 40
50.8
 49
31.75
 74
    0
 49
-6.35
 74
    0
 49
6.35
 74
    0
 49
-6.35
 74
    0
  0
LTYPE
  5
47
330
5
100
AcDbSymbolTableRecord
100
AcDbLinetypeTableRecord
  2
CENTERTINY
 70
    0
  3
Center (.15x) ___ _ ___ _ ___ _ ___ _ ___ _ ___
 72
   65
 73
    4
 40
7.619999999999999
 49
4.7625
 74
    0
 49
-0.9525
 74
    0
 49
0.9525
 74
    0
 49
-0.9525
 74
    0
  0
LTYPE
  5
48
330
5
100
AcDbSymbolTableRecord
100
AcDbLinetypeTableRecord
  2
CENTER2
 70
    0
  3
Center (.5x) ___ _ ___ _ ___ _ ___ _ ___ _ ___
 72
   65
 73
    4
 40
28.575
 49
19.05
 74
    0
 49
-3.175
 74
    0
 49
3.175
 74
    0
 49
-3.175
 74
    0
  0
LTYPE
  5
49
330
5
100
AcDbSymbolTableRecord
100
AcDbLinetypeTableRecord
  2
CENTERX2
 70
    0
  3
Center (2x) ________  __  ________  __  _____
 72
   65
 73
    4
 40
101.6
 49
63.5
 74
    0
 49
-12.7
 74
    0
 49
12.7
 74
    0
 49
-12.7
 74
    0
  0
ENDTAB
  0
TABLE
  2
LAYER
  5
2
330
0
100
AcDbSymbolTable
 70
    1
  0
LAYER
  5
10
330
2
100
AcDbSymbolTableRecord
100
AcDbLayerTableRecord
  2
0
 70
    0
 62
    7
  6
CONTINUOUS
370
   35
390
F
  0
LAYER
  5
4A
330
2
100
AcDbSymbolTableRecord
100
AcDbLayerTableRecord
  2
Contour
 70
    0
 62
    7
  6
CONTINUOUS
370
   -3
390
F
  0
LAYER
  5
4B
330
2
100
AcDbSymbolTableRecord
100
AcDbLayerTableRecord
  2
frame-title
 70
    0
 62
    7
  6
CONTINUOUS
370
   35
390
F
  0
LAYER
  5
4C
330
2
100
AcDbSymbolTableRecord
100
AcDbLayerTableRecord
  2
hatch
 70
    0
 62
  113
  6
CONTINUOUS
370
   25
390
F
  0
LAYER
  5
4D
330
2
100
AcDbSymbolTableRecord
100
AcDbLayerTableRecord
  2
help-lines
 70
    0
 62
    5
  6
CONTINUOUS
370
   25
390
F
  0
LAYER
  5
4E
330
2
100
AcDbSymbolTableRecord
100
AcDbLayerTableRecord
  2
labels
 70
    0
 62
    7
  6
CONTINUOUS
370
   25
390
F
  0
LAYER
  5
4F
330
2
100
AcDbSymbolTableRecord
100
AcDbLayerTableRecord
  2
schematic
 70
    0
 62
    7
  6
CONTINUOUS
370
   25
390
F
  0
ENDTAB
  0
TABLE
  2
STYLE
  5
3
330
0
100
AcDbSymbolTable
 70
    3
  0
STYLE
  5
50
330
2
100
AcDbSymbolTableRecord
100
AcDbTextStyleTableRecord
  2
iso
 70
    0
 40
0
 41
1
 50
0
 71
    0
 42
1
  3
iso
  4

  0
STYLE
  5
51
330
2
100
AcDbSymbolTableRecord
100
AcDbTextStyleTableRecord
  2
standard
 70
    0
 40
0
 41
1
 50
0
 71
    0
 42
1
  3
standard
  4

  0
ENDTAB
  0
TABLE
  2
VIEW
  5
6
330
0
100
AcDbSymbolTable
 70
    0
  0
ENDTAB
  0
TABLE
  2
UCS
  5
7
330
0
100
AcDbSymbolTable
 70
    0
  0
ENDTAB
  0
TABLE
  2
APPID
  5
9
330
0
100
AcDbSymbolTable
 70
    1
  0
APPID
  5
12
330
9
100
AcDbSymbolTableRecord
100
AcDbRegAppTableRecord
  2
ACAD
 70
    0
  0
APPID
  5
52
330
9
100
AcDbSymbolTableRecord
100
AcDbRegAppTableRecord
  2
LibreCad
 70
    0
  0
ENDTAB
  0
TABLE
  2
DIMSTYLE
  5
A
330
0
100
AcDbSymbolTable
 70
    1
100
AcDbDimStyleTable
 71
    1
  0
DIMSTYLE
105
53
330
A
100
AcDbSymbolTableRecord
100
AcDbDimStyleTableRecord
  2
Standard
 70
    0
 40
1
 41
2.5
 42
0.625
 43
0.38
 44
1.25
 45
0
 46
0
 47
0
 48
0
 49
1
140
2.5
141
0.09
142
0
143
25.4
144
1
145
0
146
1
147
0.625
148
0
 71
    0
 72
    0
 73
    0
 74
    1
 75
    0
 76
    0
 77
    0
 78
    8
 79
    0
170
    0
171
    2
172
    0
173
    0
174
    0
175
    0
176
    0
177
    0
178
    0
179
    0
271
    2
272
    4
273
    2
274
    2
275
    0
276
    0
277
    2
278
   44
279
    0
280
    0
281
    0
282
    0
283
    1
284
    0
285
    0
286
    0
288
    0
289
    3
340
STANDARD
341

371
   -2
372
   -2
  0
ENDTAB
  0
TABLE
  2
BLOCK_RECORD
  5
1
330
0
100
AcDbSymbolTable
 70
    2
  0
BLOCK_RECORD
  5
1F
330
1
100
AcDbSymbolTableRecord
100
AcDbBlockTableRecord
  2
*Model_Space
 70
    0
280
    1
281
    0
  0
BLOCK_RECORD
  5
1E
330
1
100
AcDbSymbolTableRecord
100
AcDbBlockTableRecord
  2
*Paper_Space
 70
    0
280
    1
281
    0
  0
BLOCK_RECORD
  5
54
330
1
100
AcDbSymbolTableRecord
100
AcDbBlockTableRecord
  2
*D3
 70
    0
280
    1
281
    0
  0
BLOCK_RECORD
  5
57
330
1
100
AcDbSymbolTableRecord
100
AcDbBlockTableRecord
  2
*D1
 70
    0
280
    1
281
    0
  0
BLOCK_RECORD
  5
5A
330
1
100
AcDbSymbolTableRecord
100
AcDbBlockTableRecord
  2
*D2
 70
    0
280
    1
281
    0
  0
BLOCK_RECORD
  5
5D
330
1
100
AcDbSymbolTableRecord
100
AcDbBlockTableRecord
  2
a3
 70
    0
280
    1
281
    0
  0
BLOCK_RECORD
  5
60
330
1
100
AcDbSymbolTableRecord
100
AcDbBlockTableRecord
  2
a3-0
 70
    0
280
    1
281
    0
  0
BLOCK_RECORD
  5
63
330
1
100
AcDbSymbolTableRecord
100
AcDbBlockTableRecord
  2
eca-logo-0
 70
    0
280
    1
281
    0
  0
BLOCK_RECORD
  5
66
330
1
100
AcDbSymbolTableRecord
100
AcDbBlockTableRecord
  2
eca-logo-1
 70
    0
280
    1
281
    0
  0
BLOCK_RECORD
  5
69
330
1
100
AcDbSymbolTableRecord
100
AcDbBlockTableRecord
  2
Terminal-in
 70
    0
280
    1
281
    0
  0
BLOCK_RECORD
  5
6C
330
1
100
AcDbSymbolTableRecord
100
AcDbBlockTableRecord
  2
junction
 70
    0
280
    1
281
    0
  0
BLOCK_RECORD
  5
6F
330
1
100
AcDbSymbolTableRecord
100
AcDbBlockTableRecord
  2
junction-0
 70
    0
280
    1
281
    0
  0
BLOCK_RECORD
  5
72
330
1
100
AcDbSymbolTableRecord
100
AcDbBlockTableRecord
  2
junction-1
 70
    0
280
    1
281
    0
  0
BLOCK_RECORD
  5
75
330
1
100
AcDbSymbolTableRecord
100
AcDbBlockTableRecord
  2
junction-3
 70
    0
280
    1
281
    0
  0
BLOCK_RECORD
  5
78
330
1
100
AcDbSymbolTableRecord
100
AcDbBlockTableRecord
  2
junction-4
 70
    0
280
    1
281
    0
  0
BLOCK_RECORD
  5
7B
330
1
100
AcDbSymbolTableRecord
100
AcDbBlockTableRecord
  2
mcp2014x-connector-0
 70
    0
280
    1
281
    0
  0
BLOCK_RECORD
  5
7E
330
1
100
AcDbSymbolTableRecord
100
AcDbBlockTableRecord
  2
r1
 70
    0
280
    1
281
    0
  0
BLOCK_RECORD
  5
81
330
1
100
AcDbSymbolTableRecord
100
AcDbBlockTableRecord
  2
Diode-Power
 70
    0
280
    1
281
    0
  0
BLOCK_RECORD
  5
84
330
1
100
AcDbSymbolTableRecord
100
AcDbBlockTableRecord
  2
Switch-button-mk
 70
    0
280
    1
281
    0
  0
BLOCK_RECORD
  5
87
330
1
100
AcDbSymbolTableRecord
100
AcDbBlockTableRecord
  2
ln1
 70
    0
280
    1
281
    0
  0
BLOCK_RECORD
  5
8A
330
1
100
AcDbSymbolTableRecord
100
AcDbBlockTableRecord
  2
vd1
 70
    0
280
    1
281
    0
  0
BLOCK_RECORD
  5
8D
330
1
100
AcDbSymbolTableRecord
100
AcDbBlockTableRecord
  2
junction-2
 70
    0
280
    1
281
    0
  0
BLOCK_RECORD
  5
90
330
1
100
AcDbSymbolTableRecord
100
AcDbBlockTableRecord
  2
junction-5
 70
    0
280
    1
281
    0
  0
BLOCK_RECORD
  5
93
330
1
100
AcDbSymbolTableRecord
100
AcDbBlockTableRecord
  2
junction-6
 70
    0
280
    1
281
    0
  0
BLOCK_RECORD
  5
96
330
1
100
AcDbSymbolTableRecord
100
AcDbBlockTableRecord
  2
rjconnector
 70
    0
280
    1
281
    0
  0
ENDTAB
  0
ENDSEC
  0
SECTION
  2
BLOCKS
  0
BLOCK
  5
20
330
1F
100
AcDbEntity
  8
0
100
AcDbBlockBegin
  2
*Model_Space
 70
    0
 10
0
 20
0
 30
0
  3
*Model_Space
  1

  0
ENDBLK
  5
21
330
1F
100
AcDbEntity
  8
0
100
AcDbBlockEnd
  0
BLOCK
  5
1C
330
1B
100
AcDbEntity
  8
0
100
AcDbBlockBegin
  2
*Paper_Space
 70
    0
 10
0
 20
0
 30
0
  3
*Paper_Space
  1

  0
ENDBLK
  5
1D
330
1F
100
AcDbEntity
  8
0
100
AcDbBlockEnd
  0
BLOCK
  5
55
330
54
100
AcDbEntity
  8
0
100
AcDbBlockBegin
  2
*D3
 70
    1
 10
0
 20
0
  3
*D3
  1

  0
LINE
  5
99
100
AcDbEntity
  8
schematic
  6
CONTINUOUS
 62
    7
370
    0
100
AcDbLine
 10
229.6088793410132
 20
32.54991776098655
 11
229.6088793410132
 21
25.80534020690826
  0
LINE
  5
9A
100
AcDbEntity
  8
schematic
  6
CONTINUOUS
 62
    7
370
    0
100
AcDbLine
 10
229.6088793410132
 20
25.80534020690826
 11
214.3602692187493
 21
25.80534020690826
  0
SOLID
  5
9B
100
AcDbEntity
  8
schematic
  6
CONTINUOUS
 62
    7
370
    0
100
AcDbTrace
 10
229.6088793410132
 20
32.54991776098655
 30
0
 11
230.025163998786
 21
30.04991776098655
 31
0
 12
229.1925946832403
 22
30.04991776098655
 32
0
 13
229.1925946832403
 23
30.04991776098655
 33
0
  0
ENDBLK
  5
56
330
54
100
AcDbEntity
  8
0
100
AcDbBlockEnd
  0
BLOCK
  5
58
330
57
100
AcDbEntity
  8
0
100
AcDbBlockBegin
  2
*D1
 70
    1
 10
0
 20
0
  3
*D1
  1

  0
LINE
  5
9C
100
AcDbEntity
  8
schematic
  6
CONTINUOUS
 62
    7
370
    0
100
AcDbLine
 10
218.1724217493184
 20
184.1562914765752
 11
208.2021766693765
 21
184.1562914765752
  0
SOLID
  5
9D
100
AcDbEntity
  8
schematic
  6
CONTINUOUS
 62
    7
370
    0
100
AcDbTrace
 10
218.1724217493184
 20
184.1562914765752
 30
0
 11
215.6724217493184
 21
183.7400068188024
 31
0
 12
215.6724217493184
 22
184.5725761343481
 32
0
 13
215.6724217493184
 23
184.5725761343481
 33
0
  0
ENDBLK
  5
59
330
57
100
AcDbEntity
  8
0
100
AcDbBlockEnd
  0
BLOCK
  5
5B
330
5A
100
AcDbEntity
  8
0
100
AcDbBlockBegin
  2
*D2
 70
    1
 10
0
 20
0
  3
*D2
  1

  0
LINE
  5
9E
100
AcDbEntity
  8
schematic
  6
CONTINUOUS
 62
    7
370
    0
100
AcDbLine
 10
169.2009238566598
 20
32.54991776098655
 11
169.2009238566598
 21
25.80534020690826
  0
LINE
  5
9F
100
AcDbEntity
  8
schematic
  6
CONTINUOUS
 62
    7
370
    0
100
AcDbLine
 10
169.2009238566598
 20
25.80534020690826
 11
179.7576539413041
 21
25.80534020690826
  0
SOLID
  5
A0
100
AcDbEntity
  8
schematic
  6
CONTINUOUS
 62
    7
370
    0
100
AcDbTrace
 10
169.2009238566598
 20
32.54991776098655
 30
0
 11
169.6172085144327
 21
30.04991776098655
 31
0
 12
168.784639198887
 22
30.04991776098655
 32
0
 13
168.784639198887
 23
30.04991776098655
 33
0
  0
ENDBLK
  5
5C
330
5A
100
AcDbEntity
  8
0
100
AcDbBlockEnd
  0
BLOCK
  5
5E
330
5D
100
AcDbEntity
  8
0
100
AcDbBlockBegin
  2
a3
 70
    0
 10
0
 20
0
  3
a3
  1

  0
HATCH
  5
A1
100
AcDbEntity
  8
hatch
  6
ByLayer
 62
  256
370
   -1
100
AcDbHatch
 10
0
 20
0
 30
0
210
0
220
0
230
1
  2
ansi31
 70
    0
 71
    0
 91
    1
 92
    0
 93
    3
 72
    1
 10
124.999976
 20
287.000024
 11
122.499976
 21
291.330151019
 72
    1
 10
122.499976
 20
291.330151019
 11
127.499976
 21
291.330151019
 72
    1
 10
127.499976
 20
291.330151019
 11
124.999976
 21
287.000024
 97
    0
 75
    0
 76
    1
 52
4.71238898038
 41
0.5
 77
    0
 78
    0
 98
    0
  0
HATCH
  5
A2
100
AcDbEntity
  8
hatch
  6
ByLayer
 62
  256
370
   -1
100
AcDbHatch
 10
0
 20
0
 30
0
210
0
220
0
230
1
  2
ansi31
 70
    0
 71
    0
 91
    1
 92
    0
 93
    3
 72
    1
 10
229.999976
 20
287.000024
 11
227.499976
 21
291.330151019
 72
    1
 10
227.499976
 20
291.330151019
 11
232.499976
 21
291.330151019
 72
    1
 10
232.499976
 20
291.330151019
 11
229.999976
 21
287.000024
 97
    0
 75
    0
 76
    1
 52
4.71238898038
 41
0.5
 77
    0
 78
    0
 98
    0
  0
HATCH
  5
A3
100
AcDbEntity
  8
hatch
  6
ByLayer
 62
  256
370
   -1
100
AcDbHatch
 10
0
 20
0
 30
0
210
0
220
0
230
1
  2
ansi31
 70
    0
 71
    0
 91
    1
 92
    0
 93
    3
 72
    1
 10
315
 20
287.000024
 11
312.5
 21
291.330151019
 72
    1
 10
312.5
 20
291.330151019
 11
317.5
 21
291.330151019
 72
    1
 10
317.5
 20
291.330151019
 11
315
 21
287.000024
 97
    0
 75
    0
 76
    1
 52
4.71238898038
 41
0.5
 77
    0
 78
    0
 98
    0
  0
HATCH
  5
A4
100
AcDbEntity
  8
hatch
  6
ByLayer
 62
  256
370
   -1
100
AcDbHatch
 10
0
 20
0
 30
0
210
0
220
0
230
1
  2
ansi31
 70
    0
 71
    0
 91
    1
 92
    0
 93
    3
 72
    1
 10
315
 20
9.999976
 11
312.5
 21
5.66984898108
 72
    1
 10
312.5
 20
5.66984898108
 11
317.5
 21
5.66984898108
 72
    1
 10
317.5
 20
5.66984898108
 11
315
 21
9.999976
 97
    0
 75
    0
 76
    1
 52
4.71238898038
 41
0.5
 77
    0
 78
    0
 98
    0
  0
HATCH
  5
A5
100
AcDbEntity
  8
hatch
  6
ByLayer
 62
  256
370
   -1
100
AcDbHatch
 10
0
 20
0
 30
0
210
0
220
0
230
1
  2
ansi31
 70
    0
 71
    0
 91
    1
 92
    0
 93
    3
 72
    1
 10
229.999976
 20
9.999976
 11
227.499976
 21
5.66984898108
 72
    1
 10
227.499976
 20
5.66984898108
 11
232.499976
 21
5.66984898108
 72
    1
 10
232.499976
 20
5.66984898108
 11
229.999976
 21
9.999976
 97
    0
 75
    0
 76
    1
 52
4.71238898038
 41
0.5
 77
    0
 78
    0
 98
    0
  0
HATCH
  5
A6
100
AcDbEntity
  8
hatch
  6
ByLayer
 62
  256
370
   -1
100
AcDbHatch
 10
0
 20
0
 30
0
210
0
220
0
230
1
  2
ansi31
 70
    0
 71
    0
 91
    1
 92
    0
 93
    3
 72
    1
 10
124.999976
 20
9.999976
 11
122.499976
 21
5.66984898108
 72
    1
 10
122.499976
 20
5.66984898108
 11
127.499976
 21
5.66984898108
 72
    1
 10
127.499976
 20
5.66984898108
 11
124.999976
 21
9.999976
 97
    0
 75
    0
 76
    1
 52
4.71238898038
 41
0.5
 77
    0
 78
    0
 98
    0
  0
HATCH
  5
A7
100
AcDbEntity
  8
hatch
  6
ByLayer
 62
  256
370
   -1
100
AcDbHatch
 10
0
 20
0
 30
0
210
0
220
0
230
1
  2
ansi31
 70
    0
 71
    0
 91
    1
 92
    0
 93
    3
 72
    1
 10
410
 20
148.5
 11
414.330127019
 21
146
 72
    1
 10
414.330127019
 20
146
 11
414.330127019
 21
151
 72
    1
 10
414.330127019
 20
151
 11
410
 21
148.5
 97
    0
 75
    0
 76
    1
 52
3.14159265359
 41
0.5
 77
    0
 78
    0
 98
    0
  0
HATCH
  5
A8
100
AcDbEntity
  8
hatch
  6
ByLayer
 62
  256
370
   -1
100
AcDbHatch
 10
0
 20
0
 30
0
210
0
220
0
230
1
  2
ansi31
 70
    0
 71
    0
 91
    1
 92
    0
 93
    3
 72
    1
 10
20
 20
148.5
 11
15.6698729811
 21
146
 72
    1
 10
15.6698729811
 20
146
 11
15.6698729811
 21
151
 72
    1
 10
15.6698729811
 20
151
 11
20
 21
148.5
 97
    0
 75
    0
 76
    1
 52
0
 41
0.5
 77
    0
 78
    0
 98
    0
  0
CIRCLE
  5
A9
100
AcDbEntity
  8
help-lines
  6
ByLayer
 62
  256
370
   -1
100
AcDbCircle
 10
15
 20
222.75
 40
3
  0
LINE
  5
AA
100
AcDbEntity
  8
help-lines
  6
ByLayer
 62
  256
370
   -1
100
AcDbLine
 10
20
 20
148.5
 11
15.6698729811
 21
146
  0
LINE
  5
AB
100
AcDbEntity
  8
help-lines
  6
ByLayer
 62
  256
370
   -1
100
AcDbLine
 10
20
 20
148.5
 11
15.6698729811
 21
151
  0
LINE
  5
AC
100
AcDbEntity
  8
help-lines
  6
ByLayer
 62
  256
370
   -1
100
AcDbLine
 10
15.6698729811
 20
146
 11
15.6698729811
 21
151
  0
CIRCLE
  5
AD
100
AcDbEntity
  8
help-lines
  6
ByLayer
 62
  256
370
   -1
100
AcDbCircle
 10
15
 20
74.25
 40
3
  0
MTEXT
  5
AE
100
AcDbEntity
  8
help-lines
  6
ByLayer
 62
  256
370
   -1
100
AcDbMText
 10
15
 20
74.25
 30
0
 40
4
 41
2.666666666666667
 71
    5
 72
    5
  1
A
  7
iso
210
0
220
0
230
1
 50
6.28318530718
 73
    2
 44
0.96
  0
MTEXT
  5
AF
100
AcDbEntity
  8
help-lines
  6
ByLayer
 62
  256
370
   -1
100
AcDbMText
 10
15
 20
222.75
 30
0
 40
4
 41
2.222222222222222
 71
    5
 72
    5
  1
B
  7
iso
210
0
220
0
230
1
 50
6.28318530718
 73
    2
 44
0.96
  0
LINE
  5
B0
100
AcDbEntity
  8
help-lines
  6
ByLayer
 62
  256
370
   -1
100
AcDbLine
 10
2.57e-14
 20
297
 11
0
 21
0
  0
CIRCLE
  5
B1
100
AcDbEntity
  8
help-lines
  6
ByLayer
 62
  256
370
   -1
100
AcDbCircle
 10
415
 20
222.75
 40
3
  0
LINE
  5
B2
100
AcDbEntity
  8
help-lines
  6
ByLayer
 62
  256
370
   -1
100
AcDbLine
 10
410
 20
148.5
 11
414.330127019
 21
146
  0
LINE
  5
B3
100
AcDbEntity
  8
help-lines
  6
ByLayer
 62
  256
370
   -1
100
AcDbLine
 10
410
 20
148.5
 11
414.330127019
 21
151
  0
LINE
  5
B4
100
AcDbEntity
  8
help-lines
  6
ByLayer
 62
  256
370
   -1
100
AcDbLine
 10
414.330127019
 20
146
 11
414.330127019
 21
151
  0
CIRCLE
  5
B5
100
AcDbEntity
  8
help-lines
  6
ByLayer
 62
  256
370
   -1
100
AcDbCircle
 10
415
 20
74.25
 40
3
  0
MTEXT
  5
B6
100
AcDbEntity
  8
help-lines
  6
ByLayer
 62
  256
370
   -1
100
AcDbMText
 10
415
 20
74.25
 30
0
 40
4
 41
2.666666666666667
 71
    5
 72
    5
  1
A
  7
iso
210
0
220
0
230
1
 50
6.28318530718
 73
    2
 44
0.96
  0
MTEXT
  5
B7
100
AcDbEntity
  8
help-lines
  6
ByLayer
 62
  256
370
   -1
100
AcDbMText
 10
415
 20
222.75
 30
0
 40
4
 41
2.222222222222222
 71
    5
 72
    5
  1
B
  7
iso
210
0
220
0
230
1
 50
6.28318530718
 73
    2
 44
0.96
  0
LINE
  5
B8
100
AcDbEntity
  8
help-lines
  6
ByLayer
 62
  256
370
   -1
100
AcDbLine
 10
420
 20
297
 11
2.57e-14
 21
297
  0
LINE
  5
B9
100
AcDbEntity
  8
help-lines
  6
ByLayer
 62
  256
370
   -1
100
AcDbLine
 10
125
 20
0
 11
125
 21
10
  0
LINE
  5
BA
100
AcDbEntity
  8
help-lines
  6
ByLayer
 62
  256
370
   -1
100
AcDbLine
 10
230
 20
2.84e-14
 11
230
 21
10
  0
LINE
  5
BB
100
AcDbEntity
  8
help-lines
  6
ByLayer
 62
  256
370
   -1
100
AcDbLine
 10
124.999976
 20
9.999976
 11
122.499976
 21
5.66984898108
  0
LINE
  5
BC
100
AcDbEntity
  8
help-lines
  6
ByLayer
 62
  256
370
   -1
100
AcDbLine
 10
124.999976
 20
9.999976
 11
127.499976
 21
5.66984898108
  0
LINE
  5
BD
100
AcDbEntity
  8
help-lines
  6
ByLayer
 62
  256
370
   -1
100
AcDbLine
 10
122.499976
 20
5.66984898108
 11
127.499976
 21
5.66984898108
  0
CIRCLE
  5
BE
100
AcDbEntity
  8
help-lines
  6
ByLayer
 62
  256
370
   -1
100
AcDbCircle
 10
177.5
 20
5
 40
3
  0
LINE
  5
BF
100
AcDbEntity
  8
help-lines
  6
ByLayer
 62
  256
370
   -1
100
AcDbLine
 10
229.999976
 20
9.999976
 11
227.499976
 21
5.66984898108
  0
LINE
  5
C0
100
AcDbEntity
  8
help-lines
  6
ByLayer
 62
  256
370
   -1
100
AcDbLine
 10
229.999976
 20
9.999976
 11
232.499976
 21
5.66984898108
  0
LINE
  5
C1
100
AcDbEntity
  8
help-lines
  6
ByLayer
 62
  256
370
   -1
100
AcDbLine
 10
227.499976
 20
5.66984898108
 11
232.499976
 21
5.66984898108
  0
CIRCLE
  5
C2
100
AcDbEntity
  8
help-lines
  6
ByLayer
 62
  256
370
   -1
100
AcDbCircle
 10
72.5
 20
5
 40
3
  0
MTEXT
  5
C3
100
AcDbEntity
  8
help-lines
  6
ByLayer
 62
  256
370
   -1
100
AcDbMText
 10
72.5
 20
5
 30
0
 40
4
 41
0.8888888888888888
 71
    5
 72
    5
  1
1
  7
iso
210
0
220
0
230
1
 50
0
 73
    2
 44
0.96
  0
MTEXT
  5
C4
100
AcDbEntity
  8
help-lines
  6
ByLayer
 62
  256
370
   -1
100
AcDbMText
 10
177.5
 20
5
 30
0
 40
4
 41
1.777777777777778
 71
    5
 72
    5
  1
2
  7
iso
210
0
220
0
230
1
 50
0
 73
    2
 44
0.96
  0
CIRCLE
  5
C5
100
AcDbEntity
  8
help-lines
  6
ByLayer
 62
  256
370
   -1
100
AcDbCircle
 10
278
 20
5
 40
3
  0
MTEXT
  5
C6
100
AcDbEntity
  8
help-lines
  6
ByLayer
 62
  256
370
   -1
100
AcDbMText
 10
278
 20
5
 30
0
 40
4
 41
1.777777777778026
 71
    5
 72
    5
  1
3
  7
iso
210
0
220
0
230
1
 50
0
 73
    2
 44
0.96
  0
LINE
  5
C7
100
AcDbEntity
  8
help-lines
  6
ByLayer
 62
  256
370
   -1
100
AcDbLine
 10
315
 20
9.999976
 11
312.5
 21
5.66984898108
  0
LINE
  5
C8
100
AcDbEntity
  8
help-lines
  6
ByLayer
 62
  256
370
   -1
100
AcDbLine
 10
315
 20
9.999976
 11
317.5
 21
5.66984898108
  0
LINE
  5
C9
100
AcDbEntity
  8
help-lines
  6
ByLayer
 62
  256
370
   -1
100
AcDbLine
 10
312.5
 20
5.66984898108
 11
317.5
 21
5.66984898108
  0
CIRCLE
  5
CA
100
AcDbEntity
  8
help-lines
  6
ByLayer
 62
  256
370
   -1
100
AcDbCircle
 10
363.000024
 20
5
 40
3
  0
MTEXT
  5
CB
100
AcDbEntity
  8
help-lines
  6
ByLayer
 62
  256
370
   -1
100
AcDbMText
 10
363.000024
 20
5
 30
0
 40
4
 41
2.222222222222222
 71
    5
 72
    5
  1
4
  7
iso
210
0
220
0
230
1
 50
0
 73
    2
 44
0.96
  0
LINE
  5
CC
100
AcDbEntity
  8
help-lines
  6
ByLayer
 62
  256
370
   -1
100
AcDbLine
 10
420
 20
0
 11
420
 21
297
  0
LINE
  5
CD
100
AcDbEntity
  8
help-lines
  6
ByLayer
 62
  256
370
   -1
100
AcDbLine
 10
3.55e-14
 20
0
 11
420
 21
0
  0
LINE
  5
CE
100
AcDbEntity
  8
help-lines
  6
ByLayer
 62
  256
370
   -1
100
AcDbLine
 10
125
 20
297
 11
125
 21
287
  0
LINE
  5
CF
100
AcDbEntity
  8
help-lines
  6
ByLayer
 62
  256
370
   -1
100
AcDbLine
 10
230
 20
297
 11
230
 21
287
  0
LINE
  5
D0
100
AcDbEntity
  8
help-lines
  6
ByLayer
 62
  256
370
   -1
100
AcDbLine
 10
124.999976
 20
287.000024
 11
122.499976
 21
291.330151019
  0
LINE
  5
D1
100
AcDbEntity
  8
help-lines
  6
ByLayer
 62
  256
370
   -1
100
AcDbLine
 10
124.999976
 20
287.000024
 11
127.499976
 21
291.330151019
  0
LINE
  5
D2
100
AcDbEntity
  8
help-lines
  6
ByLayer
 62
  256
370
   -1
100
AcDbLine
 10
122.499976
 20
291.330151019
 11
127.499976
 21
291.330151019
  0
CIRCLE
  5
D3
100
AcDbEntity
  8
help-lines
  6
ByLayer
 62
  256
370
   -1
100
AcDbCircle
 10
177.5
 20
292
 40
3
  0
LINE
  5
D4
100
AcDbEntity
  8
help-lines
  6
ByLayer
 62
  256
370
   -1
100
AcDbLine
 10
229.999976
 20
287.000024
 11
227.499976
 21
291.330151019
  0
LINE
  5
D5
100
AcDbEntity
  8
help-lines
  6
ByLayer
 62
  256
370
   -1
100
AcDbLine
 10
229.999976
 20
287.000024
 11
232.499976
 21
291.330151019
  0
LINE
  5
D6
100
AcDbEntity
  8
help-lines
  6
ByLayer
 62
  256
370
   -1
100
AcDbLine
 10
227.499976
 20
291.330151019
 11
232.499976
 21
291.330151019
  0
CIRCLE
  5
D7
100
AcDbEntity
  8
help-lines
  6
ByLayer
 62
  256
370
   -1
100
AcDbCircle
 10
72.5
 20
292
 40
3
  0
MTEXT
  5
D8
100
AcDbEntity
  8
help-lines
  6
ByLayer
 62
  256
370
   -1
100
AcDbMText
 10
72.5
 20
292
 30
0
 40
4
 41
0.8888888888888888
 71
    5
 72
    5
  1
1
  7
iso
210
0
220
0
230
1
 50
0
 73
    2
 44
0.96
  0
MTEXT
  5
D9
100
AcDbEntity
  8
help-lines
  6
ByLayer
 62
  256
370
   -1
100
AcDbMText
 10
177.5
 20
292
 30
0
 40
4
 41
1.777777777777778
 71
    5
 72
    5
  1
2
  7
iso
210
0
220
0
230
1
 50
0
 73
    2
 44
0.96
  0
CIRCLE
  5
DA
100
AcDbEntity
  8
help-lines
  6
ByLayer
 62
  256
370
   -1
100
AcDbCircle
 10
278
 20
292
 40
3
  0
MTEXT
  5
DB
100
AcDbEntity
  8
help-lines
  6
ByLayer
 62
  256
370
   -1
100
AcDbMText
 10
278
 20
292
 30
0
 40
4
 41
1.777777777778026
 71
    5
 72
    5
  1
3
  7
iso
210
0
220
0
230
1
 50
0
 73
    2
 44
0.96
  0
LINE
  5
DC
100
AcDbEntity
  8
help-lines
  6
ByLayer
 62
  256
370
   -1
100
AcDbLine
 10
315
 20
287.000024
 11
312.5
 21
291.330151019
  0
LINE
  5
DD
100
AcDbEntity
  8
help-lines
  6
ByLayer
 62
  256
370
   -1
100
AcDbLine
 10
315
 20
287.000024
 11
317.5
 21
291.330151019
  0
LINE
  5
DE
100
AcDbEntity
  8
help-lines
  6
ByLayer
 62
  256
370
   -1
100
AcDbLine
 10
312.5
 20
291.330151019
 11
317.5
 21
291.330151019
  0
CIRCLE
  5
DF
100
AcDbEntity
  8
help-lines
  6
ByLayer
 62
  256
370
   -1
100
AcDbCircle
 10
363.000024
 20
292
 40
3
  0
MTEXT
  5
E0
100
AcDbEntity
  8
help-lines
  6
ByLayer
 62
  256
370
   -1
100
AcDbMText
 10
363.000024
 20
292
 30
0
 40
4
 41
2.222222222222222
 71
    5
 72
    5
  1
4
  7
iso
210
0
220
0
230
1
 50
0
 73
    2
 44
0.96
  0
ENDBLK
  5
5F
330
5D
100
AcDbEntity
  8
0
100
AcDbBlockEnd
  0
BLOCK
  5
61
330
60
100
AcDbEntity
  8
0
100
AcDbBlockBegin
  2
a3-0
 70
    0
 10
0
 20
0
  3
a3-0
  1

  0
HATCH
  5
E1
100
AcDbEntity
  8
hatch
  6
ByLayer
 62
  256
370
   -1
100
AcDbHatch
 10
0
 20
0
 30
0
210
0
220
0
230
1
  2
ansi31
 70
    0
 71
    0
 91
    1
 92
    0
 93
    3
 72
    1
 10
20
 20
148.5
 11
15.6698729811
 21
146
 72
    1
 10
15.6698729811
 20
146
 11
15.6698729811
 21
151
 72
    1
 10
15.6698729811
 20
151
 11
20
 21
148.5
 97
    0
 75
    0
 76
    1
 52
0
 41
0.5
 77
    0
 78
    0
 98
    0
  0
HATCH
  5
E2
100
AcDbEntity
  8
hatch
  6
ByLayer
 62
  256
370
   -1
100
AcDbHatch
 10
0
 20
0
 30
0
210
0
220
0
230
1
  2
ansi31
 70
    0
 71
    0
 91
    1
 92
    0
 93
    3
 72
    1
 10
410
 20
148.5
 11
414.330127019
 21
146
 72
    1
 10
414.330127019
 20
146
 11
414.330127019
 21
151
 72
    1
 10
414.330127019
 20
151
 11
410
 21
148.5
 97
    0
 75
    0
 76
    1
 52
3.14159265359
 41
0.5
 77
    0
 78
    0
 98
    0
  0
HATCH
  5
E3
100
AcDbEntity
  8
hatch
  6
ByLayer
 62
  256
370
   -1
100
AcDbHatch
 10
0
 20
0
 30
0
210
0
220
0
230
1
  2
ansi31
 70
    0
 71
    0
 91
    1
 92
    0
 93
    3
 72
    1
 10
124.999976
 20
9.999976
 11
122.499976
 21
5.66984898108
 72
    1
 10
122.499976
 20
5.66984898108
 11
127.499976
 21
5.66984898108
 72
    1
 10
127.499976
 20
5.66984898108
 11
124.999976
 21
9.999976
 97
    0
 75
    0
 76
    1
 52
4.71238898038
 41
0.5
 77
    0
 78
    0
 98
    0
  0
HATCH
  5
E4
100
AcDbEntity
  8
hatch
  6
ByLayer
 62
  256
370
   -1
100
AcDbHatch
 10
0
 20
0
 30
0
210
0
220
0
230
1
  2
ansi31
 70
    0
 71
    0
 91
    1
 92
    0
 93
    3
 72
    1
 10
229.999976
 20
9.999976
 11
227.499976
 21
5.66984898108
 72
    1
 10
227.499976
 20
5.66984898108
 11
232.499976
 21
5.66984898108
 72
    1
 10
232.499976
 20
5.66984898108
 11
229.999976
 21
9.999976
 97
    0
 75
    0
 76
    1
 52
4.71238898038
 41
0.5
 77
    0
 78
    0
 98
    0
  0
HATCH
  5
E5
100
AcDbEntity
  8
hatch
  6
ByLayer
 62
  256
370
   -1
100
AcDbHatch
 10
0
 20
0
 30
0
210
0
220
0
230
1
  2
ansi31
 70
    0
 71
    0
 91
    1
 92
    0
 93
    3
 72
    1
 10
315
 20
9.999976
 11
312.5
 21
5.66984898108
 72
    1
 10
312.5
 20
5.66984898108
 11
317.5
 21
5.66984898108
 72
    1
 10
317.5
 20
5.66984898108
 11
315
 21
9.999976
 97
    0
 75
    0
 76
    1
 52
4.71238898038
 41
0.5
 77
    0
 78
    0
 98
    0
  0
HATCH
  5
E6
100
AcDbEntity
  8
hatch
  6
ByLayer
 62
  256
370
   -1
100
AcDbHatch
 10
0
 20
0
 30
0
210
0
220
0
230
1
  2
ansi31
 70
    0
 71
    0
 91
    1
 92
    0
 93
    3
 72
    1
 10
315
 20
287.000024
 11
312.5
 21
291.330151019
 72
    1
 10
312.5
 20
291.330151019
 11
317.5
 21
291.330151019
 72
    1
 10
317.5
 20
291.330151019
 11
315
 21
287.000024
 97
    0
 75
    0
 76
    1
 52
4.71238898038
 41
0.5
 77
    0
 78
    0
 98
    0
  0
HATCH
  5
E7
100
AcDbEntity
  8
hatch
  6
ByLayer
 62
  256
370
   -1
100
AcDbHatch
 10
0
 20
0
 30
0
210
0
220
0
230
1
  2
ansi31
 70
    0
 71
    0
 91
    1
 92
    0
 93
    3
 72
    1
 10
229.999976
 20
287.000024
 11
227.499976
 21
291.330151019
 72
    1
 10
227.499976
 20
291.330151019
 11
232.499976
 21
291.330151019
 72
    1
 10
232.499976
 20
291.330151019
 11
229.999976
 21
287.000024
 97
    0
 75
    0
 76
    1
 52
4.71238898038
 41
0.5
 77
    0
 78
    0
 98
    0
  0
HATCH
  5
E8
100
AcDbEntity
  8
hatch
  6
ByLayer
 62
  256
370
   -1
100
AcDbHatch
 10
0
 20
0
 30
0
210
0
220
0
230
1
  2
ansi31
 70
    0
 71
    0
 91
    1
 92
    0
 93
    3
 72
    1
 10
124.999976
 20
287.000024
 11
122.499976
 21
291.330151019
 72
    1
 10
122.499976
 20
291.330151019
 11
127.499976
 21
291.330151019
 72
    1
 10
127.499976
 20
291.330151019
 11
124.999976
 21
287.000024
 97
    0
 75
    0
 76
    1
 52
4.71238898038
 41
0.5
 77
    0
 78
    0
 98
    0
  0
CIRCLE
  5
E9
100
AcDbEntity
  8
help-lines
  6
ByLayer
 62
  256
370
   -1
100
AcDbCircle
 10
15
 20
222.75
 40
3
  0
LINE
  5
EA
100
AcDbEntity
  8
help-lines
  6
ByLayer
 62
  256
370
   -1
100
AcDbLine
 10
20
 20
148.5
 11
15.6698729811
 21
146
  0
LINE
  5
EB
100
AcDbEntity
  8
help-lines
  6
ByLayer
 62
  256
370
   -1
100
AcDbLine
 10
20
 20
148.5
 11
15.6698729811
 21
151
  0
LINE
  5
EC
100
AcDbEntity
  8
help-lines
  6
ByLayer
 62
  256
370
   -1
100
AcDbLine
 10
15.6698729811
 20
146
 11
15.6698729811
 21
151
  0
CIRCLE
  5
ED
100
AcDbEntity
  8
help-lines
  6
ByLayer
 62
  256
370
   -1
100
AcDbCircle
 10
15
 20
74.25
 40
3
  0
MTEXT
  5
EE
100
AcDbEntity
  8
help-lines
  6
ByLayer
 62
  256
370
   -1
100
AcDbMText
 10
15
 20
74.25
 30
0
 40
4
 41
2.666666666666667
 71
    5
 72
    5
  1
A
  7
iso
210
0
220
0
230
1
 50
6.28318530718
 73
    2
 44
0.96
  0
MTEXT
  5
EF
100
AcDbEntity
  8
help-lines
  6
ByLayer
 62
  256
370
   -1
100
AcDbMText
 10
15
 20
222.75
 30
0
 40
4
 41
2.222222222222222
 71
    5
 72
    5
  1
B
  7
iso
210
0
220
0
230
1
 50
6.28318530718
 73
    2
 44
0.96
  0
LINE
  5
F0
100
AcDbEntity
  8
help-lines
  6
ByLayer
 62
  256
370
   -1
100
AcDbLine
 10
1.82076576039e-14
 20
297
 11
0
 21
0
  0
CIRCLE
  5
F1
100
AcDbEntity
  8
help-lines
  6
ByLayer
 62
  256
370
   -1
100
AcDbCircle
 10
415
 20
222.75
 40
3
  0
LINE
  5
F2
100
AcDbEntity
  8
help-lines
  6
ByLayer
 62
  256
370
   -1
100
AcDbLine
 10
410
 20
148.5
 11
414.330127019
 21
146
  0
LINE
  5
F3
100
AcDbEntity
  8
help-lines
  6
ByLayer
 62
  256
370
   -1
100
AcDbLine
 10
410
 20
148.5
 11
414.330127019
 21
151
  0
LINE
  5
F4
100
AcDbEntity
  8
help-lines
  6
ByLayer
 62
  256
370
   -1
100
AcDbLine
 10
414.330127019
 20
146
 11
414.330127019
 21
151
  0
CIRCLE
  5
F5
100
AcDbEntity
  8
help-lines
  6
ByLayer
 62
  256
370
   -1
100
AcDbCircle
 10
415
 20
74.25
 40
3
  0
MTEXT
  5
F6
100
AcDbEntity
  8
help-lines
  6
ByLayer
 62
  256
370
   -1
100
AcDbMText
 10
415
 20
74.25
 30
0
 40
4
 41
2.666666666666667
 71
    5
 72
    5
  1
A
  7
iso
210
0
220
0
230
1
 50
6.28318530718
 73
    2
 44
0.96
  0
MTEXT
  5
F7
100
AcDbEntity
  8
help-lines
  6
ByLayer
 62
  256
370
   -1
100
AcDbMText
 10
415
 20
222.75
 30
0
 40
4
 41
2.222222222222222
 71
    5
 72
    5
  1
B
  7
iso
210
0
220
0
230
1
 50
6.28318530718
 73
    2
 44
0.96
  0
LINE
  5
F8
100
AcDbEntity
  8
help-lines
  6
ByLayer
 62
  256
370
   -1
100
AcDbLine
 10
420
 20
297
 11
1.82076576039e-14
 21
297
  0
LINE
  5
F9
100
AcDbEntity
  8
help-lines
  6
ByLayer
 62
  256
370
   -1
100
AcDbLine
 10
125
 20
0
 11
125
 21
10
  0
LINE
  5
FA
100
AcDbEntity
  8
help-lines
  6
ByLayer
 62
  256
370
   -1
100
AcDbLine
 10
230
 20
0
 11
230
 21
10
  0
LINE
  5
FB
100
AcDbEntity
  8
help-lines
  6
ByLayer
 62
  256
370
   -1
100
AcDbLine
 10
124.999976
 20
9.999976
 11
122.499976
 21
5.66984898108
  0
LINE
  5
FC
100
AcDbEntity
  8
help-lines
  6
ByLayer
 62
  256
370
   -1
100
AcDbLine
 10
124.999976
 20
9.999976
 11
127.499976
 21
5.66984898108
  0
LINE
  5
FD
100
AcDbEntity
  8
help-lines
  6
ByLayer
 62
  256
370
   -1
100
AcDbLine
 10
122.499976
 20
5.66984898108
 11
127.499976
 21
5.66984898108
  0
CIRCLE
  5
FE
100
AcDbEntity
  8
help-lines
  6
ByLayer
 62
  256
370
   -1
100
AcDbCircle
 10
177.5
 20
5
 40
3
  0
LINE
  5
FF
100
AcDbEntity
  8
help-lines
  6
ByLayer
 62
  256
370
   -1
100
AcDbLine
 10
229.999976
 20
9.999976
 11
227.499976
 21
5.66984898108
  0
LINE
  5
100
100
AcDbEntity
  8
help-lines
  6
ByLayer
 62
  256
370
   -1
100
AcDbLine
 10
229.999976
 20
9.999976
 11
232.499976
 21
5.66984898108
  0
LINE
  5
101
100
AcDbEntity
  8
help-lines
  6
ByLayer
 62
  256
370
   -1
100
AcDbLine
 10
227.499976
 20
5.66984898108
 11
232.499976
 21
5.66984898108
  0
CIRCLE
  5
102
100
AcDbEntity
  8
help-lines
  6
ByLayer
 62
  256
370
   -1
100
AcDbCircle
 10
72.5
 20
5
 40
3
  0
MTEXT
  5
103
100
AcDbEntity
  8
help-lines
  6
ByLayer
 62
  256
370
   -1
100
AcDbMText
 10
72.5
 20
5
 30
0
 40
4
 41
0.8888888888888888
 71
    5
 72
    5
  1
1
  7
iso
210
0
220
0
230
1
 50
0
 73
    2
 44
0.96
  0
MTEXT
  5
104
100
AcDbEntity
  8
help-lines
  6
ByLayer
 62
  256
370
   -1
100
AcDbMText
 10
177.5
 20
5
 30
0
 40
4
 41
1.777777777777778
 71
    5
 72
    5
  1
2
  7
iso
210
0
220
0
230
1
 50
0
 73
    2
 44
0.96
  0
CIRCLE
  5
105
100
AcDbEntity
  8
help-lines
  6
ByLayer
 62
  256
370
   -1
100
AcDbCircle
 10
278
 20
5
 40
3
  0
MTEXT
  5
106
100
AcDbEntity
  8
help-lines
  6
ByLayer
 62
  256
370
   -1
100
AcDbMText
 10
278
 20
5
 30
0
 40
4
 41
1.777777777778026
 71
    5
 72
    5
  1
3
  7
iso
210
0
220
0
230
1
 50
0
 73
    2
 44
0.96
  0
LINE
  5
107
100
AcDbEntity
  8
help-lines
  6
ByLayer
 62
  256
370
   -1
100
AcDbLine
 10
315
 20
9.999976
 11
312.5
 21
5.66984898108
  0
LINE
  5
108
100
AcDbEntity
  8
help-lines
  6
ByLayer
 62
  256
370
   -1
100
AcDbLine
 10
315
 20
9.999976
 11
317.5
 21
5.66984898108
  0
LINE
  5
109
100
AcDbEntity
  8
help-lines
  6
ByLayer
 62
  256
370
   -1
100
AcDbLine
 10
312.5
 20
5.66984898108
 11
317.5
 21
5.66984898108
  0
CIRCLE
  5
10A
100
AcDbEntity
  8
help-lines
  6
ByLayer
 62
  256
370
   -1
100
AcDbCircle
 10
363.000024
 20
5
 40
3
  0
MTEXT
  5
10B
100
AcDbEntity
  8
help-lines
  6
ByLayer
 62
  256
370
   -1
100
AcDbMText
 10
363.000024
 20
5
 30
0
 40
4
 41
2.222222222222222
 71
    5
 72
    5
  1
4
  7
iso
210
0
220
0
230
1
 50
0
 73
    2
 44
0.96
  0
LINE
  5
10C
100
AcDbEntity
  8
help-lines
  6
ByLayer
 62
  256
370
   -1
100
AcDbLine
 10
420
 20
0
 11
420
 21
297
  0
LINE
  5
10D
100
AcDbEntity
  8
help-lines
  6
ByLayer
 62
  256
370
   -1
100
AcDbLine
 10
3.5527136788e-14
 20
0
 11
420
 21
0
  0
LINE
  5
10E
100
AcDbEntity
  8
help-lines
  6
ByLayer
 62
  256
370
   -1
100
AcDbLine
 10
125
 20
297
 11
125
 21
287
  0
LINE
  5
10F
100
AcDbEntity
  8
help-lines
  6
ByLayer
 62
  256
370
   -1
100
AcDbLine
 10
230
 20
297
 11
230
 21
287
  0
LINE
  5
110
100
AcDbEntity
  8
help-lines
  6
ByLayer
 62
  256
370
   -1
100
AcDbLine
 10
124.999976
 20
287.000024
 11
122.499976
 21
291.330151019
  0
LINE
  5
111
100
AcDbEntity
  8
help-lines
  6
ByLayer
 62
  256
370
   -1
100
AcDbLine
 10
124.999976
 20
287.000024
 11
127.499976
 21
291.330151019
  0
LINE
  5
112
100
AcDbEntity
  8
help-lines
  6
ByLayer
 62
  256
370
   -1
100
AcDbLine
 10
122.499976
 20
291.330151019
 11
127.499976
 21
291.330151019
  0
CIRCLE
  5
113
100
AcDbEntity
  8
help-lines
  6
ByLayer
 62
  256
370
   -1
100
AcDbCircle
 10
177.5
 20
292
 40
3
  0
LINE
  5
114
100
AcDbEntity
  8
help-lines
  6
ByLayer
 62
  256
370
   -1
100
AcDbLine
 10
229.999976
 20
287.000024
 11
227.499976
 21
291.330151019
  0
LINE
  5
115
100
AcDbEntity
  8
help-lines
  6
ByLayer
 62
  256
370
   -1
100
AcDbLine
 10
229.999976
 20
287.000024
 11
232.499976
 21
291.330151019
  0
LINE
  5
116
100
AcDbEntity
  8
help-lines
  6
ByLayer
 62
  256
370
   -1
100
AcDbLine
 10
227.499976
 20
291.330151019
 11
232.499976
 21
291.330151019
  0
CIRCLE
  5
117
100
AcDbEntity
  8
help-lines
  6
ByLayer
 62
  256
370
   -1
100
AcDbCircle
 10
72.5
 20
292
 40
3
  0
MTEXT
  5
118
100
AcDbEntity
  8
help-lines
  6
ByLayer
 62
  256
370
   -1
100
AcDbMText
 10
72.5
 20
292
 30
0
 40
4
 41
0.8888888888888888
 71
    5
 72
    5
  1
1
  7
iso
210
0
220
0
230
1
 50
0
 73
    2
 44
0.96
  0
MTEXT
  5
119
100
AcDbEntity
  8
help-lines
  6
ByLayer
 62
  256
370
   -1
100
AcDbMText
 10
177.5
 20
292
 30
0
 40
4
 41
1.777777777777778
 71
    5
 72
    5
  1
2
  7
iso
210
0
220
0
230
1
 50
0
 73
    2
 44
0.96
  0
CIRCLE
  5
11A
100
AcDbEntity
  8
help-lines
  6
ByLayer
 62
  256
370
   -1
100
AcDbCircle
 10
278
 20
292
 40
3
  0
MTEXT
  5
11B
100
AcDbEntity
  8
help-lines
  6
ByLayer
 62
  256
370
   -1
100
AcDbMText
 10
278
 20
292
 30
0
 40
4
 41
1.777777777778026
 71
    5
 72
    5
  1
3
  7
iso
210
0
220
0
230
1
 50
0
 73
    2
 44
0.96
  0
LINE
  5
11C
100
AcDbEntity
  8
help-lines
  6
ByLayer
 62
  256
370
   -1
100
AcDbLine
 10
315
 20
287.000024
 11
312.5
 21
291.330151019
  0
LINE
  5
11D
100
AcDbEntity
  8
help-lines
  6
ByLayer
 62
  256
370
   -1
100
AcDbLine
 10
315
 20
287.000024
 11
317.5
 21
291.330151019
  0
LINE
  5
11E
100
AcDbEntity
  8
help-lines
  6
ByLayer
 62
  256
370
   -1
100
AcDbLine
 10
312.5
 20
291.330151019
 11
317.5
 21
291.330151019
  0
CIRCLE
  5
11F
100
AcDbEntity
  8
help-lines
  6
ByLayer
 62
  256
370
   -1
100
AcDbCircle
 10
363.000024
 20
292
 40
3
  0
MTEXT
  5
120
100
AcDbEntity
  8
help-lines
  6
ByLayer
 62
  256
370
   -1
100
AcDbMText
 10
363.000024
 20
292
 30
0
 40
4
 41
2.222222222222222
 71
    5
 72
    5
  1
4
  7
iso
210
0
220
0
230
1
 50
0
 73
    2
 44
0.96
  0
ENDBLK
  5
62
330
60
100
AcDbEntity
  8
0
100
AcDbBlockEnd
  0
BLOCK
  5
64
330
63
100
AcDbEntity
  8
0
100
AcDbBlockBegin
  2
eca-logo-0
 70
    0
 10
0
 20
0
  3
eca-logo-0
  1

  0
ARC
  5
121
100
AcDbEntity
  8
0
  6
ByLayer
 62
  256
370
   -1
100
AcDbCircle
 10
110.420388752
 20
76.91488935949999
 40
7.01016792418
100
AcDbArc
 50
87.74620047419999
 51
274.031479733
  0
LINE
  5
122
100
AcDbEntity
  8
0
  6
ByLayer
 62
  256
370
   -1
100
AcDbLine
 10
110.886912
 20
69.94001919999999
 11
115.008423684
 21
69.9454058127
  0
ARC
  5
123
100
AcDbEntity
  8
0
  6
ByLayer
 62
  256
370
   -1
100
AcDbCircle
 10
123.926518775
 20
77.00278865919999
 40
11.2882077629
100
AcDbArc
 50
141.77912084
 51
217.944755456
  0
LINE
  5
124
100
AcDbEntity
  8
0
  6
ByLayer
 62
  256
370
   -1
100
AcDbLine
 10
110.65210144
 20
83.92022498999999
 11
114.989564861
 21
83.93583805510001
  0
MTEXT
  5
125
100
AcDbEntity
  8
0
  6
ByLayer
 62
  256
370
   -1
100
AcDbMText
 10
109.008608924
 20
82.4343709274
 30
0
 40
2.5
 41
1.666666666666667
 71
    1
 72
    1
  1
E\PC\PA
  7
standard
210
0
220
0
230
1
 50
0
 73
    2
 44
1
  0
LINE
  5
126
100
AcDbEntity
  8
0
  6
ByLayer
 62
  256
370
   -1
100
AcDbLine
 10
113.540949806
 20
72.6336679929
 11
125.540949806
 21
72.6336679929
  0
LINE
  5
127
100
AcDbEntity
  8
0
  6
ByLayer
 62
  256
370
   -1
100
AcDbLine
 10
113.540949806
 20
81.34970815200001
 11
125.540949806
 21
81.34970815200001
  0
LINE
  5
128
100
AcDbEntity
  8
0
  6
ByLayer
 62
  256
370
   -1
100
AcDbLine
 10
112.649976812
 20
76.8948431818
 11
125.523374438
 21
76.93048210160001
  0
ENDBLK
  5
65
330
63
100
AcDbEntity
  8
0
100
AcDbBlockEnd
  0
BLOCK
  5
67
330
66
100
AcDbEntity
  8
0
100
AcDbBlockBegin
  2
eca-logo-1
 70
    0
 10
0
 20
0
  3
eca-logo-1
  1

  0
ARC
  5
129
100
AcDbEntity
  8
0
  6
ByLayer
 62
  256
370
   -1
100
AcDbCircle
 10
11.1840352802
 20
10.462484617
 40
7.01016792418
100
AcDbArc
 50
87.74620047419999
 51
274.031479733
  0
LINE
  5
12A
100
AcDbEntity
  8
0
  6
ByLayer
 62
  256
370
   -1
100
AcDbLine
 10
11.6505585283
 20
3.4876144575
 11
15.7720702125
 21
3.49300107019
  0
ARC
  5
12B
100
AcDbEntity
  8
0
  6
ByLayer
 62
  256
370
   -1
100
AcDbCircle
 10
24.6901653037
 20
10.5503839167
 40
11.2882077629
100
AcDbArc
 50
141.77912084
 51
217.944755456
  0
LINE
  5
12C
100
AcDbEntity
  8
0
  6
ByLayer
 62
  256
370
   -1
100
AcDbLine
 10
11.4157479686
 20
17.4678202475
 11
15.753211389
 21
17.4834333126
  0
MTEXT
  5
12D
100
AcDbEntity
  8
0
  6
ByLayer
 62
  256
370
   -1
100
AcDbMText
 10
9.77225545204
 20
15.9819661849
 30
0
 40
2.5
 41
1.666666666666667
 71
    1
 72
    1
  1
E\PC\PA
  7
standard
210
0
220
0
230
1
 50
0
 73
    2
 44
1
  0
LINE
  5
12E
100
AcDbEntity
  8
0
  6
ByLayer
 62
  256
370
   -1
100
AcDbLine
 10
14.3045963348
 20
6.18126325039
 11
26.3045963348
 21
6.18126325039
  0
LINE
  5
12F
100
AcDbEntity
  8
0
  6
ByLayer
 62
  256
370
   -1
100
AcDbLine
 10
14.3045963348
 20
14.8973034095
 11
26.3045963348
 21
14.8973034095
  0
LINE
  5
130
100
AcDbEntity
  8
0
  6
ByLayer
 62
  256
370
   -1
100
AcDbLine
 10
13.4136233407
 20
10.4424384393
 11
26.287020966
 21
10.4780773591
  0
ENDBLK
  5
68
330
66
100
AcDbEntity
  8
0
100
AcDbBlockEnd
  0
BLOCK
  5
6A
330
69
100
AcDbEntity
  8
0
100
AcDbBlockBegin
  2
Terminal-in
 70
    0
 10
0
 20
0
  3
Terminal-in
  1

  0
CIRCLE
  5
131
100
AcDbEntity
  8
0
  6
ByLayer
 62
  256
370
   -1
100
AcDbCircle
 10
0.00863291037492786
 20
10.74201307537149
 40
3.343779540414038
  0
LINE
  5
132
100
AcDbEntity
  8
0
  6
ByLayer
 62
  256
370
   -1
100
AcDbLine
 10
0.00863291037492786
 20
0.0666705345713865
 11
0.00863291037492786
 21
7.398233534957427
  0
ENDBLK
  5
6B
330
69
100
AcDbEntity
  8
0
100
AcDbBlockEnd
  0
BLOCK
  5
6D
330
6C
100
AcDbEntity
  8
0
100
AcDbBlockBegin
  2
junction
 70
    0
 10
0
 20
0
  3
junction
  1

  0
HATCH
  5
133
100
AcDbEntity
  8
0
  6
ByLayer
 62
  256
370
   -1
100
AcDbHatch
 10
0
 20
0
 30
0
210
0
220
0
230
1
  2
gost_ceramics
 70
    0
 71
    0
 91
    1
 92
    0
 93
    1
 72
    2
 10
-0.05958860800001275
 20
-0.1342767104000018
 40
1.289183059150252
 50
0
 51
360
 73
    1
 97
    0
 75
    0
 76
    1
 52
0
 41
0.05
 77
    0
 78
    0
 98
    0
  0
CIRCLE
  5
134
100
AcDbEntity
  8
0
  6
ByLayer
 62
  256
370
   -1
100
AcDbCircle
 10
-0.05958860800001275
 20
-0.1342767104000018
 40
1.289183059150252
  0
ENDBLK
  5
6E
330
6C
100
AcDbEntity
  8
0
100
AcDbBlockEnd
  0
BLOCK
  5
70
330
6F
100
AcDbEntity
  8
0
100
AcDbBlockBegin
  2
junction-0
 70
    0
 10
0
 20
0
  3
junction-0
  1

  0
HATCH
  5
135
100
AcDbEntity
  8
0
  6
ByLayer
 62
  256
370
   -1
100
AcDbHatch
 10
0
 20
0
 30
0
210
0
220
0
230
1
  2
gost_ceramics
 70
    0
 71
    0
 91
    1
 92
    0
 93
    1
 72
    2
 10
-0.05958860800001275
 20
-0.1342767104000018
 40
1.289183059150252
 50
0
 51
360
 73
    1
 97
    0
 75
    0
 76
    1
 52
0
 41
0.05
 77
    0
 78
    0
 98
    0
  0
CIRCLE
  5
136
100
AcDbEntity
  8
0
  6
ByLayer
 62
  256
370
   -1
100
AcDbCircle
 10
-0.05958860800001275
 20
-0.1342767104000018
 40
1.289183059150252
  0
ENDBLK
  5
71
330
6F
100
AcDbEntity
  8
0
100
AcDbBlockEnd
  0
BLOCK
  5
73
330
72
100
AcDbEntity
  8
0
100
AcDbBlockBegin
  2
junction-1
 70
    0
 10
0
 20
0
  3
junction-1
  1

  0
HATCH
  5
137
100
AcDbEntity
  8
0
  6
ByLayer
 62
  256
370
   -1
100
AcDbHatch
 10
0
 20
0
 30
0
210
0
220
0
230
1
  2
gost_ceramics
 70
    0
 71
    0
 91
    1
 92
    0
 93
    1
 72
    2
 10
-0.05958860800001275
 20
-0.1342767104000018
 40
1.289183059150252
 50
0
 51
360
 73
    1
 97
    0
 75
    0
 76
    1
 52
0
 41
0.05
 77
    0
 78
    0
 98
    0
  0
CIRCLE
  5
138
100
AcDbEntity
  8
0
  6
ByLayer
 62
  256
370
   -1
100
AcDbCircle
 10
-0.05958860800001275
 20
-0.1342767104000018
 40
1.289183059150252
  0
ENDBLK
  5
74
330
72
100
AcDbEntity
  8
0
100
AcDbBlockEnd
  0
BLOCK
  5
76
330
75
100
AcDbEntity
  8
0
100
AcDbBlockBegin
  2
junction-3
 70
    0
 10
0
 20
0
  3
junction-3
  1

  0
HATCH
  5
139
100
AcDbEntity
  8
0
  6
ByLayer
 62
  256
370
   -1
100
AcDbHatch
 10
0
 20
0
 30
0
210
0
220
0
230
1
  2
gost_ceramics
 70
    0
 71
    0
 91
    1
 92
    0
 93
    1
 72
    2
 10
-0.05958860800001275
 20
-0.1342767104000018
 40
1.289183059150252
 50
0
 51
360
 73
    1
 97
    0
 75
    0
 76
    1
 52
0
 41
0.05
 77
    0
 78
    0
 98
    0
  0
CIRCLE
  5
13A
100
AcDbEntity
  8
0
  6
ByLayer
 62
  256
370
   -1
100
AcDbCircle
 10
-0.05958860800001275
 20
-0.1342767104000018
 40
1.289183059150252
  0
ENDBLK
  5
77
330
75
100
AcDbEntity
  8
0
100
AcDbBlockEnd
  0
BLOCK
  5
79
330
78
100
AcDbEntity
  8
0
100
AcDbBlockBegin
  2
junction-4
 70
    0
 10
0
 20
0
  3
junction-4
  1

  0
HATCH
  5
13B
100
AcDbEntity
  8
0
  6
ByLayer
 62
  256
370
   -1
100
AcDbHatch
 10
0
 20
0
 30
0
210
0
220
0
230
1
  2
gost_ceramics
 70
    0
 71
    0
 91
    1
 92
    0
 93
    1
 72
    2
 10
-0.05958860800001275
 20
-0.1342767104000018
 40
1.289183059150252
 50
0
 51
360
 73
    1
 97
    0
 75
    0
 76
    1
 52
0
 41
0.05
 77
    0
 78
    0
 98
    0
  0
CIRCLE
  5
13C
100
AcDbEntity
  8
0
  6
ByLayer
 62
  256
370
   -1
100
AcDbCircle
 10
-0.05958860800001275
 20
-0.1342767104000018
 40
1.289183059150252
  0
ENDBLK
  5
7A
330
78
100
AcDbEntity
  8
0
100
AcDbBlockEnd
  0
BLOCK
  5
7C
330
7B
100
AcDbEntity
  8
0
100
AcDbBlockBegin
  2
mcp2014x-connector-0
 70
    0
 10
0
 20
0
  3
mcp2014x-connector-0
  1

  0
LINE
  5
13D
100
AcDbEntity
  8
0
  6
ByLayer
 62
  256
370
   -1
100
AcDbLine
 10
0.001768171077685565
 20
6.175801839350044
 11
6.251768171077682
 21
6.175801839350044
  0
LINE
  5
13E
100
AcDbEntity
  8
0
  6
ByLayer
 62
  256
370
   -1
100
AcDbLine
 10
6.251768171077682
 20
6.175801839350044
 11
6.251768171077682
 21
0.003926839350043565
  0
LINE
  5
13F
100
AcDbEntity
  8
0
  6
ByLayer
 62
  256
370
   -1
100
AcDbLine
 10
6.251768171077682
 20
0.003926839350043565
 11
0.001768171077685565
 21
0.003926839350043565
  0
LINE
  5
140
100
AcDbEntity
  8
0
  6
ByLayer
 62
  256
370
   -1
100
AcDbLine
 10
0.001768171077685565
 20
0.003926839350043565
 11
0.001768171077685565
 21
6.175801839350044
  0
ENDBLK
  5
7D
330
7B
100
AcDbEntity
  8
0
100
AcDbBlockEnd
  0
BLOCK
  5
7F
330
7E
100
AcDbEntity
  8
0
100
AcDbBlockBegin
  2
r1
 70
    0
 10
0
 20
0
  3
r1
  1

  0
LINE
  5
141
100
AcDbEntity
  8
0
  6
CONTINUOUS
 62
    7
370
   25
100
AcDbLine
 10
4.5
 20
6
 11
10.5
 21
6
  0
LINE
  5
142
100
AcDbEntity
  8
0
  6
CONTINUOUS
 62
    7
370
   25
100
AcDbLine
 10
4.5
 20
-6
 11
10.5
 21
-6
  0
LINE
  5
143
100
AcDbEntity
  8
0
  6
CONTINUOUS
 62
    7
370
   25
100
AcDbLine
 10
10.5
 20
-6
 11
10.5
 21
6
  0
LINE
  5
144
100
AcDbEntity
  8
0
  6
CONTINUOUS
 62
    7
370
   25
100
AcDbLine
 10
4.5
 20
6
 11
4.5
 21
-6
  0
LINE
  5
145
100
AcDbEntity
  8
0
  6
CONTINUOUS
 62
    7
370
   25
100
AcDbLine
 10
15
 20
0
 11
10.5
 21
0
  0
LINE
  5
146
100
AcDbEntity
  8
0
  6
CONTINUOUS
 62
    7
370
   25
100
AcDbLine
 10
4.5
 20
0
 11
0
 21
0
  0
POINT
  5
147
100
AcDbEntity
  8
0
  6
CONTINUOUS
 62
    7
370
   25
100
AcDbPoint
 10
0
 20
0
  0
POINT
  5
148
100
AcDbEntity
  8
0
  6
CONTINUOUS
 62
    7
370
   25
100
AcDbPoint
 10
15
 20
0
  0
ENDBLK
  5
80
330
7E
100
AcDbEntity
  8
0
100
AcDbBlockEnd
  0
BLOCK
  5
82
330
81
100
AcDbEntity
  8
0
100
AcDbBlockBegin
  2
Diode-Power
 70
    0
 10
0
 20
0
  3
Diode-Power
  1

  0
LINE
  5
149
100
AcDbEntity
  8
Contour
  6
ByLayer
 62
  256
370
   25
100
AcDbLine
 10
0
 20
25
 11
-5
 21
15
  0
LINE
  5
14A
100
AcDbEntity
  8
Contour
  6
ByLayer
 62
  256
370
   25
100
AcDbLine
 10
-5
 20
15
 11
5
 21
15
  0
LINE
  5
14B
100
AcDbEntity
  8
Contour
  6
ByLayer
 62
  256
370
   25
100
AcDbLine
 10
5
 20
15
 11
0
 21
25
  0
LINE
  5
14C
100
AcDbEntity
  8
Contour
  6
ByLayer
 62
  256
370
   25
100
AcDbLine
 10
0
 20
25
 11
-5
 21
25
  0
LINE
  5
14D
100
AcDbEntity
  8
Contour
  6
ByLayer
 62
  256
370
   25
100
AcDbLine
 10
0
 20
25
 11
5
 21
25
  0
LINE
  5
14E
100
AcDbEntity
  8
Contour
  6
ByLayer
 62
  256
370
   25
100
AcDbLine
 10
0
 20
25
 11
0
 21
40
  0
LINE
  5
14F
100
AcDbEntity
  8
Contour
  6
ByLayer
 62
  256
370
   25
100
AcDbLine
 10
0
 20
15
 11
0
 21
0
  0
ENDBLK
  5
83
330
81
100
AcDbEntity
  8
0
100
AcDbBlockEnd
  0
BLOCK
  5
85
330
84
100
AcDbEntity
  8
0
100
AcDbBlockBegin
  2
Switch-button-mk
 70
    0
 10
0
 20
0
  3
Switch-button-mk
  1

  0
LINE
  5
150
100
AcDbEntity
  8
Contour
  6
ByLayer
 62
  256
370
   -1
100
AcDbLine
 10
40.25224373412755
 20
-31.43534629988096
 11
40.25224373412755
 21
-22.43534629988096
  0
CIRCLE
  5
151
100
AcDbEntity
  8
Contour
  6
ByLayer
 62
  256
370
   -1
100
AcDbCircle
 10
40.25224373412755
 20
-21.43534629988096
 40
1
  0
LINE
  5
152
100
AcDbEntity
  8
Contour
  6
ByLayer
 62
  256
370
   -1
100
AcDbLine
 10
40.25224373412755
 20
-1.435346299880962
 11
40.25224373412755
 21
-10.43534629988096
  0
CIRCLE
  5
153
100
AcDbEntity
  8
Contour
  6
ByLayer
 62
  256
370
   -1
100
AcDbCircle
 10
40.25224373412755
 20
-11.43534629988096
 40
1
  0
LINE
  5
154
100
AcDbEntity
  8
Contour
  6
ByLayer
 62
  256
370
   -1
100
AcDbLine
 10
37.12724373412755
 20
-22.43534629988096
 11
37.12724373412755
 21
-10.43534629988096
  0
LINE
  5
155
100
AcDbEntity
  8
Contour
  6
ByLayer
 62
  256
370
   -1
100
AcDbLine
 10
36.50224373412755
 20
-22.43534629988096
 11
36.50224373412755
 21
-10.43534629988096
  0
LINE
  5
156
100
AcDbEntity
  8
Contour
  6
ByLayer
 62
  256
370
   -1
100
AcDbLine
 10
36.50224373412755
 20
-22.43534629988096
 11
37.12724373412755
 21
-22.43534629988096
  0
LINE
  5
157
100
AcDbEntity
  8
Contour
  6
ByLayer
 62
  256
370
   -1
100
AcDbLine
 10
36.50224373412755
 20
-10.43534629988096
 11
37.12724373412755
 21
-10.43534629988096
  0
LINE
  5
158
100
AcDbEntity
  8
Contour
  6
ByLayer
 62
  256
370
   -1
100
AcDbLine
 10
36.50224373412755
 20
-18.31034629988096
 11
35.25224373412755
 21
-18.31034629988096
  0
LINE
  5
159
100
AcDbEntity
  8
Contour
  6
ByLayer
 62
  256
370
   -1
100
AcDbLine
 10
35.25224373412755
 20
-18.31034629988096
 11
35.25224373412755
 21
-14.56034629988096
  0
LINE
  5
15A
100
AcDbEntity
  8
Contour
  6
ByLayer
 62
  256
370
   -1
100
AcDbLine
 10
35.25224373412755
 20
-14.56034629988096
 11
36.50224373412755
 21
-14.56034629988096
  0
ENDBLK
  5
86
330
84
100
AcDbEntity
  8
0
100
AcDbBlockEnd
  0
BLOCK
  5
88
330
87
100
AcDbEntity
  8
0
100
AcDbBlockBegin
  2
ln1
 70
    0
 10
0
 20
0
  3
ln1
  1

  0
POINT
  5
15B
100
AcDbEntity
  8
schematic
  6
CONTINUOUS
 62
    7
370
   70
100
AcDbPoint
 10
-13.74668703017602
 20
-16.43534629988096
  0
POINT
  5
15C
100
AcDbEntity
  8
schematic
  6
CONTINUOUS
 62
    7
370
   70
100
AcDbPoint
 10
-13.74668703017602
 20
-1.435346299880962
  0
LINE
  5
15D
100
AcDbEntity
  8
schematic
  6
CONTINUOUS
 62
    7
370
   25
100
AcDbLine
 10
-13.74668703017602
 20
-1.435346299880962
 11
-13.74668703017602
 21
-4.935346299880962
  0
LINE
  5
15E
100
AcDbEntity
  8
schematic
  6
CONTINUOUS
 62
    7
370
   25
100
AcDbLine
 10
-10.91668703017602
 20
-6.105346299880951
 11
-16.57668703017602
 21
-11.76534629988095
  0
LINE
  5
15F
100
AcDbEntity
  8
schematic
  6
CONTINUOUS
 62
    7
370
   25
100
AcDbLine
 10
-10.91668703017602
 20
-11.76534629988095
 11
-16.57668703017602
 21
-6.105346299880951
  0
CIRCLE
  5
160
100
AcDbEntity
  8
schematic
  6
CONTINUOUS
 62
    7
370
   25
100
AcDbCircle
 10
-13.74668703017602
 20
-8.935346299880962
 40
4
  0
LINE
  5
161
100
AcDbEntity
  8
schematic
  6
CONTINUOUS
 62
    7
370
   25
100
AcDbLine
 10
-13.74668703017602
 20
-12.93534629988096
 11
-13.74668703017602
 21
-16.43534629988096
  0
ENDBLK
  5
89
330
87
100
AcDbEntity
  8
0
100
AcDbBlockEnd
  0
BLOCK
  5
8B
330
8A
100
AcDbEntity
  8
0
100
AcDbBlockBegin
  2
vd1
 70
    0
 10
0
 20
0
  3
vd1
  1

  0
LINE
  5
162
100
AcDbEntity
  8
0
  6
CONTINUOUS
 62
    7
370
   25
100
AcDbLine
 10
0.2522437341275463
 20
-1.435346299880962
 11
10.25224373412755
 21
-1.435346299880962
  0
LINE
  5
163
100
AcDbEntity
  8
0
  6
CONTINUOUS
 62
    7
370
   25
100
AcDbLine
 10
7.252243734127546
 20
-1.435346299880962
 11
3.252243734127546
 21
-3.435346299880962
  0
LINE
  5
164
100
AcDbEntity
  8
0
  6
CONTINUOUS
 62
    7
370
   25
100
AcDbLine
 10
3.252243734127546
 20
-3.435346299880962
 11
3.252243734127546
 21
0.5646537001190381
  0
LINE
  5
165
100
AcDbEntity
  8
0
  6
CONTINUOUS
 62
    7
370
   25
100
AcDbLine
 10
3.252243734127546
 20
0.5646537001190381
 11
7.252243734127546
 21
-1.435346299880962
  0
LINE
  5
166
100
AcDbEntity
  8
0
  6
CONTINUOUS
 62
    7
370
   25
100
AcDbLine
 10
7.252243734127546
 20
-3.435346299880962
 11
7.252243734127546
 21
0.5646537001190381
  0
ENDBLK
  5
8C
330
8A
100
AcDbEntity
  8
0
100
AcDbBlockEnd
  0
BLOCK
  5
8E
330
8D
100
AcDbEntity
  8
0
100
AcDbBlockBegin
  2
junction-2
 70
    0
 10
0
 20
0
  3
junction-2
  1

  0
CIRCLE
  5
167
100
AcDbEntity
  8
0
  6
ByLayer
 62
  256
370
   -1
100
AcDbCircle
 10
-13.80734487387243
 20
-71.56962301028096
 40
1.289183059150252
  0
ENDBLK
  5
8F
330
8D
100
AcDbEntity
  8
0
100
AcDbBlockEnd
  0
BLOCK
  5
91
330
90
100
AcDbEntity
  8
0
100
AcDbBlockBegin
  2
junction-5
 70
    0
 10
0
 20
0
  3
junction-5
  1

  0
HATCH
  5
168
100
AcDbEntity
  8
0
  6
ByLayer
 62
  256
370
   -1
100
AcDbHatch
 10
0
 20
0
 30
0
210
0
220
0
230
1
  2
gost_ceramics
 70
    0
 71
    0
 91
    1
 92
    0
 93
    1
 72
    2
 10
20.19265512612755
 20
-1.569623010280964
 40
1.289183059150252
 50
0
 51
360
 73
    1
 97
    0
 75
    0
 76
    1
 52
0
 41
0.05
 77
    0
 78
    0
 98
    0
  0
CIRCLE
  5
169
100
AcDbEntity
  8
0
  6
ByLayer
 62
  256
370
   -1
100
AcDbCircle
 10
20.19265512612755
 20
-1.569623010280964
 40
1.289183059150252
  0
ENDBLK
  5
92
330
90
100
AcDbEntity
  8
0
100
AcDbBlockEnd
  0
BLOCK
  5
94
330
93
100
AcDbEntity
  8
0
100
AcDbBlockBegin
  2
junction-6
 70
    0
 10
0
 20
0
  3
junction-6
  1

  0
HATCH
  5
16A
100
AcDbEntity
  8
schematic
  6
ByLayer
 62
  256
370
   -1
100
AcDbHatch
 10
0
 20
0
 30
0
210
0
220
0
230
1
  2
gost_ceramics
 70
    0
 71
    0
 91
    1
 92
    0
 93
    1
 72
    2
 10
20.19265512612755
 20
28.43037698971904
 40
1.289183059150252
 50
0
 51
360
 73
    1
 97
    0
 75
    0
 76
    1
 52
0
 41
0.05
 77
    0
 78
    0
 98
    0
  0
CIRCLE
  5
16B
100
AcDbEntity
  8
schematic
  6
ByLayer
 62
  256
370
   -1
100
AcDbCircle
 10
20.19265512612755
 20
28.43037698971904
 40
1.289183059150252
  0
ENDBLK
  5
95
330
93
100
AcDbEntity
  8
0
100
AcDbBlockEnd
  0
BLOCK
  5
97
330
96
100
AcDbEntity
  8
0
100
AcDbBlockBegin
  2
rjconnector
 70
    0
 10
0
 20
0
  3
rjconnector
  1

  0
LINE
  5
16C
100
AcDbEntity
  8
schematic
  6
ByLayer
 62
  256
370
   -1
100
AcDbLine
 10
-1.755284286164567
 20
-8.518285289755994
 11
-1.755284286164567
 21
1.481714710244006
  0
LINE
  5
16D
100
AcDbEntity
  8
schematic
  6
ByLayer
 62
  256
370
   -1
100
AcDbLine
 10
-1.755284286164567
 20
1.481714710244006
 11
8.244715713835433
 21
1.481714710244006
  0
LINE
  5
16E
100
AcDbEntity
  8
schematic
  6
ByLayer
 62
  256
370
   -1
100
AcDbLine
 10
8.244715713835433
 20
1.481714710244006
 11
8.244715713835433
 21
-8.518285289755994
  0
LINE
  5
16F
100
AcDbEntity
  8
schematic
  6
ByLayer
 62
  256
370
   -1
100
AcDbLine
 10
8.244715713835433
 20
-8.518285289755994
 11
-1.755284286164567
 21
-8.518285289755994
  0
LINE
  5
170
100
AcDbEntity
  8
schematic
  6
ByLayer
 62
  256
370
   -1
100
AcDbLine
 10
2.244715713835433
 20
0.481714710244006
 11
5.244715713835433
 21
0.481714710244006
  0
LINE
  5
171
100
AcDbEntity
  8
schematic
  6
ByLayer
 62
  256
370
   -1
100
AcDbLine
 10
5.244715713835433
 20
0.481714710244006
 11
5.244715713835433
 21
-1.518285289755994
  0
LINE
  5
172
100
AcDbEntity
  8
schematic
  6
ByLayer
 62
  256
370
   -1
100
AcDbLine
 10
5.244715713835433
 20
-1.518285289755994
 11
7.244715713835433
 21
-1.518285289755994
  0
LINE
  5
173
100
AcDbEntity
  8
schematic
  6
ByLayer
 62
  256
370
   -1
100
AcDbLine
 10
7.244715713835433
 20
-1.518285289755994
 11
7.244715713835433
 21
-7.518285289755994
  0
LINE
  5
174
100
AcDbEntity
  8
schematic
  6
ByLayer
 62
  256
370
   -1
100
AcDbLine
 10
7.244715713835433
 20
-7.518285289755994
 11
-0.7552842861645672
 21
-7.518285289755994
  0
LINE
  5
175
100
AcDbEntity
  8
schematic
  6
ByLayer
 62
  256
370
   -1
100
AcDbLine
 10
-0.7552842861645672
 20
-7.518285289755994
 11
-0.7552842861645672
 21
-1.518285289755994
  0
LINE
  5
176
100
AcDbEntity
  8
schematic
  6
ByLayer
 62
  256
370
   -1
100
AcDbLine
 10
-0.7552842861645672
 20
-1.518285289755994
 11
1.244715713835433
 21
-1.518285289755994
  0
LINE
  5
177
100
AcDbEntity
  8
schematic
  6
ByLayer
 62
  256
370
   -1
100
AcDbLine
 10
1.244715713835433
 20
-1.518285289755994
 11
1.244715713835433
 21
0.481714710244006
  0
LINE
  5
178
100
AcDbEntity
  8
schematic
  6
ByLayer
 62
  256
370
   -1
100
AcDbLine
 10
1.244715713835433
 20
0.481714710244006
 11
2.244715713835433
 21
0.481714710244006
  0
ENDBLK
  5
98
330
96
100
AcDbEntity
  8
0
100
AcDbBlockEnd
  0
ENDSEC
  0
SECTION
  2
ENTITIES
  0
INSERT
  5
179
100
AcDbEntity
  8
0
  6
ByLayer
 62
  256
370
   -1
100
AcDbBlockReference
  2
a3-0
 10
-0.5
 20
0.25
 30
0
 41
1
 42
1
 43
0
 50
0
 70
    1
 71
    1
 44
0
 45
0
  0
LINE
  5
17A
100
AcDbEntity
  8
0
  6
ByLayer
 62
  256
370
   -1
100
AcDbLine
 10
20.3926056338
 20
286.019366197
 11
408.897887324
 21
286.019366197
  0
LINE
  5
17B
100
AcDbEntity
  8
0
  6
ByLayer
 62
  256
370
   -1
100
AcDbLine
 10
408.897887324
 20
286.019366197
 11
408.897887324
 21
12.5492957746
  0
LINE
  5
17C
100
AcDbEntity
  8
0
  6
ByLayer
 62
  256
370
   -1
100
AcDbLine
 10
408.897887324
 20
12.5492957746
 11
20.3926056338
 21
12.5492957746
  0
LINE
  5
17D
100
AcDbEntity
  8
0
  6
ByLayer
 62
  256
370
   -1
100
AcDbLine
 10
20.3926056338
 20
12.5492957746
 11
20.3926056338
 21
286.019366197
  0
LINE
  5
17E
100
AcDbEntity
  8
frame-title
  6
ByLayer
 62
  256
370
   -1
100
AcDbLine
 10
300.137323944
 20
54.9031690141
 11
408.897887324
 21
54.9031690141
  0
LINE
  5
17F
100
AcDbEntity
  8
frame-title
  6
ByLayer
 62
  256
370
   -1
100
AcDbLine
 10
300.132357769
 20
12.5492957746
 11
300.132357769
 21
54.9031690141
  0
INSERT
  5
180
100
AcDbEntity
  8
frame-title
  6
ByLayer
 62
  256
370
   -1
100
AcDbBlockReference
  2
eca-logo-1
 10
299.309070423
 20
35.6065352113
 30
0
 41
1
 42
1
 43
0
 50
0
 70
    1
 71
    1
 44
0
 45
0
  0
LINE
  5
181
100
AcDbEntity
  8
help-lines
  6
ByLayer
 62
  256
370
   -1
100
AcDbLine
 10
-0.3706532681816158
 20
148.6319605408279
 11
15.1698729811
 21
148.6319605408279
  0
LINE
  5
182
100
AcDbEntity
  8
help-lines
  6
ByLayer
 62
  256
370
   -1
100
AcDbLine
 10
413.830127019
 20
148.6864622175099
 11
419.5
 21
148.7268816659979
  0
LINE
  5
183
100
AcDbEntity
  8
help-lines
  6
ByLayer
 62
  256
370
   -1
100
AcDbLine
 10
314.5451730611308
 20
297.224709437482
 11
314.5451730611308
 21
291.580151019
  0
LINE
  5
184
100
AcDbEntity
  8
help-lines
  6
ByLayer
 62
  256
370
   -1
100
AcDbLine
 10
314.4947345867757
 20
0.3389682416326533
 11
314.4947345867757
 21
5.91984898108
  0
MTEXT
  5
185
100
AcDbEntity
  8
frame-title
  6
ByLayer
 62
  256
370
   -1
100
AcDbMText
 10
333.041577465
 20
52.2050704225
 30
0
 40
3
 41
59.50000154286238
 71
    1
 72
    1
  1
ECA Di Belardi\PVia Dei Crispolti 91-93, Roma\PTel. 0643535861
  7
standard
210
0
220
0
230
1
 50
0
 73
    2
 44
1
  0
LINE
  5
186
100
AcDbEntity
  8
schematic
  6
ByLayer
 62
  256
370
   -1
100
AcDbLine
 10
305.9952353522055
 20
252.6806830151417
 11
305.9952353522055
 21
202.2806830151416
  0
CIRCLE
  5
187
100
AcDbEntity
  8
schematic
  6
ByLayer
 62
  256
370
   -1
100
AcDbCircle
 10
313.1952353522055
 20
212.3606830151416
 40
1.44
  0
CIRCLE
  5
188
100
AcDbEntity
  8
schematic
  6
ByLayer
 62
  256
370
   -1
100
AcDbCircle
 10
313.1952353522055
 20
207.3206830151416
 40
1.609968943799849
  0
CIRCLE
  5
189
100
AcDbEntity
  8
schematic
  6
ByLayer
 62
  256
370
   -1
100
AcDbCircle
 10
318.2352353522055
 20
212.3606830151416
 40
1.44
  0
CIRCLE
  5
18A
100
AcDbEntity
  8
schematic
  6
ByLayer
 62
  256
370
   -1
100
AcDbCircle
 10
318.2352353522055
 20
207.3206830151416
 40
1.609968943799849
  0
CIRCLE
  5
18B
100
AcDbEntity
  8
schematic
  6
ByLayer
 62
  256
370
   -1
100
AcDbCircle
 10
323.2752353522055
 20
212.3606830151416
 40
1.44
  0
CIRCLE
  5
18C
100
AcDbEntity
  8
schematic
  6
ByLayer
 62
  256
370
   -1
100
AcDbCircle
 10
323.2752353522055
 20
207.3206830151416
 40
1.609968943799849
  0
CIRCLE
  5
18D
100
AcDbEntity
  8
schematic
  6
ByLayer
 62
  256
370
   -1
100
AcDbCircle
 10
328.3152353522055
 20
212.3606830151416
 40
1.44
  0
CIRCLE
  5
18E
100
AcDbEntity
  8
schematic
  6
ByLayer
 62
  256
370
   -1
100
AcDbCircle
 10
328.3152353522055
 20
207.3206830151416
 40
1.609968943799849
  0
CIRCLE
  5
18F
100
AcDbEntity
  8
schematic
  6
ByLayer
 62
  256
370
   -1
100
AcDbCircle
 10
333.3552353522056
 20
212.3606830151416
 40
1.44
  0
CIRCLE
  5
190
100
AcDbEntity
  8
schematic
  6
ByLayer
 62
  256
370
   -1
100
AcDbCircle
 10
333.3552353522056
 20
207.3206830151416
 40
1.609968943799849
  0
CIRCLE
  5
191
100
AcDbEntity
  8
schematic
  6
ByLayer
 62
  256
370
   -1
100
AcDbCircle
 10
338.3952353522055
 20
212.3606830151416
 40
1.44
  0
CIRCLE
  5
192
100
AcDbEntity
  8
schematic
  6
ByLayer
 62
  256
370
   -1
100
AcDbCircle
 10
338.3952353522055
 20
207.3206830151416
 40
1.609968943799849
  0
CIRCLE
  5
193
100
AcDbEntity
  8
schematic
  6
ByLayer
 62
  256
370
   -1
100
AcDbCircle
 10
343.4352353522056
 20
212.3606830151416
 40
1.44
  0
CIRCLE
  5
194
100
AcDbEntity
  8
schematic
  6
ByLayer
 62
  256
370
   -1
100
AcDbCircle
 10
343.4352353522056
 20
207.3206830151416
 40
1.609968943799849
  0
CIRCLE
  5
195
100
AcDbEntity
  8
schematic
  6
ByLayer
 62
  256
370
   -1
100
AcDbCircle
 10
348.4752353522055
 20
212.3606830151416
 40
1.44
  0
CIRCLE
  5
196
100
AcDbEntity
  8
schematic
  6
ByLayer
 62
  256
370
   -1
100
AcDbCircle
 10
348.4752353522055
 20
207.3206830151416
 40
1.609968943799849
  0
LINE
  5
197
100
AcDbEntity
  8
schematic
  6
ByLayer
 62
  256
370
   -1
100
AcDbLine
 10
309.5952353522055
 20
214.5206830151416
 11
309.5952353522055
 21
205.1606830151416
  0
LINE
  5
198
100
AcDbEntity
  8
schematic
  6
ByLayer
 62
  256
370
   -1
100
AcDbLine
 10
309.5952353522055
 20
205.1606830151416
 11
350.6352353522055
 21
205.1606830151416
  0
LINE
  5
199
100
AcDbEntity
  8
schematic
  6
ByLayer
 62
  256
370
   -1
100
AcDbLine
 10
350.6352353522055
 20
205.1606830151416
 11
350.6352353522055
 21
214.5206830151416
  0
LINE
  5
19A
100
AcDbEntity
  8
schematic
  6
ByLayer
 62
  256
370
   -1
100
AcDbLine
 10
350.6352353522055
 20
214.5206830151416
 11
309.5952353522055
 21
214.5206830151416
  0
CIRCLE
  5
19B
100
AcDbEntity
  8
schematic
  6
ByLayer
 62
  256
370
   -1
100
AcDbCircle
 10
359.9952353522055
 20
212.3606830151416
 40
1.44
  0
CIRCLE
  5
19C
100
AcDbEntity
  8
schematic
  6
ByLayer
 62
  256
370
   -1
100
AcDbCircle
 10
359.9952353522055
 20
207.3206830151416
 40
1.609968943799849
  0
CIRCLE
  5
19D
100
AcDbEntity
  8
schematic
  6
ByLayer
 62
  256
370
   -1
100
AcDbCircle
 10
365.0352353522055
 20
212.3606830151416
 40
1.44
  0
CIRCLE
  5
19E
100
AcDbEntity
  8
schematic
  6
ByLayer
 62
  256
370
   -1
100
AcDbCircle
 10
365.0352353522055
 20
207.3206830151416
 40
1.609968943799849
  0
CIRCLE
  5
19F
100
AcDbEntity
  8
schematic
  6
ByLayer
 62
  256
370
   -1
100
AcDbCircle
 10
370.0752353522055
 20
212.3606830151416
 40
1.44
  0
CIRCLE
  5
1A0
100
AcDbEntity
  8
schematic
  6
ByLayer
 62
  256
370
   -1
100
AcDbCircle
 10
370.0752353522055
 20
207.3206830151416
 40
1.609968943799849
  0
CIRCLE
  5
1A1
100
AcDbEntity
  8
schematic
  6
ByLayer
 62
  256
370
   -1
100
AcDbCircle
 10
375.1152353522055
 20
212.3606830151416
 40
1.44
  0
CIRCLE
  5
1A2
100
AcDbEntity
  8
schematic
  6
ByLayer
 62
  256
370
   -1
100
AcDbCircle
 10
375.1152353522055
 20
207.3206830151416
 40
1.609968943799849
  0
CIRCLE
  5
1A3
100
AcDbEntity
  8
schematic
  6
ByLayer
 62
  256
370
   -1
100
AcDbCircle
 10
380.1552353522055
 20
212.3606830151416
 40
1.44
  0
CIRCLE
  5
1A4
100
AcDbEntity
  8
schematic
  6
ByLayer
 62
  256
370
   -1
100
AcDbCircle
 10
380.1552353522055
 20
207.3206830151416
 40
1.609968943799849
  0
CIRCLE
  5
1A5
100
AcDbEntity
  8
schematic
  6
ByLayer
 62
  256
370
   -1
100
AcDbCircle
 10
385.1952353522055
 20
212.3606830151416
 40
1.44
  0
CIRCLE
  5
1A6
100
AcDbEntity
  8
schematic
  6
ByLayer
 62
  256
370
   -1
100
AcDbCircle
 10
385.1952353522055
 20
207.3206830151416
 40
1.609968943799849
  0
CIRCLE
  5
1A7
100
AcDbEntity
  8
schematic
  6
ByLayer
 62
  256
370
   -1
100
AcDbCircle
 10
390.2352353522055
 20
212.3606830151416
 40
1.44
  0
CIRCLE
  5
1A8
100
AcDbEntity
  8
schematic
  6
ByLayer
 62
  256
370
   -1
100
AcDbCircle
 10
390.2352353522055
 20
207.3206830151416
 40
1.609968943799849
  0
CIRCLE
  5
1A9
100
AcDbEntity
  8
schematic
  6
ByLayer
 62
  256
370
   -1
100
AcDbCircle
 10
395.2752353522055
 20
212.3606830151416
 40
1.44
  0
CIRCLE
  5
1AA
100
AcDbEntity
  8
schematic
  6
ByLayer
 62
  256
370
   -1
100
AcDbCircle
 10
395.2752353522055
 20
207.3206830151416
 40
1.609968943799849
  0
LINE
  5
1AB
100
AcDbEntity
  8
schematic
  6
ByLayer
 62
  256
370
   -1
100
AcDbLine
 10
356.3952353522055
 20
214.5206830151416
 11
356.3952353522055
 21
205.1606830151416
  0
LINE
  5
1AC
100
AcDbEntity
  8
schematic
  6
ByLayer
 62
  256
370
   -1
100
AcDbLine
 10
356.3952353522055
 20
205.1606830151416
 11
397.4352353522056
 21
205.1606830151416
  0
LINE
  5
1AD
100
AcDbEntity
  8
schematic
  6
ByLayer
 62
  256
370
   -1
100
AcDbLine
 10
397.4352353522056
 20
205.1606830151416
 11
397.4352353522056
 21
214.5206830151416
  0
LINE
  5
1AE
100
AcDbEntity
  8
schematic
  6
ByLayer
 62
  256
370
   -1
100
AcDbLine
 10
397.4352353522056
 20
214.5206830151416
 11
356.3952353522055
 21
214.5206830151416
  0
LINE
  5
1AF
100
AcDbEntity
  8
schematic
  6
ByLayer
 62
  256
370
   -1
100
AcDbLine
 10
305.9952353522055
 20
202.2806830151416
 11
399.5952353522055
 21
202.2806830151416
  0
LINE
  5
1B0
100
AcDbEntity
  8
schematic
  6
ByLayer
 62
  256
370
   -1
100
AcDbLine
 10
399.5952353522055
 20
252.6806830151417
 11
305.9952353522055
 21
252.6806830151417
  0
LINE
  5
1B1
100
AcDbEntity
  8
schematic
  6
ByLayer
 62
  256
370
   -1
100
AcDbLine
 10
399.5952353522055
 20
202.2806830151416
 11
399.5952353522055
 21
252.6806830151417
  0
LINE
  5
1B2
100
AcDbEntity
  8
schematic
  6
ByLayer
 62
  256
370
   -1
100
AcDbLine
 10
343.4352353522056
 20
173.4806830151416
 11
343.4352353522056
 21
203.7206830151416
  0
LINE
  5
1B3
100
AcDbEntity
  8
schematic
  6
ByLayer
 62
  256
370
   -1
100
AcDbLine
 10
343.4352353522056
 20
203.7206830151416
 11
341.9952353522055
 21
203.7206830151416
  0
LINE
  5
1B4
100
AcDbEntity
  8
schematic
  6
ByLayer
 62
  256
370
   -1
100
AcDbLine
 10
341.9952353522055
 20
203.7206830151416
 11
343.4352353522056
 21
205.8806830151416
  0
LINE
  5
1B5
100
AcDbEntity
  8
schematic
  6
ByLayer
 62
  256
370
   -1
100
AcDbLine
 10
343.4352353522056
 20
205.8806830151416
 11
344.8752353522055
 21
203.7206830151416
  0
LINE
  5
1B6
100
AcDbEntity
  8
schematic
  6
ByLayer
 62
  256
370
   -1
100
AcDbLine
 10
344.8752353522055
 20
203.7206830151416
 11
343.4352353522056
 21
203.7206830151416
  0
LINE
  5
1B7
100
AcDbEntity
  8
schematic
  6
ByLayer
 62
  256
370
   -1
100
AcDbLine
 10
359.9952353522055
 20
173.4806830151416
 11
359.9952353522055
 21
203.7206830151416
  0
LINE
  5
1B8
100
AcDbEntity
  8
schematic
  6
ByLayer
 62
  256
370
   -1
100
AcDbLine
 10
359.9952353522055
 20
203.7206830151416
 11
358.5552353522056
 21
203.7206830151416
  0
LINE
  5
1B9
100
AcDbEntity
  8
schematic
  6
ByLayer
 62
  256
370
   -1
100
AcDbLine
 10
358.5552353522056
 20
203.7206830151416
 11
359.9952353522055
 21
205.8806830151416
  0
LINE
  5
1BA
100
AcDbEntity
  8
schematic
  6
ByLayer
 62
  256
370
   -1
100
AcDbLine
 10
359.9952353522055
 20
205.8806830151416
 11
361.4352353522056
 21
203.7206830151416
  0
LINE
  5
1BB
100
AcDbEntity
  8
schematic
  6
ByLayer
 62
  256
370
   -1
100
AcDbLine
 10
361.4352353522056
 20
203.7206830151416
 11
359.9952353522055
 21
203.7206830151416
  0
LINE
  5
1BC
100
AcDbEntity
  8
schematic
  6
ByLayer
 62
  256
370
   -1
100
AcDbLine
 10
370.0752353522055
 20
173.4806830151416
 11
370.0752353522055
 21
203.7206830151416
  0
LINE
  5
1BD
100
AcDbEntity
  8
schematic
  6
ByLayer
 62
  256
370
   -1
100
AcDbLine
 10
370.0752353522055
 20
203.7206830151416
 11
368.6352353522055
 21
203.7206830151416
  0
LINE
  5
1BE
100
AcDbEntity
  8
schematic
  6
ByLayer
 62
  256
370
   -1
100
AcDbLine
 10
368.6352353522055
 20
203.7206830151416
 11
370.0752353522055
 21
205.8806830151416
  0
LINE
  5
1BF
100
AcDbEntity
  8
schematic
  6
ByLayer
 62
  256
370
   -1
100
AcDbLine
 10
370.0752353522055
 20
205.8806830151416
 11
371.5152353522055
 21
203.7206830151416
  0
LINE
  5
1C0
100
AcDbEntity
  8
schematic
  6
ByLayer
 62
  256
370
   -1
100
AcDbLine
 10
371.5152353522055
 20
203.7206830151416
 11
370.0752353522055
 21
203.7206830151416
  0
LINE
  5
1C1
100
AcDbEntity
  8
schematic
  6
ByLayer
 62
  256
370
   -1
100
AcDbLine
 10
197.5395078999341
 20
252.6806830151417
 11
197.5395078999341
 21
202.2806830151416
  0
CIRCLE
  5
1C2
100
AcDbEntity
  8
schematic
  6
ByLayer
 62
  256
370
   -1
100
AcDbCircle
 10
204.7395078999342
 20
212.3606830151416
 40
1.44
  0
CIRCLE
  5
1C3
100
AcDbEntity
  8
schematic
  6
ByLayer
 62
  256
370
   -1
100
AcDbCircle
 10
204.7395078999342
 20
207.3206830151416
 40
1.609968943799849
  0
CIRCLE
  5
1C4
100
AcDbEntity
  8
schematic
  6
ByLayer
 62
  256
370
   -1
100
AcDbCircle
 10
209.7795078999341
 20
212.3606830151416
 40
1.44
  0
CIRCLE
  5
1C5
100
AcDbEntity
  8
schematic
  6
ByLayer
 62
  256
370
   -1
100
AcDbCircle
 10
209.7795078999341
 20
207.3206830151416
 40
1.609968943799849
  0
CIRCLE
  5
1C6
100
AcDbEntity
  8
schematic
  6
ByLayer
 62
  256
370
   -1
100
AcDbCircle
 10
214.8195078999341
 20
212.3606830151416
 40
1.44
  0
CIRCLE
  5
1C7
100
AcDbEntity
  8
schematic
  6
ByLayer
 62
  256
370
   -1
100
AcDbCircle
 10
214.8195078999341
 20
207.3206830151416
 40
1.609968943799849
  0
CIRCLE
  5
1C8
100
AcDbEntity
  8
schematic
  6
ByLayer
 62
  256
370
   -1
100
AcDbCircle
 10
219.8595078999342
 20
212.3606830151416
 40
1.44
  0
CIRCLE
  5
1C9
100
AcDbEntity
  8
schematic
  6
ByLayer
 62
  256
370
   -1
100
AcDbCircle
 10
219.8595078999342
 20
207.3206830151416
 40
1.609968943799849
  0
CIRCLE
  5
1CA
100
AcDbEntity
  8
schematic
  6
ByLayer
 62
  256
370
   -1
100
AcDbCircle
 10
224.8995078999342
 20
212.3606830151416
 40
1.44
  0
CIRCLE
  5
1CB
100
AcDbEntity
  8
schematic
  6
ByLayer
 62
  256
370
   -1
100
AcDbCircle
 10
224.8995078999342
 20
207.3206830151416
 40
1.609968943799849
  0
CIRCLE
  5
1CC
100
AcDbEntity
  8
schematic
  6
ByLayer
 62
  256
370
   -1
100
AcDbCircle
 10
229.9395078999341
 20
212.3606830151416
 40
1.44
  0
CIRCLE
  5
1CD
100
AcDbEntity
  8
schematic
  6
ByLayer
 62
  256
370
   -1
100
AcDbCircle
 10
229.9395078999341
 20
207.3206830151416
 40
1.609968943799849
  0
CIRCLE
  5
1CE
100
AcDbEntity
  8
schematic
  6
ByLayer
 62
  256
370
   -1
100
AcDbCircle
 10
234.9795078999342
 20
212.3606830151416
 40
1.44
  0
CIRCLE
  5
1CF
100
AcDbEntity
  8
schematic
  6
ByLayer
 62
  256
370
   -1
100
AcDbCircle
 10
234.9795078999342
 20
207.3206830151416
 40
1.609968943799849
  0
CIRCLE
  5
1D0
100
AcDbEntity
  8
schematic
  6
ByLayer
 62
  256
370
   -1
100
AcDbCircle
 10
240.0195078999341
 20
212.3606830151416
 40
1.44
  0
CIRCLE
  5
1D1
100
AcDbEntity
  8
schematic
  6
ByLayer
 62
  256
370
   -1
100
AcDbCircle
 10
240.0195078999341
 20
207.3206830151416
 40
1.609968943799849
  0
LINE
  5
1D2
100
AcDbEntity
  8
schematic
  6
ByLayer
 62
  256
370
   -1
100
AcDbLine
 10
201.1395078999341
 20
214.5206830151416
 11
201.1395078999341
 21
205.1606830151416
  0
LINE
  5
1D3
100
AcDbEntity
  8
schematic
  6
ByLayer
 62
  256
370
   -1
100
AcDbLine
 10
201.1395078999341
 20
205.1606830151416
 11
242.1795078999342
 21
205.1606830151416
  0
LINE
  5
1D4
100
AcDbEntity
  8
schematic
  6
ByLayer
 62
  256
370
   -1
100
AcDbLine
 10
242.1795078999342
 20
205.1606830151416
 11
242.1795078999342
 21
214.5206830151416
  0
LINE
  5
1D5
100
AcDbEntity
  8
schematic
  6
ByLayer
 62
  256
370
   -1
100
AcDbLine
 10
242.1795078999342
 20
214.5206830151416
 11
201.1395078999341
 21
214.5206830151416
  0
CIRCLE
  5
1D6
100
AcDbEntity
  8
schematic
  6
ByLayer
 62
  256
370
   -1
100
AcDbCircle
 10
251.5395078999341
 20
212.3606830151416
 40
1.44
  0
CIRCLE
  5
1D7
100
AcDbEntity
  8
schematic
  6
ByLayer
 62
  256
370
   -1
100
AcDbCircle
 10
251.5395078999341
 20
207.3206830151416
 40
1.609968943799849
  0
CIRCLE
  5
1D8
100
AcDbEntity
  8
schematic
  6
ByLayer
 62
  256
370
   -1
100
AcDbCircle
 10
256.5795078999341
 20
212.3606830151416
 40
1.44
  0
CIRCLE
  5
1D9
100
AcDbEntity
  8
schematic
  6
ByLayer
 62
  256
370
   -1
100
AcDbCircle
 10
256.5795078999341
 20
207.3206830151416
 40
1.609968943799849
  0
CIRCLE
  5
1DA
100
AcDbEntity
  8
schematic
  6
ByLayer
 62
  256
370
   -1
100
AcDbCircle
 10
261.6195078999341
 20
212.3606830151416
 40
1.44
  0
CIRCLE
  5
1DB
100
AcDbEntity
  8
schematic
  6
ByLayer
 62
  256
370
   -1
100
AcDbCircle
 10
261.6195078999341
 20
207.3206830151416
 40
1.609968943799849
  0
CIRCLE
  5
1DC
100
AcDbEntity
  8
schematic
  6
ByLayer
 62
  256
370
   -1
100
AcDbCircle
 10
266.6595078999341
 20
212.3606830151416
 40
1.44
  0
CIRCLE
  5
1DD
100
AcDbEntity
  8
schematic
  6
ByLayer
 62
  256
370
   -1
100
AcDbCircle
 10
266.6595078999341
 20
207.3206830151416
 40
1.609968943799849
  0
CIRCLE
  5
1DE
100
AcDbEntity
  8
schematic
  6
ByLayer
 62
  256
370
   -1
100
AcDbCircle
 10
271.6995078999341
 20
212.3606830151416
 40
1.44
  0
CIRCLE
  5
1DF
100
AcDbEntity
  8
schematic
  6
ByLayer
 62
  256
370
   -1
100
AcDbCircle
 10
271.6995078999341
 20
207.3206830151416
 40
1.609968943799849
  0
CIRCLE
  5
1E0
100
AcDbEntity
  8
schematic
  6
ByLayer
 62
  256
370
   -1
100
AcDbCircle
 10
276.7395078999342
 20
212.3606830151416
 40
1.44
  0
CIRCLE
  5
1E1
100
AcDbEntity
  8
schematic
  6
ByLayer
 62
  256
370
   -1
100
AcDbCircle
 10
276.7395078999342
 20
207.3206830151416
 40
1.609968943799849
  0
CIRCLE
  5
1E2
100
AcDbEntity
  8
schematic
  6
ByLayer
 62
  256
370
   -1
100
AcDbCircle
 10
281.7795078999341
 20
212.3606830151416
 40
1.44
  0
CIRCLE
  5
1E3
100
AcDbEntity
  8
schematic
  6
ByLayer
 62
  256
370
   -1
100
AcDbCircle
 10
281.7795078999341
 20
207.3206830151416
 40
1.609968943799849
  0
CIRCLE
  5
1E4
100
AcDbEntity
  8
schematic
  6
ByLayer
 62
  256
370
   -1
100
AcDbCircle
 10
286.8195078999341
 20
212.3606830151416
 40
1.44
  0
CIRCLE
  5
1E5
100
AcDbEntity
  8
schematic
  6
ByLayer
 62
  256
370
   -1
100
AcDbCircle
 10
286.8195078999341
 20
207.3206830151416
 40
1.609968943799849
  0
LINE
  5
1E6
100
AcDbEntity
  8
schematic
  6
ByLayer
 62
  256
370
   -1
100
AcDbLine
 10
247.9395078999341
 20
214.5206830151416
 11
247.9395078999341
 21
205.1606830151416
  0
LINE
  5
1E7
100
AcDbEntity
  8
schematic
  6
ByLayer
 62
  256
370
   -1
100
AcDbLine
 10
247.9395078999341
 20
205.1606830151416
 11
288.9795078999342
 21
205.1606830151416
  0
LINE
  5
1E8
100
AcDbEntity
  8
schematic
  6
ByLayer
 62
  256
370
   -1
100
AcDbLine
 10
288.9795078999342
 20
205.1606830151416
 11
288.9795078999342
 21
214.5206830151416
  0
LINE
  5
1E9
100
AcDbEntity
  8
schematic
  6
ByLayer
 62
  256
370
   -1
100
AcDbLine
 10
288.9795078999342
 20
214.5206830151416
 11
247.9395078999341
 21
214.5206830151416
  0
LINE
  5
1EA
100
AcDbEntity
  8
schematic
  6
ByLayer
 62
  256
370
   -1
100
AcDbLine
 10
197.5395078999341
 20
202.2806830151416
 11
291.1395078999341
 21
202.2806830151416
  0
LINE
  5
1EB
100
AcDbEntity
  8
schematic
  6
ByLayer
 62
  256
370
   -1
100
AcDbLine
 10
291.1395078999341
 20
252.6806830151417
 11
197.5395078999341
 21
252.6806830151417
  0
LINE
  5
1EC
100
AcDbEntity
  8
schematic
  6
ByLayer
 62
  256
370
   -1
100
AcDbLine
 10
291.1395078999341
 20
202.2806830151416
 11
291.1395078999341
 21
252.6806830151417
  0
LINE
  5
1ED
100
AcDbEntity
  8
schematic
  6
ByLayer
 62
  256
370
   -1
100
AcDbLine
 10
224.8995078999342
 20
159.0806830151416
 11
224.8995078999342
 21
166.2806830151416
  0
LINE
  5
1EE
100
AcDbEntity
  8
schematic
  6
ByLayer
 62
  256
370
   -1
100
AcDbLine
 10
224.8995078999342
 20
173.4806830151416
 11
224.8995078999342
 21
203.7206830151416
  0
LINE
  5
1EF
100
AcDbEntity
  8
schematic
  6
ByLayer
 62
  256
370
   -1
100
AcDbLine
 10
224.8995078999342
 20
203.7206830151416
 11
223.4595078999341
 21
203.7206830151416
  0
LINE
  5
1F0
100
AcDbEntity
  8
schematic
  6
ByLayer
 62
  256
370
   -1
100
AcDbLine
 10
223.4595078999341
 20
203.7206830151416
 11
224.8995078999342
 21
205.8806830151416
  0
LINE
  5
1F1
100
AcDbEntity
  8
schematic
  6
ByLayer
 62
  256
370
   -1
100
AcDbLine
 10
224.8995078999342
 20
205.8806830151416
 11
226.3395078999341
 21
203.7206830151416
  0
LINE
  5
1F2
100
AcDbEntity
  8
schematic
  6
ByLayer
 62
  256
370
   -1
100
AcDbLine
 10
226.3395078999341
 20
203.7206830151416
 11
224.8995078999342
 21
203.7206830151416
  0
LINE
  5
1F3
100
AcDbEntity
  8
schematic
  6
ByLayer
 62
  256
370
   -1
100
AcDbLine
 10
229.9395078999341
 20
159.0806830151416
 11
229.9395078999341
 21
166.2806830151416
  0
LINE
  5
1F4
100
AcDbEntity
  8
schematic
  6
ByLayer
 62
  256
370
   -1
100
AcDbLine
 10
229.9395078999341
 20
173.4806830151416
 11
229.9395078999341
 21
203.7206830151416
  0
LINE
  5
1F5
100
AcDbEntity
  8
schematic
  6
ByLayer
 62
  256
370
   -1
100
AcDbLine
 10
229.9395078999341
 20
203.7206830151416
 11
228.4995078999341
 21
203.7206830151416
  0
LINE
  5
1F6
100
AcDbEntity
  8
schematic
  6
ByLayer
 62
  256
370
   -1
100
AcDbLine
 10
228.4995078999341
 20
203.7206830151416
 11
229.9395078999341
 21
205.8806830151416
  0
LINE
  5
1F7
100
AcDbEntity
  8
schematic
  6
ByLayer
 62
  256
370
   -1
100
AcDbLine
 10
229.9395078999341
 20
205.8806830151416
 11
231.3795078999341
 21
203.7206830151416
  0
LINE
  5
1F8
100
AcDbEntity
  8
schematic
  6
ByLayer
 62
  256
370
   -1
100
AcDbLine
 10
231.3795078999341
 20
203.7206830151416
 11
229.9395078999341
 21
203.7206830151416
  0
LINE
  5
1F9
100
AcDbEntity
  8
schematic
  6
ByLayer
 62
  256
370
   -1
100
AcDbLine
 10
224.8995078999342
 20
166.2806830151416
 11
222.8835078999342
 21
166.2806830151416
  0
LINE
  5
1FA
100
AcDbEntity
  8
schematic
  6
ByLayer
 62
  256
370
   -1
100
AcDbLine
 10
222.8835078999342
 20
166.2806830151416
 11
222.8835078999342
 21
173.4806830151416
  0
LINE
  5
1FB
100
AcDbEntity
  8
schematic
  6
ByLayer
 62
  256
370
   -1
100
AcDbLine
 10
222.8835078999342
 20
173.4806830151416
 11
226.9155078999341
 21
173.4806830151416
  0
LINE
  5
1FC
100
AcDbEntity
  8
schematic
  6
ByLayer
 62
  256
370
   -1
100
AcDbLine
 10
226.9155078999341
 20
173.4806830151416
 11
226.9155078999341
 21
166.2806830151416
  0
LINE
  5
1FD
100
AcDbEntity
  8
schematic
  6
ByLayer
 62
  256
370
   -1
100
AcDbLine
 10
226.9155078999341
 20
166.2806830151416
 11
224.8995078999342
 21
166.2806830151416
  0
LINE
  5
1FE
100
AcDbEntity
  8
schematic
  6
ByLayer
 62
  256
370
   -1
100
AcDbLine
 10
223.8915078999341
 20
167.0006830151416
 11
223.8915078999341
 21
169.8806830151416
  0
LINE
  5
1FF
100
AcDbEntity
  8
schematic
  6
ByLayer
 62
  256
370
   -1
100
AcDbLine
 10
223.8915078999341
 20
169.8806830151416
 11
225.9075078999341
 21
169.8806830151416
  0
LINE
  5
200
100
AcDbEntity
  8
schematic
  6
ByLayer
 62
  256
370
   -1
100
AcDbLine
 10
225.9075078999341
 20
169.8806830151416
 11
225.9075078999341
 21
172.7606830151416
  0
LINE
  5
201
100
AcDbEntity
  8
schematic
  6
ByLayer
 62
  256
370
   -1
100
AcDbLine
 10
229.9395078999341
 20
166.2806830151416
 11
227.9235078999341
 21
166.2806830151416
  0
LINE
  5
202
100
AcDbEntity
  8
schematic
  6
ByLayer
 62
  256
370
   -1
100
AcDbLine
 10
227.9235078999341
 20
166.2806830151416
 11
227.9235078999341
 21
173.4806830151416
  0
LINE
  5
203
100
AcDbEntity
  8
schematic
  6
ByLayer
 62
  256
370
   -1
100
AcDbLine
 10
227.9235078999341
 20
173.4806830151416
 11
231.9555078999342
 21
173.4806830151416
  0
LINE
  5
204
100
AcDbEntity
  8
schematic
  6
ByLayer
 62
  256
370
   -1
100
AcDbLine
 10
231.9555078999342
 20
173.4806830151416
 11
231.9555078999342
 21
166.2806830151416
  0
LINE
  5
205
100
AcDbEntity
  8
schematic
  6
ByLayer
 62
  256
370
   -1
100
AcDbLine
 10
231.9555078999342
 20
166.2806830151416
 11
229.9395078999341
 21
166.2806830151416
  0
LINE
  5
206
100
AcDbEntity
  8
schematic
  6
ByLayer
 62
  256
370
   -1
100
AcDbLine
 10
228.9315078999342
 20
167.0006830151416
 11
228.9315078999342
 21
169.8806830151416
  0
LINE
  5
207
100
AcDbEntity
  8
schematic
  6
ByLayer
 62
  256
370
   -1
100
AcDbLine
 10
228.9315078999342
 20
169.8806830151416
 11
230.9475078999341
 21
169.8806830151416
  0
LINE
  5
208
100
AcDbEntity
  8
schematic
  6
ByLayer
 62
  256
370
   -1
100
AcDbLine
 10
230.9475078999341
 20
169.8806830151416
 11
230.9475078999341
 21
172.7606830151416
  0
LINE
  5
209
100
AcDbEntity
  8
schematic
  6
ByLayer
 62
  256
370
   -1
100
AcDbLine
 10
234.9795078999342
 20
173.4806830151416
 11
234.9795078999342
 21
203.7206830151416
  0
LINE
  5
20A
100
AcDbEntity
  8
schematic
  6
ByLayer
 62
  256
370
   -1
100
AcDbLine
 10
234.9795078999342
 20
203.7206830151416
 11
233.5395078999341
 21
203.7206830151416
  0
LINE
  5
20B
100
AcDbEntity
  8
schematic
  6
ByLayer
 62
  256
370
   -1
100
AcDbLine
 10
233.5395078999341
 20
203.7206830151416
 11
234.9795078999342
 21
205.8806830151416
  0
LINE
  5
20C
100
AcDbEntity
  8
schematic
  6
ByLayer
 62
  256
370
   -1
100
AcDbLine
 10
234.9795078999342
 20
205.8806830151416
 11
236.4195078999341
 21
203.7206830151416
  0
LINE
  5
20D
100
AcDbEntity
  8
schematic
  6
ByLayer
 62
  256
370
   -1
100
AcDbLine
 10
236.4195078999341
 20
203.7206830151416
 11
234.9795078999342
 21
203.7206830151416
  0
LINE
  5
20E
100
AcDbEntity
  8
schematic
  6
ByLayer
 62
  256
370
   -1
100
AcDbLine
 10
240.0195078999341
 20
173.4806830151416
 11
240.0195078999341
 21
203.7206830151416
  0
LINE
  5
20F
100
AcDbEntity
  8
schematic
  6
ByLayer
 62
  256
370
   -1
100
AcDbLine
 10
240.0195078999341
 20
203.7206830151416
 11
238.5795078999341
 21
203.7206830151416
  0
LINE
  5
210
100
AcDbEntity
  8
schematic
  6
ByLayer
 62
  256
370
   -1
100
AcDbLine
 10
238.5795078999341
 20
203.7206830151416
 11
240.0195078999341
 21
205.8806830151416
  0
LINE
  5
211
100
AcDbEntity
  8
schematic
  6
ByLayer
 62
  256
370
   -1
100
AcDbLine
 10
240.0195078999341
 20
205.8806830151416
 11
241.4595078999341
 21
203.7206830151416
  0
LINE
  5
212
100
AcDbEntity
  8
schematic
  6
ByLayer
 62
  256
370
   -1
100
AcDbLine
 10
241.4595078999341
 20
203.7206830151416
 11
240.0195078999341
 21
203.7206830151416
  0
LINE
  5
213
100
AcDbEntity
  8
schematic
  6
ByLayer
 62
  256
370
   -1
100
AcDbLine
 10
251.5395078999341
 20
173.4806830151416
 11
251.5395078999341
 21
203.7206830151416
  0
LINE
  5
214
100
AcDbEntity
  8
schematic
  6
ByLayer
 62
  256
370
   -1
100
AcDbLine
 10
251.5395078999341
 20
203.7206830151416
 11
250.0995078999342
 21
203.7206830151416
  0
LINE
  5
215
100
AcDbEntity
  8
schematic
  6
ByLayer
 62
  256
370
   -1
100
AcDbLine
 10
250.0995078999342
 20
203.7206830151416
 11
251.5395078999341
 21
205.8806830151416
  0
LINE
  5
216
100
AcDbEntity
  8
schematic
  6
ByLayer
 62
  256
370
   -1
100
AcDbLine
 10
251.5395078999341
 20
205.8806830151416
 11
252.9795078999342
 21
203.7206830151416
  0
LINE
  5
217
100
AcDbEntity
  8
schematic
  6
ByLayer
 62
  256
370
   -1
100
AcDbLine
 10
252.9795078999342
 20
203.7206830151416
 11
251.5395078999341
 21
203.7206830151416
  0
LINE
  5
218
100
AcDbEntity
  8
schematic
  6
ByLayer
 62
  256
370
   -1
100
AcDbLine
 10
261.6195078999341
 20
173.4806830151416
 11
261.6195078999341
 21
203.7206830151416
  0
LINE
  5
219
100
AcDbEntity
  8
schematic
  6
ByLayer
 62
  256
370
   -1
100
AcDbLine
 10
261.6195078999341
 20
203.7206830151416
 11
260.1795078999342
 21
203.7206830151416
  0
LINE
  5
21A
100
AcDbEntity
  8
schematic
  6
ByLayer
 62
  256
370
   -1
100
AcDbLine
 10
260.1795078999342
 20
203.7206830151416
 11
261.6195078999341
 21
205.8806830151416
  0
LINE
  5
21B
100
AcDbEntity
  8
schematic
  6
ByLayer
 62
  256
370
   -1
100
AcDbLine
 10
261.6195078999341
 20
205.8806830151416
 11
263.0595078999341
 21
203.7206830151416
  0
LINE
  5
21C
100
AcDbEntity
  8
schematic
  6
ByLayer
 62
  256
370
   -1
100
AcDbLine
 10
263.0595078999341
 20
203.7206830151416
 11
261.6195078999341
 21
203.7206830151416
  0
LINE
  5
21D
100
AcDbEntity
  8
schematic
  6
ByLayer
 62
  256
370
   -1
100
AcDbLine
 10
271.6995078999341
 20
173.4806830151416
 11
271.6995078999341
 21
203.7206830151416
  0
LINE
  5
21E
100
AcDbEntity
  8
schematic
  6
ByLayer
 62
  256
370
   -1
100
AcDbLine
 10
271.6995078999341
 20
203.7206830151416
 11
270.2595078999341
 21
203.7206830151416
  0
LINE
  5
21F
100
AcDbEntity
  8
schematic
  6
ByLayer
 62
  256
370
   -1
100
AcDbLine
 10
270.2595078999341
 20
203.7206830151416
 11
271.6995078999341
 21
205.8806830151416
  0
LINE
  5
220
100
AcDbEntity
  8
schematic
  6
ByLayer
 62
  256
370
   -1
100
AcDbLine
 10
271.6995078999341
 20
205.8806830151416
 11
273.1395078999341
 21
203.7206830151416
  0
LINE
  5
221
100
AcDbEntity
  8
schematic
  6
ByLayer
 62
  256
370
   -1
100
AcDbLine
 10
273.1395078999341
 20
203.7206830151416
 11
271.6995078999341
 21
203.7206830151416
  0
LINE
  5
222
100
AcDbEntity
  8
schematic
  6
ByLayer
 62
  256
370
   -1
100
AcDbLine
 10
197.5395078999341
 20
159.0806830151416
 11
271.6995078999341
 21
159.0806830151416
  0
LINE
  5
223
100
AcDbEntity
  8
schematic
  6
ByLayer
 62
  256
370
   -1
100
AcDbLine
 10
271.6995078999341
 20
159.0806830151416
 11
271.6995078999341
 21
166.2806830151416
  0
LINE
  5
224
100
AcDbEntity
  8
schematic
  6
ByLayer
 62
  256
370
   -1
100
AcDbLine
 10
271.6995078999341
 20
166.2806830151416
 11
274.5795078999341
 21
173.4806830151416
  0
LINE
  5
225
100
AcDbEntity
  8
schematic
  6
ByLayer
 62
  256
370
   -1
100
AcDbLine
 10
234.2595078999341
 20
159.0806830151416
 11
234.2595078999341
 21
166.2806830151416
  0
LINE
  5
226
100
AcDbEntity
  8
schematic
  6
ByLayer
 62
  256
370
   -1
100
AcDbLine
 10
234.2595078999341
 20
166.2806830151416
 11
237.1395078999341
 21
173.4806830151416
  0
LINE
  5
227
100
AcDbEntity
  8
schematic
  6
ByLayer
 62
  256
370
   -1
100
AcDbLine
 10
240.7395078999342
 20
159.0806830151416
 11
240.7395078999342
 21
166.2806830151416
  0
LINE
  5
228
100
AcDbEntity
  8
schematic
  6
ByLayer
 62
  256
370
   -1
100
AcDbLine
 10
240.7395078999342
 20
166.2806830151416
 11
243.6195078999341
 21
173.4806830151416
  0
INSERT
  5
229
100
AcDbEntity
  8
schematic
  6
ByLayer
 62
  256
370
   -1
100
AcDbBlockReference
  2
junction
 10
224.8995078999342
 20
159.0806830151416
 30
0
 41
0.7200000000000001
 42
0.7200000000000001
 43
0
 50
0
 70
    1
 71
    1
 44
0
 45
0
  0
MTEXT
  5
22A
100
AcDbEntity
  8
labels
  6
ByLayer
 62
  256
370
   -1
100
AcDbMText
 10
204.7395078999342
 20
245.4806830151416
 30
0
 40
3.6
 41
19.9
 71
    1
 72
    1
  1
PERIF 41
  7
standard
210
0
220
0
230
1
 50
0
 73
    2
 44
1
  0
INSERT
  5
22B
100
AcDbEntity
  8
schematic
  6
ByLayer
 62
  256
370
   -1
100
AcDbBlockReference
  2
junction
 10
229.9395078999341
 20
159.0806830151416
 30
0
 41
0.7200000000000001
 42
0.7200000000000001
 43
0
 50
0
 70
    1
 71
    1
 44
0.7200000000000001
 45
0.7200000000000001
  0
INSERT
  5
22C
100
AcDbEntity
  8
schematic
  6
ByLayer
 62
  256
370
   -1
100
AcDbBlockReference
  2
junction
 10
234.2595078999341
 20
159.0806830151416
 30
0
 41
0.7200000000000001
 42
0.7200000000000001
 43
0
 50
0
 70
    1
 71
    1
 44
0.7200000000000001
 45
0.7200000000000001
  0
INSERT
  5
22D
100
AcDbEntity
  8
schematic
  6
ByLayer
 62
  256
370
   -1
100
AcDbBlockReference
  2
junction
 10
240.7395078999342
 20
159.0806830151416
 30
0
 41
0.7200000000000001
 42
0.7200000000000001
 43
0
 50
0
 70
    1
 71
    1
 44
0.7200000000000001
 45
0.7200000000000001
  0
LINE
  5
22E
100
AcDbEntity
  8
schematic
  6
ByLayer
 62
  256
370
   -1
100
AcDbLine
 10
91.937878538512
 20
252.6806830151417
 11
91.937878538512
 21
202.2806830151416
  0
CIRCLE
  5
22F
100
AcDbEntity
  8
schematic
  6
ByLayer
 62
  256
370
   -1
100
AcDbCircle
 10
99.13787853851204
 20
212.3606830151416
 40
1.44
  0
CIRCLE
  5
230
100
AcDbEntity
  8
schematic
  6
ByLayer
 62
  256
370
   -1
100
AcDbCircle
 10
99.13787853851204
 20
207.3206830151416
 40
1.609968943799849
  0
CIRCLE
  5
231
100
AcDbEntity
  8
schematic
  6
ByLayer
 62
  256
370
   -1
100
AcDbCircle
 10
104.177878538512
 20
212.3606830151416
 40
1.44
  0
CIRCLE
  5
232
100
AcDbEntity
  8
schematic
  6
ByLayer
 62
  256
370
   -1
100
AcDbCircle
 10
104.177878538512
 20
207.3206830151416
 40
1.609968943799849
  0
CIRCLE
  5
233
100
AcDbEntity
  8
schematic
  6
ByLayer
 62
  256
370
   -1
100
AcDbCircle
 10
109.217878538512
 20
212.3606830151416
 40
1.44
  0
CIRCLE
  5
234
100
AcDbEntity
  8
schematic
  6
ByLayer
 62
  256
370
   -1
100
AcDbCircle
 10
109.217878538512
 20
207.3206830151416
 40
1.609968943799849
  0
CIRCLE
  5
235
100
AcDbEntity
  8
schematic
  6
ByLayer
 62
  256
370
   -1
100
AcDbCircle
 10
114.257878538512
 20
212.3606830151416
 40
1.44
  0
CIRCLE
  5
236
100
AcDbEntity
  8
schematic
  6
ByLayer
 62
  256
370
   -1
100
AcDbCircle
 10
114.257878538512
 20
207.3206830151416
 40
1.609968943799849
  0
CIRCLE
  5
237
100
AcDbEntity
  8
schematic
  6
ByLayer
 62
  256
370
   -1
100
AcDbCircle
 10
119.2978785385121
 20
212.3606830151416
 40
1.44
  0
CIRCLE
  5
238
100
AcDbEntity
  8
schematic
  6
ByLayer
 62
  256
370
   -1
100
AcDbCircle
 10
119.2978785385121
 20
207.3206830151416
 40
1.609968943799849
  0
CIRCLE
  5
239
100
AcDbEntity
  8
schematic
  6
ByLayer
 62
  256
370
   -1
100
AcDbCircle
 10
124.337878538512
 20
212.3606830151416
 40
1.44
  0
CIRCLE
  5
23A
100
AcDbEntity
  8
schematic
  6
ByLayer
 62
  256
370
   -1
100
AcDbCircle
 10
124.337878538512
 20
207.3206830151416
 40
1.609968943799849
  0
CIRCLE
  5
23B
100
AcDbEntity
  8
schematic
  6
ByLayer
 62
  256
370
   -1
100
AcDbCircle
 10
129.377878538512
 20
212.3606830151416
 40
1.44
  0
CIRCLE
  5
23C
100
AcDbEntity
  8
schematic
  6
ByLayer
 62
  256
370
   -1
100
AcDbCircle
 10
129.377878538512
 20
207.3206830151416
 40
1.609968943799849
  0
CIRCLE
  5
23D
100
AcDbEntity
  8
schematic
  6
ByLayer
 62
  256
370
   -1
100
AcDbCircle
 10
134.417878538512
 20
212.3606830151416
 40
1.44
  0
CIRCLE
  5
23E
100
AcDbEntity
  8
schematic
  6
ByLayer
 62
  256
370
   -1
100
AcDbCircle
 10
134.417878538512
 20
207.3206830151416
 40
1.609968943799849
  0
LINE
  5
23F
100
AcDbEntity
  8
schematic
  6
ByLayer
 62
  256
370
   -1
100
AcDbLine
 10
95.53787853851202
 20
214.5206830151416
 11
95.53787853851202
 21
205.1606830151416
  0
LINE
  5
240
100
AcDbEntity
  8
schematic
  6
ByLayer
 62
  256
370
   -1
100
AcDbLine
 10
95.53787853851202
 20
205.1606830151416
 11
136.577878538512
 21
205.1606830151416
  0
LINE
  5
241
100
AcDbEntity
  8
schematic
  6
ByLayer
 62
  256
370
   -1
100
AcDbLine
 10
136.577878538512
 20
205.1606830151416
 11
136.577878538512
 21
214.5206830151416
  0
LINE
  5
242
100
AcDbEntity
  8
schematic
  6
ByLayer
 62
  256
370
   -1
100
AcDbLine
 10
136.577878538512
 20
214.5206830151416
 11
95.53787853851202
 21
214.5206830151416
  0
CIRCLE
  5
243
100
AcDbEntity
  8
schematic
  6
ByLayer
 62
  256
370
   -1
100
AcDbCircle
 10
145.937878538512
 20
212.3606830151416
 40
1.44
  0
CIRCLE
  5
244
100
AcDbEntity
  8
schematic
  6
ByLayer
 62
  256
370
   -1
100
AcDbCircle
 10
145.937878538512
 20
207.3206830151416
 40
1.609968943799849
  0
CIRCLE
  5
245
100
AcDbEntity
  8
schematic
  6
ByLayer
 62
  256
370
   -1
100
AcDbCircle
 10
150.977878538512
 20
212.3606830151416
 40
1.44
  0
CIRCLE
  5
246
100
AcDbEntity
  8
schematic
  6
ByLayer
 62
  256
370
   -1
100
AcDbCircle
 10
150.977878538512
 20
207.3206830151416
 40
1.609968943799849
  0
CIRCLE
  5
247
100
AcDbEntity
  8
schematic
  6
ByLayer
 62
  256
370
   -1
100
AcDbCircle
 10
156.017878538512
 20
212.3606830151416
 40
1.44
  0
CIRCLE
  5
248
100
AcDbEntity
  8
schematic
  6
ByLayer
 62
  256
370
   -1
100
AcDbCircle
 10
156.017878538512
 20
207.3206830151416
 40
1.609968943799849
  0
CIRCLE
  5
249
100
AcDbEntity
  8
schematic
  6
ByLayer
 62
  256
370
   -1
100
AcDbCircle
 10
161.057878538512
 20
212.3606830151416
 40
1.44
  0
CIRCLE
  5
24A
100
AcDbEntity
  8
schematic
  6
ByLayer
 62
  256
370
   -1
100
AcDbCircle
 10
161.057878538512
 20
207.3206830151416
 40
1.609968943799849
  0
CIRCLE
  5
24B
100
AcDbEntity
  8
schematic
  6
ByLayer
 62
  256
370
   -1
100
AcDbCircle
 10
166.097878538512
 20
212.3606830151416
 40
1.44
  0
CIRCLE
  5
24C
100
AcDbEntity
  8
schematic
  6
ByLayer
 62
  256
370
   -1
100
AcDbCircle
 10
166.097878538512
 20
207.3206830151416
 40
1.609968943799849
  0
CIRCLE
  5
24D
100
AcDbEntity
  8
schematic
  6
ByLayer
 62
  256
370
   -1
100
AcDbCircle
 10
171.137878538512
 20
212.3606830151416
 40
1.44
  0
CIRCLE
  5
24E
100
AcDbEntity
  8
schematic
  6
ByLayer
 62
  256
370
   -1
100
AcDbCircle
 10
171.137878538512
 20
207.3206830151416
 40
1.609968943799849
  0
CIRCLE
  5
24F
100
AcDbEntity
  8
schematic
  6
ByLayer
 62
  256
370
   -1
100
AcDbCircle
 10
176.177878538512
 20
212.3606830151416
 40
1.44
  0
CIRCLE
  5
250
100
AcDbEntity
  8
schematic
  6
ByLayer
 62
  256
370
   -1
100
AcDbCircle
 10
176.177878538512
 20
207.3206830151416
 40
1.609968943799849
  0
CIRCLE
  5
251
100
AcDbEntity
  8
schematic
  6
ByLayer
 62
  256
370
   -1
100
AcDbCircle
 10
181.217878538512
 20
212.3606830151416
 40
1.44
  0
CIRCLE
  5
252
100
AcDbEntity
  8
schematic
  6
ByLayer
 62
  256
370
   -1
100
AcDbCircle
 10
181.217878538512
 20
207.3206830151416
 40
1.609968943799849
  0
LINE
  5
253
100
AcDbEntity
  8
schematic
  6
ByLayer
 62
  256
370
   -1
100
AcDbLine
 10
142.337878538512
 20
214.5206830151416
 11
142.337878538512
 21
205.1606830151416
  0
LINE
  5
254
100
AcDbEntity
  8
schematic
  6
ByLayer
 62
  256
370
   -1
100
AcDbLine
 10
142.337878538512
 20
205.1606830151416
 11
183.377878538512
 21
205.1606830151416
  0
LINE
  5
255
100
AcDbEntity
  8
schematic
  6
ByLayer
 62
  256
370
   -1
100
AcDbLine
 10
183.377878538512
 20
205.1606830151416
 11
183.377878538512
 21
214.5206830151416
  0
LINE
  5
256
100
AcDbEntity
  8
schematic
  6
ByLayer
 62
  256
370
   -1
100
AcDbLine
 10
183.377878538512
 20
214.5206830151416
 11
142.337878538512
 21
214.5206830151416
  0
LINE
  5
257
100
AcDbEntity
  8
schematic
  6
ByLayer
 62
  256
370
   -1
100
AcDbLine
 10
91.937878538512
 20
202.2806830151416
 11
185.537878538512
 21
202.2806830151416
  0
LINE
  5
258
100
AcDbEntity
  8
schematic
  6
ByLayer
 62
  256
370
   -1
100
AcDbLine
 10
185.537878538512
 20
252.6806830151417
 11
91.937878538512
 21
252.6806830151417
  0
LINE
  5
259
100
AcDbEntity
  8
schematic
  6
ByLayer
 62
  256
370
   -1
100
AcDbLine
 10
185.537878538512
 20
202.2806830151416
 11
185.537878538512
 21
252.6806830151417
  0
LINE
  5
25A
100
AcDbEntity
  8
schematic
  6
ByLayer
 62
  256
370
   -1
100
AcDbLine
 10
145.937878538512
 20
173.4806830151416
 11
145.937878538512
 21
203.7206830151416
  0
LINE
  5
25B
100
AcDbEntity
  8
schematic
  6
ByLayer
 62
  256
370
   -1
100
AcDbLine
 10
145.937878538512
 20
203.7206830151416
 11
144.4978785385121
 21
203.7206830151416
  0
LINE
  5
25C
100
AcDbEntity
  8
schematic
  6
ByLayer
 62
  256
370
   -1
100
AcDbLine
 10
144.4978785385121
 20
203.7206830151416
 11
145.937878538512
 21
205.8806830151416
  0
LINE
  5
25D
100
AcDbEntity
  8
schematic
  6
ByLayer
 62
  256
370
   -1
100
AcDbLine
 10
145.937878538512
 20
205.8806830151416
 11
147.377878538512
 21
203.7206830151416
  0
LINE
  5
25E
100
AcDbEntity
  8
schematic
  6
ByLayer
 62
  256
370
   -1
100
AcDbLine
 10
147.377878538512
 20
203.7206830151416
 11
145.937878538512
 21
203.7206830151416
  0
LINE
  5
25F
100
AcDbEntity
  8
schematic
  6
ByLayer
 62
  256
370
   -1
100
AcDbLine
 10
181.3775365392263
 20
173.6000553432722
 11
181.3775365392263
 21
203.8400553432722
  0
LINE
  5
260
100
AcDbEntity
  8
schematic
  6
ByLayer
 62
  256
370
   -1
100
AcDbLine
 10
181.3775365392263
 20
203.8400553432722
 11
179.9375365392263
 21
203.8400553432722
  0
LINE
  5
261
100
AcDbEntity
  8
schematic
  6
ByLayer
 62
  256
370
   -1
100
AcDbLine
 10
179.9375365392263
 20
203.8400553432722
 11
181.3775365392263
 21
206.0000553432722
  0
LINE
  5
262
100
AcDbEntity
  8
schematic
  6
ByLayer
 62
  256
370
   -1
100
AcDbLine
 10
181.3775365392263
 20
206.0000553432722
 11
182.8175365392263
 21
203.8400553432722
  0
LINE
  5
263
100
AcDbEntity
  8
schematic
  6
ByLayer
 62
  256
370
   -1
100
AcDbLine
 10
182.8175365392263
 20
203.8400553432722
 11
181.3775365392263
 21
203.8400553432722
  0
LINE
  5
264
100
AcDbEntity
  8
schematic
  6
ByLayer
 62
  256
370
   -1
100
AcDbLine
 10
99.00458275631341
 20
173.4806830151416
 11
99.00458275631341
 21
203.7206830151416
  0
LINE
  5
265
100
AcDbEntity
  8
schematic
  6
ByLayer
 62
  256
370
   -1
100
AcDbLine
 10
99.00458275631341
 20
203.7206830151416
 11
97.56458275631331
 21
203.7206830151416
  0
LINE
  5
266
100
AcDbEntity
  8
schematic
  6
ByLayer
 62
  256
370
   -1
100
AcDbLine
 10
97.56458275631331
 20
203.7206830151416
 11
99.00458275631341
 21
205.8806830151416
  0
LINE
  5
267
100
AcDbEntity
  8
schematic
  6
ByLayer
 62
  256
370
   -1
100
AcDbLine
 10
99.00458275631341
 20
205.8806830151416
 11
100.4445827563133
 21
203.7206830151416
  0
LINE
  5
268
100
AcDbEntity
  8
schematic
  6
ByLayer
 62
  256
370
   -1
100
AcDbLine
 10
100.4445827563133
 20
203.7206830151416
 11
99.00458275631341
 21
203.7206830151416
  0
LINE
  5
269
100
AcDbEntity
  8
schematic
  6
ByLayer
 62
  256
370
   -1
100
AcDbLine
 10
134.4581642110958
 20
173.4806830151416
 11
134.4581642110958
 21
203.7206830151416
  0
LINE
  5
26A
100
AcDbEntity
  8
schematic
  6
ByLayer
 62
  256
370
   -1
100
AcDbLine
 10
134.4581642110958
 20
203.7206830151416
 11
133.0181642110957
 21
203.7206830151416
  0
LINE
  5
26B
100
AcDbEntity
  8
schematic
  6
ByLayer
 62
  256
370
   -1
100
AcDbLine
 10
133.0181642110957
 20
203.7206830151416
 11
134.4581642110958
 21
205.8806830151416
  0
LINE
  5
26C
100
AcDbEntity
  8
schematic
  6
ByLayer
 62
  256
370
   -1
100
AcDbLine
 10
134.4581642110958
 20
205.8806830151416
 11
135.8981642110957
 21
203.7206830151416
  0
LINE
  5
26D
100
AcDbEntity
  8
schematic
  6
ByLayer
 62
  256
370
   -1
100
AcDbLine
 10
135.8981642110957
 20
203.7206830151416
 11
134.4581642110958
 21
203.7206830151416
  0
LINE
  5
26E
100
AcDbEntity
  8
schematic
  6
ByLayer
 62
  256
370
   -1
100
AcDbLine
 10
98.95966002025126
 20
210.9309038067358
 11
98.95966002025126
 21
209.0209465566465
  0
LINE
  5
26F
100
AcDbEntity
  8
schematic
  6
ByLayer
 62
  256
370
   -1
100
AcDbLine
 10
104.0926701298662
 20
210.9309038067358
 11
104.0926701298662
 21
209.0209465566465
  0
LINE
  5
270
100
AcDbEntity
  8
schematic
  6
ByLayer
 62
  256
370
   -1
100
AcDbLine
 10
109.2256802394812
 20
210.9309038067358
 11
109.2256802394812
 21
209.0209465566465
  0
LINE
  5
271
100
AcDbEntity
  8
schematic
  6
ByLayer
 62
  256
370
   -1
100
AcDbLine
 10
114.3586903490962
 20
210.9309038067358
 11
114.3586903490962
 21
209.0209465566465
  0
LINE
  5
272
100
AcDbEntity
  8
schematic
  6
ByLayer
 62
  256
370
   -1
100
AcDbLine
 10
119.2529558024499
 20
211.0502761348664
 11
119.2529558024499
 21
209.1403188847771
  0
LINE
  5
273
100
AcDbEntity
  8
schematic
  6
ByLayer
 62
  256
370
   -1
100
AcDbLine
 10
124.3859659120649
 20
211.0502761348664
 11
124.3859659120649
 21
209.1403188847771
  0
LINE
  5
274
100
AcDbEntity
  8
schematic
  6
ByLayer
 62
  256
370
   -1
100
AcDbLine
 10
129.5189760216799
 20
211.0502761348664
 11
129.5189760216799
 21
209.1403188847771
  0
LINE
  5
275
100
AcDbEntity
  8
schematic
  6
ByLayer
 62
  256
370
   -1
100
AcDbLine
 10
134.6519861312948
 20
211.0502761348664
 11
134.6519861312948
 21
209.1403188847771
  0
LINE
  5
276
100
AcDbEntity
  8
schematic
  6
ByLayer
 62
  256
370
   -1
100
AcDbLine
 10
145.7536126474388
 20
210.9309038067358
 11
145.7536126474388
 21
209.0209465566465
  0
LINE
  5
277
100
AcDbEntity
  8
schematic
  6
ByLayer
 62
  256
370
   -1
100
AcDbLine
 10
150.8866227570538
 20
210.9309038067358
 11
150.8866227570538
 21
209.0209465566465
  0
LINE
  5
278
100
AcDbEntity
  8
schematic
  6
ByLayer
 62
  256
370
   -1
100
AcDbLine
 10
156.0196328666688
 20
210.9309038067358
 11
156.0196328666688
 21
209.0209465566465
  0
LINE
  5
279
100
AcDbEntity
  8
schematic
  6
ByLayer
 62
  256
370
   -1
100
AcDbLine
 10
161.1526429762837
 20
210.9309038067358
 11
161.1526429762837
 21
209.0209465566465
  0
LINE
  5
27A
100
AcDbEntity
  8
schematic
  6
ByLayer
 62
  256
370
   -1
100
AcDbLine
 10
166.0469084296375
 20
211.0502761348664
 11
166.0469084296375
 21
209.1403188847771
  0
LINE
  5
27B
100
AcDbEntity
  8
schematic
  6
ByLayer
 62
  256
370
   -1
100
AcDbLine
 10
171.1799185392525
 20
211.0502761348664
 11
171.1799185392525
 21
209.1403188847771
  0
LINE
  5
27C
100
AcDbEntity
  8
schematic
  6
ByLayer
 62
  256
370
   -1
100
AcDbLine
 10
176.3129286488674
 20
211.0502761348664
 11
176.3129286488674
 21
209.1403188847771
  0
LINE
  5
27D
100
AcDbEntity
  8
schematic
  6
ByLayer
 62
  256
370
   -1
100
AcDbLine
 10
181.4459387584824
 20
211.0502761348664
 11
181.4459387584824
 21
209.1403188847771
  0
LINE
  5
27E
100
AcDbEntity
  8
schematic
  6
ByLayer
 62
  256
370
   -1
100
AcDbLine
 10
204.4847980876845
 20
210.9309038067358
 11
204.4847980876845
 21
209.0209465566465
  0
LINE
  5
27F
100
AcDbEntity
  8
schematic
  6
ByLayer
 62
  256
370
   -1
100
AcDbLine
 10
209.6178081972994
 20
210.9309038067358
 11
209.6178081972994
 21
209.0209465566465
  0
LINE
  5
280
100
AcDbEntity
  8
schematic
  6
ByLayer
 62
  256
370
   -1
100
AcDbLine
 10
214.7508183069144
 20
210.9309038067358
 11
214.7508183069144
 21
209.0209465566465
  0
LINE
  5
281
100
AcDbEntity
  8
schematic
  6
ByLayer
 62
  256
370
   -1
100
AcDbLine
 10
219.8838284165293
 20
210.9309038067358
 11
219.8838284165293
 21
209.0209465566465
  0
LINE
  5
282
100
AcDbEntity
  8
schematic
  6
ByLayer
 62
  256
370
   -1
100
AcDbLine
 10
224.7780938698831
 20
211.0502761348664
 11
224.7780938698831
 21
209.1403188847771
  0
LINE
  5
283
100
AcDbEntity
  8
schematic
  6
ByLayer
 62
  256
370
   -1
100
AcDbLine
 10
229.9111039794981
 20
211.0502761348664
 11
229.9111039794981
 21
209.1403188847771
  0
LINE
  5
284
100
AcDbEntity
  8
schematic
  6
ByLayer
 62
  256
370
   -1
100
AcDbLine
 10
235.044114089113
 20
211.0502761348664
 11
235.044114089113
 21
209.1403188847771
  0
LINE
  5
285
100
AcDbEntity
  8
schematic
  6
ByLayer
 62
  256
370
   -1
100
AcDbLine
 10
240.177124198728
 20
211.0502761348664
 11
240.177124198728
 21
209.1403188847771
  0
LINE
  5
286
100
AcDbEntity
  8
schematic
  6
ByLayer
 62
  256
370
   -1
100
AcDbLine
 10
251.278750714872
 20
210.9309038067358
 11
251.278750714872
 21
209.0209465566465
  0
LINE
  5
287
100
AcDbEntity
  8
schematic
  6
ByLayer
 62
  256
370
   -1
100
AcDbLine
 10
256.4117608244869
 20
210.9309038067358
 11
256.4117608244869
 21
209.0209465566465
  0
LINE
  5
288
100
AcDbEntity
  8
schematic
  6
ByLayer
 62
  256
370
   -1
100
AcDbLine
 10
261.544770934102
 20
210.9309038067358
 11
261.544770934102
 21
209.0209465566465
  0
LINE
  5
289
100
AcDbEntity
  8
schematic
  6
ByLayer
 62
  256
370
   -1
100
AcDbLine
 10
266.6777810437169
 20
210.9309038067358
 11
266.6777810437169
 21
209.0209465566465
  0
LINE
  5
28A
100
AcDbEntity
  8
schematic
  6
ByLayer
 62
  256
370
   -1
100
AcDbLine
 10
271.5720464970707
 20
211.0502761348664
 11
271.5720464970707
 21
209.1403188847771
  0
LINE
  5
28B
100
AcDbEntity
  8
schematic
  6
ByLayer
 62
  256
370
   -1
100
AcDbLine
 10
276.7050566066856
 20
211.0502761348664
 11
276.7050566066856
 21
209.1403188847771
  0
LINE
  5
28C
100
AcDbEntity
  8
schematic
  6
ByLayer
 62
  256
370
   -1
100
AcDbLine
 10
281.8380667163006
 20
211.0502761348664
 11
281.8380667163006
 21
209.1403188847771
  0
LINE
  5
28D
100
AcDbEntity
  8
schematic
  6
ByLayer
 62
  256
370
   -1
100
AcDbLine
 10
286.9710768259156
 20
211.0502761348664
 11
286.9710768259156
 21
209.1403188847771
  0
LINE
  5
28E
100
AcDbEntity
  8
schematic
  6
ByLayer
 62
  256
370
   -1
100
AcDbLine
 10
312.9942443583822
 20
211.0502761348664
 11
312.9942443583822
 21
209.1403188847771
  0
LINE
  5
28F
100
AcDbEntity
  8
schematic
  6
ByLayer
 62
  256
370
   -1
100
AcDbLine
 10
318.1272544679971
 20
211.0502761348664
 11
318.1272544679971
 21
209.1403188847771
  0
LINE
  5
290
100
AcDbEntity
  8
schematic
  6
ByLayer
 62
  256
370
   -1
100
AcDbLine
 10
323.2602645776121
 20
211.0502761348664
 11
323.2602645776121
 21
209.1403188847771
  0
LINE
  5
291
100
AcDbEntity
  8
schematic
  6
ByLayer
 62
  256
370
   -1
100
AcDbLine
 10
328.3932746872271
 20
211.0502761348664
 11
328.3932746872271
 21
209.1403188847771
  0
LINE
  5
292
100
AcDbEntity
  8
schematic
  6
ByLayer
 62
  256
370
   -1
100
AcDbLine
 10
333.2875401405809
 20
211.1696484629969
 11
333.2875401405809
 21
209.2596912129077
  0
LINE
  5
293
100
AcDbEntity
  8
schematic
  6
ByLayer
 62
  256
370
   -1
100
AcDbLine
 10
338.4205502501958
 20
211.1696484629969
 11
338.4205502501958
 21
209.2596912129077
  0
LINE
  5
294
100
AcDbEntity
  8
schematic
  6
ByLayer
 62
  256
370
   -1
100
AcDbLine
 10
343.5535603598108
 20
211.1696484629969
 11
343.5535603598108
 21
209.2596912129077
  0
LINE
  5
295
100
AcDbEntity
  8
schematic
  6
ByLayer
 62
  256
370
   -1
100
AcDbLine
 10
348.6865704694258
 20
211.1696484629969
 11
348.6865704694258
 21
209.2596912129077
  0
LINE
  5
296
100
AcDbEntity
  8
schematic
  6
ByLayer
 62
  256
370
   -1
100
AcDbLine
 10
359.7881969855698
 20
211.0502761348664
 11
359.7881969855698
 21
209.1403188847771
  0
LINE
  5
297
100
AcDbEntity
  8
schematic
  6
ByLayer
 62
  256
370
   -1
100
AcDbLine
 10
364.9212070951846
 20
211.0502761348664
 11
364.9212070951846
 21
209.1403188847771
  0
LINE
  5
298
100
AcDbEntity
  8
schematic
  6
ByLayer
 62
  256
370
   -1
100
AcDbLine
 10
370.0542172047997
 20
211.0502761348664
 11
370.0542172047997
 21
209.1403188847771
  0
LINE
  5
299
100
AcDbEntity
  8
schematic
  6
ByLayer
 62
  256
370
   -1
100
AcDbLine
 10
375.1872273144146
 20
211.0502761348664
 11
375.1872273144146
 21
209.1403188847771
  0
LINE
  5
29A
100
AcDbEntity
  8
schematic
  6
ByLayer
 62
  256
370
   -1
100
AcDbLine
 10
380.0814927677684
 20
211.1696484629969
 11
380.0814927677684
 21
209.2596912129077
  0
LINE
  5
29B
100
AcDbEntity
  8
schematic
  6
ByLayer
 62
  256
370
   -1
100
AcDbLine
 10
385.2145028773833
 20
211.1696484629969
 11
385.2145028773833
 21
209.2596912129077
  0
LINE
  5
29C
100
AcDbEntity
  8
schematic
  6
ByLayer
 62
  256
370
   -1
100
AcDbLine
 10
390.3475129869984
 20
211.1696484629969
 11
390.3475129869984
 21
209.2596912129077
  0
LINE
  5
29D
100
AcDbEntity
  8
schematic
  6
ByLayer
 62
  256
370
   -1
100
AcDbLine
 10
395.4805230966133
 20
211.1696484629969
 11
395.4805230966133
 21
209.2596912129077
  0
INSERT
  5
29E
100
AcDbEntity
  8
schematic
  6
ByLayer
 62
  256
370
   35
100
AcDbBlockReference
  2
Switch-button-mk
 10
174.7088076579143
 20
144.0685804304148
 30
0
 41
1
 42
1
 43
0
 50
179.7517
 70
    1
 71
    1
 44
0
 45
0
  0
INSERT
  5
29F
100
AcDbEntity
  8
schematic
  6
ByLayer
 62
  256
370
   -1
100
AcDbBlockReference
  2
vd1
 10
119.8967765938676
 20
176.2647612473712
 30
0
 41
1
 42
1
 43
0
 50
0
 70
    1
 71
    1
 44
0
 45
0
  0
INSERT
  5
2A0
100
AcDbEntity
  8
schematic
  6
ByLayer
 62
  256
370
   -1
100
AcDbBlockReference
  2
ln1
 10
130.7525943990799
 20
167.9989614448973
 30
0
 41
1
 42
1
 43
0
 50
1.908999999999998
 70
    1
 71
    1
 44
0
 45
0
  0
INSERT
  5
2A1
100
AcDbEntity
  8
schematic
  6
ByLayer
 62
  256
370
   -1
100
AcDbBlockReference
  2
ln1
 10
159.1775681718291
 20
143.4341692956079
 30
0
 41
1
 42
1
 43
0
 50
1.908999999999998
 70
    1
 71
    1
 44
0
 45
0
  0
LINE
  5
2A2
100
AcDbEntity
  8
schematic
  6
ByLayer
 62
  256
370
   -1
100
AcDbLine
 10
129.8424727891015
 20
174.7609498620879
 11
134.579968417893
 21
174.7609498620879
  0
LINE
  5
2A3
100
AcDbEntity
  8
schematic
  6
ByLayer
 62
  256
370
   -1
100
AcDbLine
 10
117.0336883112577
 20
166.338735410903
 11
117.0336883112577
 21
174.7609498620879
  0
LINE
  5
2A4
100
AcDbEntity
  8
schematic
  6
ByLayer
 62
  256
370
   -1
100
AcDbLine
 10
117.0336883112577
 20
174.7609498620879
 11
121.0693327357838
 21
174.9364126631543
  0
LINE
  5
2A5
100
AcDbEntity
  8
schematic
  6
ByLayer
 62
  256
370
   -1
100
AcDbLine
 10
134.4045056168267
 20
145.6341248850733
 11
134.4045056168267
 21
106.5059202472765
  0
LINE
  5
2A6
100
AcDbEntity
  8
schematic
  6
ByLayer
 62
  256
370
   -1
100
AcDbLine
 10
117.3846139133904
 20
119.665630327253
 11
193.5354695761877
 21
119.8410931283193
  0
LINE
  5
2A7
100
AcDbEntity
  8
schematic
  6
ByLayer
 62
  256
370
   -1
100
AcDbLine
 10
145.985050487206
 20
126.5086795688408
 11
145.985050487206
 21
119.8410931283193
  0
LINE
  5
2A8
100
AcDbEntity
  8
schematic
  6
ByLayer
 62
  256
370
   -1
100
AcDbLine
 10
145.985050487206
 20
141.9494060626799
 11
145.985050487206
 21
174.0590986578225
  0
INSERT
  5
2A9
100
AcDbEntity
  8
schematic
  6
ByLayer
 62
  256
370
   -1
100
AcDbBlockReference
  2
junction
 10
134.579968417893
 20
174.9364126631543
 30
0
 41
1
 42
1
 43
0
 50
0
 70
    1
 71
    1
 44
1
 45
1
  0
INSERT
  5
2AA
100
AcDbEntity
  8
schematic
  6
ByLayer
 62
  256
370
   -1
100
AcDbBlockReference
  2
junction
 10
145.985050487206
 20
119.8410931283193
 30
0
 41
1
 42
1
 43
0
 50
0
 70
    1
 71
    1
 44
1
 45
1
  0
INSERT
  5
2AB
100
AcDbEntity
  8
schematic
  6
ByLayer
 62
  256
370
   -1
100
AcDbBlockReference
  2
junction
 10
134.4045056168267
 20
106.6813830483428
 30
0
 41
1
 42
1
 43
0
 50
0
 70
    1
 71
    1
 44
1
 45
1
  0
INSERT
  5
2AC
100
AcDbEntity
  8
schematic
  6
ByLayer
 62
  256
370
   35
100
AcDbBlockReference
  2
Switch-button-mk
 10
139.2653218425109
 20
144.0685804304148
 30
0
 41
1
 42
1
 43
0
 50
179.7517
 70
    1
 71
    1
 44
0
 45
0
  0
INSERT
  5
2AD
100
AcDbEntity
  8
schematic
  6
ByLayer
 62
  256
370
   -1
100
AcDbBlockReference
  2
vd1
 10
84.45329077846417
 20
176.2647612473712
 30
0
 41
1
 42
1
 43
0
 50
0
 70
    1
 71
    1
 44
0
 45
0
  0
INSERT
  5
2AE
100
AcDbEntity
  8
schematic
  6
ByLayer
 62
  256
370
   -1
100
AcDbBlockReference
  2
ln1
 10
95.30910858367648
 20
167.9989614448973
 30
0
 41
1
 42
1
 43
0
 50
1.908999999999998
 70
    1
 71
    1
 44
0
 45
0
  0
LINE
  5
2AF
100
AcDbEntity
  8
schematic
  6
ByLayer
 62
  256
370
   -1
100
AcDbLine
 10
94.39898697369807
 20
174.7609498620879
 11
99.13648260248962
 21
174.7609498620879
  0
LINE
  5
2B0
100
AcDbEntity
  8
schematic
  6
ByLayer
 62
  256
370
   -1
100
AcDbLine
 10
81.59020249585429
 20
166.338735410903
 11
81.59020249585429
 21
174.7609498620879
  0
LINE
  5
2B1
100
AcDbEntity
  8
schematic
  6
ByLayer
 62
  256
370
   -1
100
AcDbLine
 10
81.59020249585429
 20
174.7609498620879
 11
85.62584692038041
 21
174.9364126631543
  0
LINE
  5
2B2
100
AcDbEntity
  8
schematic
  6
ByLayer
 62
  256
370
   -1
100
AcDbLine
 10
98.96101980142328
 20
145.6341248850733
 11
98.96101980142328
 21
106.5059202472765
  0
INSERT
  5
2B3
100
AcDbEntity
  8
schematic
  6
ByLayer
 62
  256
370
   -1
100
AcDbBlockReference
  2
junction
 10
99.13648260248962
 20
174.9364126631543
 30
0
 41
1
 42
1
 43
0
 50
0
 70
    1
 71
    1
 44
1
 45
1
  0
INSERT
  5
2B4
100
AcDbEntity
  8
schematic
  6
ByLayer
 62
  256
370
   -1
100
AcDbBlockReference
  2
junction
 10
98.96101980142328
 20
106.6813830483428
 30
0
 41
1
 42
1
 43
0
 50
0
 70
    1
 71
    1
 44
1
 45
1
  0
LINE
  5
2B5
100
AcDbEntity
  8
schematic
  6
ByLayer
 62
  256
370
   -1
100
AcDbLine
 10
117.9110023165894
 20
119.8410931283193
 11
81.941128097987
 21
120.0165559293857
  0
INSERT
  5
2B6
100
AcDbEntity
  8
schematic
  6
ByLayer
 62
  256
370
   -1
100
AcDbBlockReference
  2
junction
 10
117.3846139133904
 20
120.0165559293857
 30
0
 41
1
 42
1
 43
0
 50
0
 70
    1
 71
    1
 44
1
 45
1
  0
LINE
  5
2B7
100
AcDbEntity
  8
schematic
  6
DASHEDTINY
 62
  256
370
   -1
100
AcDbLine
 10
81.94110000000001
 20
150.898
 11
81.94110000000001
 21
119.666
  0
LINE
  5
2B8
100
AcDbEntity
  8
schematic
  6
DASHEDTINY
 62
  256
370
   -1
100
AcDbLine
 10
117.385
 20
150.898
 11
117.385
 21
119.666
  0
INSERT
  5
2B9
100
AcDbEntity
  8
schematic
  6
ByLayer
 62
  256
370
   -1
100
AcDbBlockReference
  2
ln1
 10
194.7903287416935
 20
143.4341692956079
 30
0
 41
1
 42
1
 43
0
 50
1.908999999999998
 70
    1
 71
    1
 44
0
 45
0
  0
LINE
  5
2BA
100
AcDbEntity
  8
schematic
  6
ByLayer
 62
  256
370
   -1
100
AcDbLine
 10
181.5978110570704
 20
126.5086795688408
 11
181.5978110570704
 21
119.8410931283193
  0
LINE
  5
2BB
100
AcDbEntity
  8
schematic
  6
ByLayer
 62
  256
370
   -1
100
AcDbLine
 10
181.5978110570704
 20
141.9494060626799
 11
181.5978110570704
 21
174.0590986578225
  0
INSERT
  5
2BC
100
AcDbEntity
  8
schematic
  6
ByLayer
 62
  256
370
   -1
100
AcDbBlockReference
  2
junction
 10
181.5978110570704
 20
119.8410931283193
 30
0
 41
1
 42
1
 43
0
 50
0
 70
    1
 71
    1
 44
1
 45
1
  0
LINE
  5
2BD
100
AcDbEntity
  8
schematic
  6
ByLayer
 62
  256
370
   -1
100
AcDbLine
 10
118.2800892731226
 20
106.1715021263658
 11
158.2800892731225
 21
106.1715021263658
  0
LINE
  5
2BE
100
AcDbEntity
  8
schematic
  6
ByLayer
 62
  256
370
   -1
100
AcDbLine
 10
118.2800892731226
 20
106.1715021263658
 11
98.28008927312256
 21
106.1715021263658
  0
LWPOLYLINE
  5
2BF
100
AcDbEntity
  8
schematic
  6
ByLayer
 62
  256
370
   -1
100
AcDbPolyline
 90
    4
 70
    1
 43
0
 10
67.98123827392121
 20
252.422138836773
 10
27.86116322701689
 20
252.422138836773
 10
27.86116322701689
 20
145.4352720450281
 10
67.98123827392121
 20
145.4352720450281
  0
INSERT
  5
2C0
100
AcDbEntity
  8
schematic
  6
ByLayer
 62
  256
370
   -1
100
AcDbBlockReference
  2
rjconnector
 10
55.16510318949342
 20
246.2926829268292
 30
0
 41
1
 42
1
 43
0
 50
0
 70
    1
 71
    1
 44
0
 45
0
  0
INSERT
  5
2C1
100
AcDbEntity
  8
schematic
  6
ByLayer
 62
  256
370
   -1
100
AcDbBlockReference
  2
rjconnector
 10
132.06191369606
 20
247.4071294559099
 30
0
 41
1
 42
1
 43
0
 50
0
 70
    1
 71
    1
 44
0
 45
0
  0
INSERT
  5
2C2
100
AcDbEntity
  8
schematic
  6
ByLayer
 62
  256
370
   -1
100
AcDbBlockReference
  2
rjconnector
 10
145.6341248850731
 20
247.6514241546855
 30
0
 41
1
 42
1
 43
0
 50
0
 70
    1
 71
    1
 44
0
 45
0
  0
INSERT
  5
2C3
100
AcDbEntity
  8
schematic
  6
ByLayer
 62
  256
370
   -1
100
AcDbBlockReference
  2
rjconnector
 10
237.690519938005
 20
247.4071294559103
 30
0
 41
1
 42
1
 43
0
 50
0
 70
    1
 71
    1
 44
0
 45
0
  0
INSERT
  5
2C4
100
AcDbEntity
  8
schematic
  6
ByLayer
 62
  256
370
   -1
100
AcDbBlockReference
  2
rjconnector
 10
251.2627311270181
 20
247.6514241546859
 30
0
 41
1
 42
1
 43
0
 50
0
 70
    1
 71
    1
 44
0
 45
0
  0
INSERT
  5
2C5
100
AcDbEntity
  8
schematic
  6
ByLayer
 62
  256
370
   -1
100
AcDbBlockReference
  2
rjconnector
 10
346.1265309970116
 20
247.4071294559104
 30
0
 41
1
 42
1
 43
0
 50
0
 70
    1
 71
    1
 44
0
 45
0
  0
INSERT
  5
2C6
100
AcDbEntity
  8
schematic
  6
ByLayer
 62
  256
370
   -1
100
AcDbBlockReference
  2
rjconnector
 10
359.6987421860247
 20
247.651424154686
 30
0
 41
1
 42
1
 43
0
 50
0
 70
    1
 71
    1
 44
0
 45
0
  0
CIRCLE
  5
2C7
100
AcDbEntity
  8
schematic
  6
ByLayer
 62
  256
370
   -1
100
AcDbCircle
 10
174.1828664903876
 20
247.2733938573192
 40
1.44
  0
CIRCLE
  5
2C8
100
AcDbEntity
  8
schematic
  6
ByLayer
 62
  256
370
   -1
100
AcDbCircle
 10
179.2228664903876
 20
247.2733938573192
 40
1.44
  0
LWPOLYLINE
  5
2C9
100
AcDbEntity
  8
schematic
  6
ByLayer
 62
  256
370
   -1
100
AcDbPolyline
 90
    4
 70
    1
 43
0
 10
182.5436024033859
 20
243.7904722808061
 10
170.9725325242642
 20
243.7904722808061
 10
170.9725325242642
 20
250.7730144492417
 10
182.5436024033859
 20
250.7730144492417
  0
CIRCLE
  5
2CA
100
AcDbEntity
  8
schematic
  6
ByLayer
 62
  256
370
   -1
100
AcDbCircle
 10
279.7190038361703
 20
247.2733938573192
 40
1.44
  0
CIRCLE
  5
2CB
100
AcDbEntity
  8
schematic
  6
ByLayer
 62
  256
370
   -1
100
AcDbCircle
 10
284.7590038361702
 20
247.2733938573192
 40
1.44
  0
LWPOLYLINE
  5
2CC
100
AcDbEntity
  8
schematic
  6
ByLayer
 62
  256
370
   -1
100
AcDbPolyline
 90
    4
 70
    1
 43
0
 10
288.0797397491686
 20
243.7904722808061
 10
276.5086698700469
 20
243.7904722808061
 10
276.5086698700469
 20
250.7730144492417
 10
288.0797397491686
 20
250.7730144492417
  0
CIRCLE
  5
2CD
100
AcDbEntity
  8
schematic
  6
ByLayer
 62
  256
370
   -1
100
AcDbCircle
 10
388.2476592541396
 20
247.2733938573192
 40
1.44
  0
CIRCLE
  5
2CE
100
AcDbEntity
  8
schematic
  6
ByLayer
 62
  256
370
   -1
100
AcDbCircle
 10
393.2876592541396
 20
247.2733938573192
 40
1.44
  0
LWPOLYLINE
  5
2CF
100
AcDbEntity
  8
schematic
  6
ByLayer
 62
  256
370
   -1
100
AcDbPolyline
 90
    4
 70
    1
 43
0
 10
396.608395167138
 20
243.7904722808061
 10
385.0373252880163
 20
243.7904722808061
 10
385.0373252880163
 20
250.7730144492417
 10
396.608395167138
 20
250.7730144492417
  0
MTEXT
  5
2D0
100
AcDbEntity
  8
labels
  6
ByLayer
 62
  256
370
   -1
100
AcDbMText
 10
99.96373035135544
 20
102.4025970428637
 30
0
 40
3
 41
41.49999936399374
 71
    1
 72
    1
  1
PULSANTI DI CABINA\PE ISPEZIONE\PVEDI FOGLIO 3
  7
standard
210
0
220
0
230
1
 50
0
 73
    2
 44
1
  0
MTEXT
  5
2D1
100
AcDbEntity
  8
schematic
  6
ByLayer
 62
  256
370
   -1
100
AcDbMText
 10
85.04950669687923
 20
132.4012166487985
 30
0
 40
3
 41
36.83333333333333
 71
    1
 72
    1
  1
SEGNALAZIONE\PIN ARRIVO CABINA
  7
standard
210
0
220
0
230
1
 50
0
 73
    2
 44
1
  0
MTEXT
  5
2D2
100
AcDbEntity
  8
labels
  6
ByLayer
 62
  256
370
   -1
100
AcDbMText
 10
99.13787853851204
 20
245.4806830151416
 30
0
 40
3.6
 41
19.50000000000023
 71
    1
 72
    1
  1
PERIF 16
  7
standard
210
0
220
0
230
1
 50
0
 73
    2
 44
1
  0
MTEXT
  5
2D3
100
AcDbEntity
  8
labels
  6
ByLayer
 62
  256
370
   -1
100
AcDbMText
 10
313.1952353522055
 20
245.4806830151416
 30
0
 40
3.6
 41
20.7
 71
    1
 72
    1
  1
PERIF 42
  7
standard
210
0
220
0
230
1
 50
0
 73
    2
 44
1
  0
MTEXT
  5
2D4
100
AcDbEntity
  8
schematic
  6
ByLayer
 62
  256
370
   -1
100
AcDbMText
 10
97.9944153749873
 20
224.2199088635443
 30
0
 40
3
 41
35.91666666666685
 71
    1
 72
    1
  1
CHIAMATE CABINA\P\P
  7
standard
210
0
220
0
230
1
 50
0
 73
    2
 44
1
  0
MTEXT
  5
2D5
100
AcDbEntity
  8
schematic
  6
ByLayer
 62
  256
370
   -1
100
AcDbMText
 10
153.0993082312821
 20
224.2199088635443
 30
0
 40
3
 41
19.33333269732688
 71
    1
 72
    1
  1
POSIZIONE
  7
standard
210
0
220
0
230
1
 50
0
 73
    2
 44
1
  0
MTEXT
  5
2D6
100
AcDbEntity
  8
schematic
  6
ByLayer
 62
  256
370
   -1
100
AcDbMText
 10
98.53732072332518
 20
218.6551290430811
 30
0
 40
3
 41
1.333333333333333
 71
    1
 72
    1
  1
0
  7
standard
210
0
220
0
230
1
 50
0
 73
    2
 44
1
  0
MTEXT
  5
2D7
100
AcDbEntity
  8
schematic
  6
ByLayer
 62
  256
370
   -1
100
AcDbMText
 10
103.4234688583661
 20
218.7908553801655
 30
0
 40
3
 41
0.6666666666666666
 71
    1
 72
    1
  1
1
  7
standard
210
0
220
0
230
1
 50
0
 73
    2
 44
1
  0
MTEXT
  5
2D8
100
AcDbEntity
  8
schematic
  6
ByLayer
 62
  256
370
   -1
100
AcDbMText
 10
108.7167960046604
 20
218.6551290430811
 30
0
 40
3
 41
1.333333333333333
 71
    1
 72
    1
  1
2
  7
standard
210
0
220
0
230
1
 50
0
 73
    2
 44
1
  0
MTEXT
  5
2D9
100
AcDbEntity
  8
schematic
  6
ByLayer
 62
  256
370
   -1
100
AcDbMText
 10
113.6029441397013
 20
218.7908553801655
 30
0
 40
3
 41
1.333333333333519
 71
    1
 72
    1
  1
3
  7
standard
210
0
220
0
230
1
 50
0
 73
    2
 44
1
  0
MTEXT
  5
2DA
100
AcDbEntity
  8
schematic
  6
ByLayer
 62
  256
370
   -1
100
AcDbMText
 10
118.3533659376578
 20
218.92658171725
 30
0
 40
3
 41
1.666666666666667
 71
    1
 72
    1
  1
4
  7
standard
210
0
220
0
230
1
 50
0
 73
    2
 44
1
  0
MTEXT
  5
2DB
100
AcDbEntity
  8
schematic
  6
ByLayer
 62
  256
370
   -1
100
AcDbMText
 10
123.5109667468677
 20
218.7908553801655
 30
0
 40
3
 41
1.333333333333519
 71
    1
 72
    1
  1
5
  7
standard
210
0
220
0
230
1
 50
0
 73
    2
 44
1
  0
MTEXT
  5
2DC
100
AcDbEntity
  8
schematic
  6
ByLayer
 62
  256
370
   -1
100
AcDbMText
 10
128.6685675560775
 20
218.92658171725
 30
0
 40
3
 41
1.333333333333519
 71
    1
 72
    1
  1
6
  7
standard
210
0
220
0
230
1
 50
0
 73
    2
 44
1
  0
MTEXT
  5
2DD
100
AcDbEntity
  8
schematic
  6
ByLayer
 62
  256
370
   -1
100
AcDbMText
 10
133.9618947023718
 20
219.0623080543345
 30
0
 40
3
 41
1.333333333333333
 71
    1
 72
    1
  1
7
  7
standard
210
0
220
0
230
1
 50
0
 73
    2
 44
1
  0
MTEXT
  5
2DE
100
AcDbEntity
  8
schematic
  6
ByLayer
 62
  256
370
   -1
100
AcDbMText
 10
145.6343596916362
 20
218.6551290430811
 30
0
 40
3
 41
1.333333333333333
 71
    1
 72
    1
  1
0
  7
standard
210
0
220
0
230
1
 50
0
 73
    2
 44
1
  0
MTEXT
  5
2DF
100
AcDbEntity
  8
schematic
  6
ByLayer
 62
  256
370
   -1
100
AcDbMText
 10
150.5205078266771
 20
218.7908553801655
 30
0
 40
3
 41
0.6666666666666666
 71
    1
 72
    1
  1
1
  7
standard
210
0
220
0
230
1
 50
0
 73
    2
 44
1
  0
MTEXT
  5
2E0
100
AcDbEntity
  8
schematic
  6
ByLayer
 62
  256
370
   -1
100
AcDbMText
 10
155.8138349729715
 20
218.6551290430811
 30
0
 40
3
 41
1.333333333333333
 71
    1
 72
    1
  1
2
  7
standard
210
0
220
0
230
1
 50
0
 73
    2
 44
1
  0
MTEXT
  5
2E1
100
AcDbEntity
  8
schematic
  6
ByLayer
 62
  256
370
   -1
100
AcDbMText
 10
160.6999831080124
 20
218.7908553801655
 30
0
 40
3
 41
1.333333333333519
 71
    1
 72
    1
  1
3
  7
standard
210
0
220
0
230
1
 50
0
 73
    2
 44
1
  0
MTEXT
  5
2E2
100
AcDbEntity
  8
schematic
  6
ByLayer
 62
  256
370
   -1
100
AcDbMText
 10
165.4504049059689
 20
218.92658171725
 30
0
 40
3
 41
1.666666666666667
 71
    1
 72
    1
  1
4
  7
standard
210
0
220
0
230
1
 50
0
 73
    2
 44
1
  0
MTEXT
  5
2E3
100
AcDbEntity
  8
schematic
  6
ByLayer
 62
  256
370
   -1
100
AcDbMText
 10
170.6080057151787
 20
218.7908553801655
 30
0
 40
3
 41
1.333333333333519
 71
    1
 72
    1
  1
5
  7
standard
210
0
220
0
230
1
 50
0
 73
    2
 44
1
  0
MTEXT
  5
2E4
100
AcDbEntity
  8
schematic
  6
ByLayer
 62
  256
370
   -1
100
AcDbMText
 10
175.7656065243886
 20
218.92658171725
 30
0
 40
3
 41
1.333333333333519
 71
    1
 72
    1
  1
6
  7
standard
210
0
220
0
230
1
 50
0
 73
    2
 44
1
  0
MTEXT
  5
2E5
100
AcDbEntity
  8
schematic
  6
ByLayer
 62
  256
370
   -1
100
AcDbMText
 10
181.0589336706829
 20
219.0623080543345
 30
0
 40
3
 41
1.333333333333333
 71
    1
 72
    1
  1
7
  7
standard
210
0
220
0
230
1
 50
0
 73
    2
 44
1
  0
LINE
  5
2E6
100
AcDbEntity
  8
schematic
  6
ByLayer
 62
  256
370
   -1
100
AcDbLine
 10
173.8928038942795
 20
250.7223395103018
 11
173.8928038942795
 21
263.3317671114046
  0
LINE
  5
2E7
100
AcDbEntity
  8
schematic
  6
ByLayer
 62
  256
370
   -1
100
AcDbLine
 10
173.8928038942795
 20
263.3317671114046
 11
388.2530731130287
 21
263.3317671114046
  0
LINE
  5
2E8
100
AcDbEntity
  8
schematic
  6
ByLayer
 62
  256
370
   -1
100
AcDbLine
 10
388.2530731130287
 20
263.3317671114046
 11
388.2530731130287
 21
250.7223395103018
  0
LINE
  5
2E9
100
AcDbEntity
  8
schematic
  6
ByLayer
 62
  256
370
   -1
100
AcDbLine
 10
388.2530731130287
 20
261.8655545996485
 11
388.2530731130287
 21
269.7831021631317
  0
LINE
  5
2EA
100
AcDbEntity
  8
schematic
  6
ByLayer
 62
  256
370
   -1
100
AcDbLine
 10
179.1711689366016
 20
250.7223395103018
 11
179.1711689366016
 21
263.3317671114046
  0
LINE
  5
2EB
100
AcDbEntity
  8
schematic
  6
ByLayer
 62
  256
370
   -1
100
AcDbLine
 10
393.5314381553508
 20
250.7223395103018
 11
393.5314381553508
 21
263.3317671114046
  0
LINE
  5
2EC
100
AcDbEntity
  8
schematic
  6
ByLayer
 62
  256
370
   -1
100
AcDbLine
 10
393.5314381553508
 20
263.3317671114046
 11
404.0881682399951
 21
263.3317671114046
  0
LINE
  5
2ED
100
AcDbEntity
  8
schematic
  6
ByLayer
 62
  256
370
   -1
100
AcDbLine
 10
404.0881682399951
 20
263.3317671114046
 11
403.7949257376439
 21
187.381959002436
  0
INSERT
  5
2EE
100
AcDbEntity
  8
schematic
  6
ByLayer
 62
  256
370
   -1
100
AcDbBlockReference
  2
junction
 10
388.2530731130287
 20
263.3317671114046
 30
0
 41
1
 42
1
 43
0
 50
0
 70
    1
 71
    1
 44
1
 45
1
  0
INSERT
  5
2EF
100
AcDbEntity
  8
schematic
  6
ByLayer
 62
  256
370
   -1
100
AcDbBlockReference
  2
junction
 10
179.1711689366016
 20
263.3317671114046
 30
0
 41
1
 42
1
 43
0
 50
0
 70
    1
 71
    1
 44
1
 45
1
  0
LINE
  5
2F0
100
AcDbEntity
  8
schematic
  6
ByLayer
 62
  256
370
   -1
100
AcDbLine
 10
388.3130503986688
 20
271.8598531801936
 11
386.6843343536552
 21
270.0954107980954
  0
LINE
  5
2F1
100
AcDbEntity
  8
schematic
  6
ByLayer
 62
  256
370
   -1
100
AcDbLine
 10
386.6843343536552
 20
270.0954107980954
 11
389.6703137695136
 21
270.0954107980954
  0
LINE
  5
2F2
100
AcDbEntity
  8
schematic
  6
ByLayer
 62
  256
370
   -1
100
AcDbLine
 10
389.6703137695136
 20
270.0954107980954
 11
388.3130503986688
 21
271.8598531801936
  0
MTEXT
  5
2F3
100
AcDbEntity
  8
schematic
  6
ByLayer
 62
  256
370
   -1
100
AcDbMText
 10
384.9198919715571
 20
277.4246330006569
 30
0
 40
3
 41
7.000000000000371
 71
    1
 72
    1
  1
GND
  7
standard
210
0
220
0
230
1
 50
0
 73
    2
 44
1
  0
LINE
  5
2F4
100
AcDbEntity
  8
schematic
  6
ByLayer
 62
  256
370
   -1
100
AcDbLine
 10
58.0581203314825
 20
244.4552435009789
 11
58.0581203314825
 21
277.6858781643933
  0
LINE
  5
2F5
100
AcDbEntity
  8
schematic
  6
ByLayer
 62
  256
370
   -1
100
AcDbLine
 10
58.0581203314825
 20
277.6858781643933
 11
241.0175916392464
 21
278.0678394823635
  0
LINE
  5
2F6
100
AcDbEntity
  8
schematic
  6
ByLayer
 62
  256
370
   -1
100
AcDbLine
 10
241.0175916392464
 20
278.0678394823635
 11
241.0175916392464
 21
244.8372048189492
  0
LINE
  5
2F7
100
AcDbEntity
  8
schematic
  6
ByLayer
 62
  256
370
   -1
100
AcDbLine
 10
254.3862377682062
 20
245.2191661369195
 11
254.3862377682062
 21
278.0678394823635
  0
LINE
  5
2F8
100
AcDbEntity
  8
schematic
  6
ByLayer
 62
  256
370
   -1
100
AcDbLine
 10
254.3862377682062
 20
278.0678394823635
 11
349.4946059428058
 21
278.0678394823635
  0
LINE
  5
2F9
100
AcDbEntity
  8
schematic
  6
ByLayer
 62
  256
370
   -1
100
AcDbLine
 10
349.4946059428058
 20
278.0678394823635
 11
349.4946059428058
 21
245.2191661369195
  0
CIRCLE
  5
2FA
100
AcDbEntity
  8
schematic
  6
ByLayer
 62
  256
370
   -1
100
AcDbCircle
 10
33.11318143920252
 20
153.0416192149807
 40
1.44
  0
CIRCLE
  5
2FB
100
AcDbEntity
  8
schematic
  6
ByLayer
 62
  256
370
   -1
100
AcDbCircle
 10
38.15318143920248
 20
153.0416192149807
 40
1.44
  0
CIRCLE
  5
2FC
100
AcDbEntity
  8
schematic
  6
ByLayer
 62
  256
370
   -1
100
AcDbCircle
 10
43.19318143920248
 20
153.0416192149807
 40
1.44
  0
CIRCLE
  5
2FD
100
AcDbEntity
  8
schematic
  6
ByLayer
 62
  256
370
   -1
100
AcDbCircle
 10
48.23318143920248
 20
153.0416192149807
 40
1.44
  0
CIRCLE
  5
2FE
100
AcDbEntity
  8
schematic
  6
ByLayer
 62
  256
370
   -1
100
AcDbCircle
 10
53.27318143920257
 20
153.0416192149807
 40
1.44
  0
LWPOLYLINE
  5
2FF
100
AcDbEntity
  8
schematic
  6
ByLayer
 62
  256
370
   -1
100
AcDbPolyline
 90
    4
 70
    1
 43
0
 10
29.14371395399209
 20
148.5555684734464
 10
59.83488174624925
 20
148.5555684734464
 10
59.83488174624925
 20
157.3244735569484
 10
29.14371395399209
 20
157.3244735569484
  0
LINE
  5
300
100
AcDbEntity
  8
schematic
  6
ByLayer
 62
  256
370
   -1
100
AcDbLine
 10
219.5049695172835
 20
203.7206830151416
 11
218.0649695172835
 21
203.7206830151416
  0
LINE
  5
301
100
AcDbEntity
  8
schematic
  6
ByLayer
 62
  256
370
   -1
100
AcDbLine
 10
218.0649695172835
 20
203.7206830151416
 11
219.5049695172835
 21
205.8806830151416
  0
LINE
  5
302
100
AcDbEntity
  8
schematic
  6
ByLayer
 62
  256
370
   -1
100
AcDbLine
 10
219.5049695172835
 20
205.8806830151416
 11
220.9449695172835
 21
203.7206830151416
  0
LINE
  5
303
100
AcDbEntity
  8
schematic
  6
ByLayer
 62
  256
370
   -1
100
AcDbLine
 10
220.9449695172835
 20
203.7206830151416
 11
219.5049695172835
 21
203.7206830151416
  0
LINE
  5
304
100
AcDbEntity
  8
schematic
  6
ByLayer
 62
  256
370
   -1
100
AcDbLine
 10
218.7849695172835
 20
159.0806830151416
 11
218.7849695172835
 21
166.2806830151416
  0
LINE
  5
305
100
AcDbEntity
  8
schematic
  6
ByLayer
 62
  256
370
   -1
100
AcDbLine
 10
218.7849695172835
 20
166.2806830151416
 11
221.6649695172835
 21
173.4806830151416
  0
INSERT
  5
306
100
AcDbEntity
  8
schematic
  6
ByLayer
 62
  256
370
   -1
100
AcDbBlockReference
  2
junction
 10
218.7849695172835
 20
159.0806830151416
 30
0
 41
0.7200000000000001
 42
0.7200000000000001
 43
0
 50
0
 70
    1
 71
    1
 44
0.7200000000000001
 45
0.7200000000000001
  0
LINE
  5
307
100
AcDbEntity
  8
schematic
  6
ByLayer
 62
  256
370
   -1
100
AcDbLine
 10
256.4397783877735
 20
203.7206830151416
 11
254.9997783877735
 21
203.7206830151416
  0
LINE
  5
308
100
AcDbEntity
  8
schematic
  6
ByLayer
 62
  256
370
   -1
100
AcDbLine
 10
254.9997783877735
 20
203.7206830151416
 11
256.4397783877735
 21
205.8806830151416
  0
LINE
  5
309
100
AcDbEntity
  8
schematic
  6
ByLayer
 62
  256
370
   -1
100
AcDbLine
 10
256.4397783877735
 20
205.8806830151416
 11
257.8797783877735
 21
203.7206830151416
  0
LINE
  5
30A
100
AcDbEntity
  8
schematic
  6
ByLayer
 62
  256
370
   -1
100
AcDbLine
 10
257.8797783877735
 20
203.7206830151416
 11
256.4397783877735
 21
203.7206830151416
  0
LINE
  5
30B
100
AcDbEntity
  8
schematic
  6
ByLayer
 62
  256
370
   -1
100
AcDbLine
 10
261.0499630347132
 20
159.3385919881858
 11
261.0499630347132
 21
166.5385919881858
  0
LINE
  5
30C
100
AcDbEntity
  8
schematic
  6
ByLayer
 62
  256
370
   -1
100
AcDbLine
 10
261.0499630347132
 20
166.5385919881858
 11
263.9299630347132
 21
173.7385919881858
  0
LINE
  5
30D
100
AcDbEntity
  8
schematic
  6
ByLayer
 62
  256
370
   -1
100
AcDbLine
 10
251.6899630347133
 20
159.3385919881858
 11
251.6899630347133
 21
166.5385919881858
  0
LINE
  5
30E
100
AcDbEntity
  8
schematic
  6
ByLayer
 62
  256
370
   -1
100
AcDbLine
 10
251.6899630347133
 20
166.5385919881858
 11
254.5699630347133
 21
173.7385919881858
  0
INSERT
  5
30F
100
AcDbEntity
  8
schematic
  6
ByLayer
 62
  256
370
   -1
100
AcDbBlockReference
  2
junction
 10
251.6899630347133
 20
159.3385919881858
 30
0
 41
0.7200000000000001
 42
0.7200000000000001
 43
0
 50
0
 70
    1
 71
    1
 44
0.7200000000000001
 45
0.7200000000000001
  0
INSERT
  5
310
100
AcDbEntity
  8
schematic
  6
ByLayer
 62
  256
370
   -1
100
AcDbBlockReference
  2
junction
 10
261.0499630347132
 20
159.3385919881858
 30
0
 41
0.7200000000000001
 42
0.7200000000000001
 43
0
 50
0
 70
    1
 71
    1
 44
0.7200000000000001
 45
0.7200000000000001
  0
LINE
  5
311
100
AcDbEntity
  8
schematic
  6
ByLayer
 62
  256
370
   -1
100
AcDbLine
 10
256.5902335225526
 20
159.3385919881858
 11
256.5902335225526
 21
166.5385919881858
  0
LINE
  5
312
100
AcDbEntity
  8
schematic
  6
ByLayer
 62
  256
370
   -1
100
AcDbLine
 10
256.5902335225526
 20
166.5385919881858
 11
259.4702335225526
 21
173.7385919881858
  0
INSERT
  5
313
100
AcDbEntity
  8
schematic
  6
ByLayer
 62
  256
370
   -1
100
AcDbBlockReference
  2
junction
 10
256.5902335225526
 20
159.3385919881858
 30
0
 41
0.7200000000000001
 42
0.7200000000000001
 43
0
 50
0
 70
    1
 71
    1
 44
0.7200000000000001
 45
0.7200000000000001
  0
MTEXT
  5
314
100
AcDbEntity
  8
labels
  6
ByLayer
 62
  256
370
   -1
100
AcDbMText
 10
222.5358257986153
 20
156.5111615723057
 30
0
 40
2.4
 41
5.066666666666816
 71
    1
 72
    1
  1
FCD
  7
standard
210
0
220
0
230
1
 50
0
 73
    2
 44
1
  0
MTEXT
  5
315
100
AcDbEntity
  8
labels
  6
ByLayer
 62
  256
370
   -1
100
AcDbMText
 10
227.5662809333944
 20
152.642526976643
 30
0
 40
2.4
 41
5.066666157861508
 71
    1
 72
    1
  1
FCS
  7
standard
210
0
220
0
230
1
 50
0
 73
    2
 44
1
  0
MTEXT
  5
316
100
AcDbEntity
  8
labels
  6
ByLayer
 62
  256
370
   -1
100
AcDbMText
 10
233.272554014262
 20
156.7690705453498
 30
0
 40
2.4
 41
2.133333333333482
 71
    1
 72
    1
  1
ID
  7
standard
210
0
220
0
230
1
 50
0
 73
    2
 44
1
  0
MTEXT
  5
317
100
AcDbEntity
  8
labels
  6
ByLayer
 62
  256
370
   -1
100
AcDbMText
 10
239.6988270951293
 20
156.5111615723057
 30
0
 40
2.4
 41
2.133332824528175
 71
    1
 72
    1
  1
IS
  7
standard
210
0
220
0
230
1
 50
0
 73
    2
 44
1
  0
LINE
  5
318
100
AcDbEntity
  8
schematic
  6
DASHEDTINY
 62
  256
370
   -1
100
AcDbLine
 10
219.505
 20
173.481
 11
219.505
 21
203.721
  0
LINE
  5
319
100
AcDbEntity
  8
schematic
  6
DASHEDTINY
 62
  256
370
   -1
100
AcDbLine
 10
256.44
 20
173.481
 11
256.44
 21
203.721
  0
MTEXT
  5
31A
100
AcDbEntity
  8
labels
  6
ByLayer
 62
  256
370
   -1
100
AcDbMText
 10
248.0881014725109
 20
156.2532525992615
 30
0
 40
2.4
 41
4.800000000000149
 71
    1
 72
    1
  1
CM1
  7
standard
210
0
220
0
230
1
 50
0
 73
    2
 44
1
  0
MTEXT
  5
31B
100
AcDbEntity
  8
labels
  6
ByLayer
 62
  256
370
   -1
100
AcDbMText
 10
257.9722835264226
 20
156.5111615723056
 30
0
 40
2.4
 41
5.866666157861509
 71
    1
 72
    1
  1
SVR
  7
standard
210
0
220
0
230
1
 50
0
 73
    2
 44
1
  0
MTEXT
  5
31C
100
AcDbEntity
  8
labels
  6
ByLayer
 62
  256
370
   -1
100
AcDbMText
 10
269.7143745533784
 20
156.7690705453498
 30
0
 40
2.4
 41
3.466666666666667
 71
    1
 72
    1
  1
FM
  7
standard
210
0
220
0
230
1
 50
0
 73
    2
 44
1
  0
MTEXT
  5
31D
100
AcDbEntity
  8
labels
  6
ByLayer
 62
  256
370
   -1
100
AcDbMText
 10
253.5041899064386
 20
153.1583449227313
 30
0
 40
2.4
 41
5.333333333333482
 71
    1
 72
    1
  1
CM2
  7
standard
210
0
220
0
230
1
 50
0
 73
    2
 44
1
  0
MTEXT
  5
31E
100
AcDbEntity
  8
schematic
  6
ByLayer
 62
  256
370
   -1
100
AcDbMText
 10
203.7641817253498
 20
219.1709469891694
 30
0
 40
3
 41
1.333333333333333
 71
    1
 72
    1
  1
0
  7
standard
210
0
220
0
230
1
 50
0
 73
    2
 44
1
  0
MTEXT
  5
31F
100
AcDbEntity
  8
schematic
  6
ByLayer
 62
  256
370
   -1
100
AcDbMText
 10
204.2828601618828
 20
218.6551290430811
 30
0
 40
3
 41
1.333333333333333
 71
    1
 72
    1
  1
0
  7
standard
210
0
220
0
230
1
 50
0
 73
    2
 44
1
  0
MTEXT
  5
320
100
AcDbEntity
  8
schematic
  6
ByLayer
 62
  256
370
   -1
100
AcDbMText
 10
209.1690082969237
 20
218.7908553801655
 30
0
 40
3
 41
0.6666666666666666
 71
    1
 72
    1
  1
1
  7
standard
210
0
220
0
230
1
 50
0
 73
    2
 44
1
  0
MTEXT
  5
321
100
AcDbEntity
  8
schematic
  6
ByLayer
 62
  256
370
   -1
100
AcDbMText
 10
214.4623354432181
 20
218.6551290430811
 30
0
 40
3
 41
1.333333333333333
 71
    1
 72
    1
  1
2
  7
standard
210
0
220
0
230
1
 50
0
 73
    2
 44
1
  0
MTEXT
  5
322
100
AcDbEntity
  8
schematic
  6
ByLayer
 62
  256
370
   -1
100
AcDbMText
 10
219.348483578259
 20
218.7908553801655
 30
0
 40
3
 41
1.333333333333519
 71
    1
 72
    1
  1
3
  7
standard
210
0
220
0
230
1
 50
0
 73
    2
 44
1
  0
MTEXT
  5
323
100
AcDbEntity
  8
schematic
  6
ByLayer
 62
  256
370
   -1
100
AcDbMText
 10
224.0989053762155
 20
218.92658171725
 30
0
 40
3
 41
1.666666666666667
 71
    1
 72
    1
  1
4
  7
standard
210
0
220
0
230
1
 50
0
 73
    2
 44
1
  0
MTEXT
  5
324
100
AcDbEntity
  8
schematic
  6
ByLayer
 62
  256
370
   -1
100
AcDbMText
 10
229.2565061854253
 20
218.7908553801655
 30
0
 40
3
 41
1.333333333333519
 71
    1
 72
    1
  1
5
  7
standard
210
0
220
0
230
1
 50
0
 73
    2
 44
1
  0
MTEXT
  5
325
100
AcDbEntity
  8
schematic
  6
ByLayer
 62
  256
370
   -1
100
AcDbMText
 10
234.4141069946352
 20
218.92658171725
 30
0
 40
3
 41
1.333333333333519
 71
    1
 72
    1
  1
6
  7
standard
210
0
220
0
230
1
 50
0
 73
    2
 44
1
  0
MTEXT
  5
326
100
AcDbEntity
  8
schematic
  6
ByLayer
 62
  256
370
   -1
100
AcDbMText
 10
239.7074341409295
 20
219.0623080543345
 30
0
 40
3
 41
1.333333333333333
 71
    1
 72
    1
  1
7
  7
standard
210
0
220
0
230
1
 50
0
 73
    2
 44
1
  0
MTEXT
  5
327
100
AcDbEntity
  8
schematic
  6
ByLayer
 62
  256
370
   -1
100
AcDbMText
 10
312.7825860318391
 20
218.6551290430811
 30
0
 40
3
 41
1.333333333333333
 71
    1
 72
    1
  1
0
  7
standard
210
0
220
0
230
1
 50
0
 73
    2
 44
1
  0
MTEXT
  5
328
100
AcDbEntity
  8
schematic
  6
ByLayer
 62
  256
370
   -1
100
AcDbMText
 10
317.6687341668799
 20
218.7908553801655
 30
0
 40
3
 41
0.6666666666666666
 71
    1
 72
    1
  1
1
  7
standard
210
0
220
0
230
1
 50
0
 73
    2
 44
1
  0
MTEXT
  5
329
100
AcDbEntity
  8
schematic
  6
ByLayer
 62
  256
370
   -1
100
AcDbMText
 10
322.9620613131743
 20
218.6551290430811
 30
0
 40
3
 41
1.333333333333333
 71
    1
 72
    1
  1
2
  7
standard
210
0
220
0
230
1
 50
0
 73
    2
 44
1
  0
MTEXT
  5
32A
100
AcDbEntity
  8
schematic
  6
ByLayer
 62
  256
370
   -1
100
AcDbMText
 10
327.8482094482152
 20
218.7908553801655
 30
0
 40
3
 41
1.333333333333519
 71
    1
 72
    1
  1
3
  7
standard
210
0
220
0
230
1
 50
0
 73
    2
 44
1
  0
MTEXT
  5
32B
100
AcDbEntity
  8
schematic
  6
ByLayer
 62
  256
370
   -1
100
AcDbMText
 10
332.5986312461717
 20
218.92658171725
 30
0
 40
3
 41
1.666666666666667
 71
    1
 72
    1
  1
4
  7
standard
210
0
220
0
230
1
 50
0
 73
    2
 44
1
  0
MTEXT
  5
32C
100
AcDbEntity
  8
schematic
  6
ByLayer
 62
  256
370
   -1
100
AcDbMText
 10
337.7562320553815
 20
218.7908553801655
 30
0
 40
3
 41
1.333333333333519
 71
    1
 72
    1
  1
5
  7
standard
210
0
220
0
230
1
 50
0
 73
    2
 44
1
  0
MTEXT
  5
32D
100
AcDbEntity
  8
schematic
  6
ByLayer
 62
  256
370
   -1
100
AcDbMText
 10
342.9138328645914
 20
218.92658171725
 30
0
 40
3
 41
1.333333333333519
 71
    1
 72
    1
  1
6
  7
standard
210
0
220
0
230
1
 50
0
 73
    2
 44
1
  0
MTEXT
  5
32E
100
AcDbEntity
  8
schematic
  6
ByLayer
 62
  256
370
   -1
100
AcDbMText
 10
348.2071600108857
 20
219.0623080543345
 30
0
 40
3
 41
1.333333333333333
 71
    1
 72
    1
  1
7
  7
standard
210
0
220
0
230
1
 50
0
 73
    2
 44
1
  0
MTEXT
  5
32F
100
AcDbEntity
  8
schematic
  6
ByLayer
 62
  256
370
   -1
100
AcDbMText
 10
359.2671994505434
 20
219.7384450336418
 30
0
 40
3
 41
1.333333333333333
 71
    1
 72
    1
  1
8
  7
standard
210
0
220
0
230
1
 50
0
 73
    2
 44
1
  0
MTEXT
  5
330
100
AcDbEntity
  8
schematic
  6
ByLayer
 62
  256
370
   -1
100
AcDbMText
 10
364.1674699383828
 20
219.4805360605976
 30
0
 40
3
 41
1.333333333333519
 71
    1
 72
    1
  1
9
  7
standard
210
0
220
0
230
1
 50
0
 73
    2
 44
1
  0
MTEXT
  5
331
100
AcDbEntity
  8
schematic
  6
ByLayer
 62
  256
370
   -1
100
AcDbMText
 10
368.5519224801339
 20
219.7384450336418
 30
0
 40
3
 41
3
 71
    1
 72
    1
  1
10
  7
standard
210
0
220
0
230
1
 50
0
 73
    2
 44
1
  0
MTEXT
  5
332
100
AcDbEntity
  8
schematic
  6
ByLayer
 62
  256
370
   -1
100
AcDbMText
 10
373.7101019410175
 20
219.7384450336418
 30
0
 40
3
 41
2.333333333333333
 71
    1
 72
    1
  1
11
  7
standard
210
0
220
0
230
1
 50
0
 73
    2
 44
1
  0
MTEXT
  5
333
100
AcDbEntity
  8
schematic
  6
ByLayer
 62
  256
370
   -1
100
AcDbMText
 10
378.3524634558128
 20
219.4805360605976
 30
0
 40
3
 41
3
 71
    1
 72
    1
  1
12
  7
standard
210
0
220
0
230
1
 50
0
 73
    2
 44
1
  0
MTEXT
  5
334
100
AcDbEntity
  8
schematic
  6
ByLayer
 62
  256
370
   -1
100
AcDbMText
 10
383.5106429166963
 20
219.4805360605976
 30
0
 40
3
 41
3.000000000000186
 71
    1
 72
    1
  1
13
  7
standard
210
0
220
0
230
1
 50
0
 73
    2
 44
1
  0
MTEXT
  5
335
100
AcDbEntity
  8
schematic
  6
ByLayer
 62
  256
370
   -1
100
AcDbMText
 10
388.6688223775799
 20
219.4805360605976
 30
0
 40
3
 41
3.333333333333333
 71
    1
 72
    1
  1
14
  7
standard
210
0
220
0
230
1
 50
0
 73
    2
 44
1
  0
MTEXT
  5
336
100
AcDbEntity
  8
schematic
  6
ByLayer
 62
  256
370
   -1
100
AcDbMText
 10
393.5690928654194
 20
219.4805360605976
 30
0
 40
3
 41
3.000000000000186
 71
    1
 72
    1
  1
15
  7
standard
210
0
220
0
230
1
 50
0
 73
    2
 44
1
  0
MTEXT
  5
337
100
AcDbEntity
  8
schematic
  6
ByLayer
 62
  256
370
   -1
100
AcDbMText
 10
250.6875217989434
 20
219.7384450336418
 30
0
 40
3
 41
1.333333333333333
 71
    1
 72
    1
  1
8
  7
standard
210
0
220
0
230
1
 50
0
 73
    2
 44
1
  0
MTEXT
  5
338
100
AcDbEntity
  8
schematic
  6
ByLayer
 62
  256
370
   -1
100
AcDbMText
 10
255.5877922867828
 20
219.4805360605976
 30
0
 40
3
 41
1.333333333333519
 71
    1
 72
    1
  1
9
  7
standard
210
0
220
0
230
1
 50
0
 73
    2
 44
1
  0
MTEXT
  5
339
100
AcDbEntity
  8
schematic
  6
ByLayer
 62
  256
370
   -1
100
AcDbMText
 10
259.9722448285339
 20
219.7384450336418
 30
0
 40
3
 41
3
 71
    1
 72
    1
  1
10
  7
standard
210
0
220
0
230
1
 50
0
 73
    2
 44
1
  0
MTEXT
  5
33A
100
AcDbEntity
  8
schematic
  6
ByLayer
 62
  256
370
   -1
100
AcDbMText
 10
265.1304242894175
 20
219.7384450336418
 30
0
 40
3
 41
2.333333333333333
 71
    1
 72
    1
  1
11
  7
standard
210
0
220
0
230
1
 50
0
 73
    2
 44
1
  0
MTEXT
  5
33B
100
AcDbEntity
  8
schematic
  6
ByLayer
 62
  256
370
   -1
100
AcDbMText
 10
269.7727858042128
 20
219.4805360605976
 30
0
 40
3
 41
3
 71
    1
 72
    1
  1
12
  7
standard
210
0
220
0
230
1
 50
0
 73
    2
 44
1
  0
MTEXT
  5
33C
100
AcDbEntity
  8
schematic
  6
ByLayer
 62
  256
370
   -1
100
AcDbMText
 10
274.9309652650963
 20
219.4805360605976
 30
0
 40
3
 41
3.000000000000186
 71
    1
 72
    1
  1
13
  7
standard
210
0
220
0
230
1
 50
0
 73
    2
 44
1
  0
MTEXT
  5
33D
100
AcDbEntity
  8
schematic
  6
ByLayer
 62
  256
370
   -1
100
AcDbMText
 10
280.08914472598
 20
219.4805360605976
 30
0
 40
3
 41
3.333333333333333
 71
    1
 72
    1
  1
14
  7
standard
210
0
220
0
230
1
 50
0
 73
    2
 44
1
  0
MTEXT
  5
33E
100
AcDbEntity
  8
schematic
  6
ByLayer
 62
  256
370
   -1
100
AcDbMText
 10
284.9894152138194
 20
219.4805360605976
 30
0
 40
3
 41
3.000000000000186
 71
    1
 72
    1
  1
15
  7
standard
210
0
220
0
230
1
 50
0
 73
    2
 44
1
  0
MTEXT
  5
33F
100
AcDbEntity
  8
schematic
  6
ByLayer
 62
  256
370
   -1
100
AcDbMText
 10
210.2740703711137
 20
156.7415130813803
 30
0
 40
3
 41
8.666666666666666
 71
    1
 72
    1
  1
IAUX
  7
standard
210
0
220
0
230
1
 50
0
 73
    2
 44
1
  0
MTEXT
  5
340
100
AcDbEntity
  8
schematic
  6
ByLayer
 62
  256
370
   -1
100
AcDbMText
 10
194.1265365565172
 20
190.9008690306536
 30
0
 40
3
 41
19.24999936399355
 71
    1
 72
    1
  1
SOLO CON\PPIANI\PESTREMI\PCORTI
  7
standard
210
0
220
0
230
1
 50
0
 73
    2
 44
1
  0
LEADER
  5
341
100
AcDbEntity
  8
schematic
  6
ByLayer
 62
  256
370
   -1
100
AcDbLeader
  3
Standard
 71
    1
 72
    0
 73
    3
 74
    0
 75
    0
 40
1
 41
10
 76
2
 76
2
 10
218.1724217493184
 20
184.1562914765752
 30
0
 10
208.2021766693765
 20
184.1562914765752
 30
0
  0
MTEXT
  5
342
100
AcDbEntity
  8
schematic
  6
ByLayer
 62
  256
370
   -1
100
AcDbMText
 10
154.272278240687
 20
142.9917357122524
 30
0
 40
3
 41
19.33333269732688
 71
    1
 72
    1
  1
POSIZIONE
  7
standard
210
0
220
0
230
1
 50
0
 73
    2
 44
1
  0
LINE
  5
343
100
AcDbEntity
  8
schematic
  6
ByLayer
 62
  256
370
   -1
100
AcDbLine
 10
197.5714296582956
 20
147.6681982865103
 11
197.3445967884239
 21
159.0098417800979
  0
LINE
  5
344
100
AcDbEntity
  8
schematic
  6
ByLayer
 62
  256
370
   -1
100
AcDbLine
 10
195.3031009595781
 20
147.6681982865103
 11
199.8397583570132
 21
147.6681982865103
  0
LINE
  5
345
100
AcDbEntity
  8
schematic
  6
ByLayer
 62
  256
370
   -1
100
AcDbLine
 10
199.8397583570132
 20
147.6681982865103
 11
197.5714296582956
 21
144.4925381083058
  0
LINE
  5
346
100
AcDbEntity
  8
schematic
  6
ByLayer
 62
  256
370
   -1
100
AcDbLine
 10
197.5714296582956
 20
144.4925381083058
 11
195.9835995691934
 21
147.4413654166385
  0
MTEXT
  5
347
100
AcDbEntity
  8
labels
  6
ByLayer
 62
  256
370
   -1
100
AcDbMText
 10
194.3857228699915
 20
142.6026063384942
 30
0
 40
2.4
 41
5.600000000000298
 71
    1
 72
    1
  1
GND
  7
standard
210
0
220
0
230
1
 50
0
 73
    2
 44
1
  0
INSERT
  5
348
100
AcDbEntity
  8
schematic
  6
ByLayer
 62
  256
370
   -1
100
AcDbBlockReference
  2
ln1
 10
357.0074796325068
 20
143.4341692956079
 30
0
 41
1
 42
1
 43
0
 50
1.908999999999998
 70
    1
 71
    1
 44
0
 45
0
  0
LINE
  5
349
100
AcDbEntity
  8
schematic
  6
ByLayer
 62
  256
370
   -1
100
AcDbLine
 10
343.8149619478838
 20
126.5086795688408
 11
343.8149619478838
 21
119.8410931283193
  0
INSERT
  5
34A
100
AcDbEntity
  8
schematic
  6
ByLayer
 62
  256
370
   -1
100
AcDbBlockReference
  2
junction
 10
343.8149619478838
 20
119.8410931283193
 30
0
 41
1
 42
1
 43
0
 50
0
 70
    1
 71
    1
 44
1
 45
1
  0
INSERT
  5
34B
100
AcDbEntity
  8
schematic
  6
ByLayer
 62
  256
370
   -1
100
AcDbBlockReference
  2
ln1
 10
336.4240345043673
 20
143.4341692956079
 30
0
 41
1
 42
1
 43
0
 50
1.908999999999998
 70
    1
 71
    1
 44
0
 45
0
  0
LINE
  5
34C
100
AcDbEntity
  8
schematic
  6
ByLayer
 62
  256
370
   -1
100
AcDbLine
 10
323.2315168197443
 20
126.5086795688408
 11
323.2315168197443
 21
119.8410931283193
  0
LINE
  5
34D
100
AcDbEntity
  8
schematic
  6
ByLayer
 62
  256
370
   -1
100
AcDbLine
 10
323.2315168197443
 20
141.9494060626799
 11
323.2315168197443
 21
174.0590986578225
  0
INSERT
  5
34E
100
AcDbEntity
  8
schematic
  6
ByLayer
 62
  256
370
   -1
100
AcDbBlockReference
  2
junction
 10
323.2315168197443
 20
119.8410931283193
 30
0
 41
1
 42
1
 43
0
 50
0
 70
    1
 71
    1
 44
1
 45
1
  0
INSERT
  5
34F
100
AcDbEntity
  8
schematic
  6
ByLayer
 62
  256
370
   -1
100
AcDbBlockReference
  2
ln1
 10
331.0331322089023
 20
168.4283526654915
 30
0
 41
1
 42
1
 43
0
 50
1.908999999999998
 70
    1
 71
    1
 44
0
 45
0
  0
LINE
  5
350
100
AcDbEntity
  8
schematic
  6
ByLayer
 62
  256
370
   -1
100
AcDbLine
 10
317.8406145242792
 20
151.5028629387244
 11
317.8406145242792
 21
144.8352764982029
  0
LINE
  5
351
100
AcDbEntity
  8
schematic
  6
ByLayer
 62
  256
370
   -1
100
AcDbLine
 10
343.1976785668236
 20
141.9494060626799
 11
343.1976785668236
 21
174.0590986578225
  0
LINE
  5
352
100
AcDbEntity
  8
schematic
  6
ByLayer
 62
  256
370
   -1
100
AcDbLine
 10
317.223331143219
 20
167.0979102778286
 11
317.223331143219
 21
199.2076028729712
  0
LINE
  5
353
100
AcDbEntity
  8
schematic
  6
ByLayer
 62
  256
370
   -1
100
AcDbLine
 10
323.3243804099777
 20
173.3263621698766
 11
323.3243804099777
 21
203.5663621698766
  0
LINE
  5
354
100
AcDbEntity
  8
schematic
  6
ByLayer
 62
  256
370
   -1
100
AcDbLine
 10
323.3243804099777
 20
203.5663621698766
 11
321.8843804099776
 21
203.5663621698766
  0
LINE
  5
355
100
AcDbEntity
  8
schematic
  6
ByLayer
 62
  256
370
   -1
100
AcDbLine
 10
321.8843804099776
 20
203.5663621698766
 11
323.3243804099777
 21
205.7263621698766
  0
LINE
  5
356
100
AcDbEntity
  8
schematic
  6
ByLayer
 62
  256
370
   -1
100
AcDbLine
 10
323.3243804099777
 20
205.7263621698766
 11
324.7643804099775
 21
203.5663621698766
  0
LINE
  5
357
100
AcDbEntity
  8
schematic
  6
ByLayer
 62
  256
370
   -1
100
AcDbLine
 10
324.7643804099775
 20
203.5663621698766
 11
323.3243804099777
 21
203.5663621698766
  0
LINE
  5
358
100
AcDbEntity
  8
schematic
  6
ByLayer
 62
  256
370
   -1
100
AcDbLine
 10
313.2935254677498
 20
173.1720413246115
 11
313.2935254677498
 21
203.4120413246115
  0
LINE
  5
359
100
AcDbEntity
  8
schematic
  6
ByLayer
 62
  256
370
   -1
100
AcDbLine
 10
313.2935254677498
 20
203.4120413246115
 11
311.8535254677496
 21
203.4120413246115
  0
LINE
  5
35A
100
AcDbEntity
  8
schematic
  6
ByLayer
 62
  256
370
   -1
100
AcDbLine
 10
311.8535254677496
 20
203.4120413246115
 11
313.2935254677498
 21
205.5720413246115
  0
LINE
  5
35B
100
AcDbEntity
  8
schematic
  6
ByLayer
 62
  256
370
   -1
100
AcDbLine
 10
313.2935254677498
 20
205.5720413246115
 11
314.7335254677496
 21
203.4120413246115
  0
LINE
  5
35C
100
AcDbEntity
  8
schematic
  6
ByLayer
 62
  256
370
   -1
100
AcDbLine
 10
314.7335254677496
 20
203.4120413246115
 11
313.2935254677498
 21
203.4120413246115
  0
LINE
  5
35D
100
AcDbEntity
  8
schematic
  6
ByLayer
 62
  256
370
   -1
100
AcDbLine
 10
317.3058674446409
 20
173.3263621698766
 11
317.3058674446409
 21
203.5663621698766
  0
LINE
  5
35E
100
AcDbEntity
  8
schematic
  6
ByLayer
 62
  256
370
   -1
100
AcDbLine
 10
317.3058674446409
 20
203.5663621698766
 11
315.8658674446408
 21
203.5663621698766
  0
LINE
  5
35F
100
AcDbEntity
  8
schematic
  6
ByLayer
 62
  256
370
   -1
100
AcDbLine
 10
315.8658674446408
 20
203.5663621698766
 11
317.3058674446409
 21
205.7263621698766
  0
LINE
  5
360
100
AcDbEntity
  8
schematic
  6
ByLayer
 62
  256
370
   -1
100
AcDbLine
 10
317.3058674446409
 20
205.7263621698766
 11
318.7458674446408
 21
203.5663621698766
  0
LINE
  5
361
100
AcDbEntity
  8
schematic
  6
ByLayer
 62
  256
370
   -1
100
AcDbLine
 10
318.7458674446408
 20
203.5663621698766
 11
317.3058674446409
 21
203.5663621698766
  0
INSERT
  5
362
100
AcDbEntity
  8
schematic
  6
ByLayer
 62
  256
370
   -1
100
AcDbBlockReference
  2
junction
 10
318.1338570266304
 20
120.2029063006991
 30
0
 41
1
 42
1
 43
0
 50
0
 70
    1
 71
    1
 44
1
 45
1
  0
LINE
  5
363
100
AcDbEntity
  8
schematic
  6
ByLayer
 62
  256
370
   -1
100
AcDbLine
 10
313.2713158880415
 20
172.9936675421155
 11
306.6355195416446
 21
173.1479883873806
  0
LINE
  5
364
100
AcDbEntity
  8
schematic
  6
ByLayer
 62
  256
370
   -1
100
AcDbLine
 10
306.6355195416446
 20
173.1479883873806
 11
306.4811986963795
 21
176.3887261379465
  0
LINE
  5
365
100
AcDbEntity
  8
schematic
  6
ByLayer
 62
  256
370
   -1
100
AcDbLine
 10
306.4811986963795
 20
176.3887261379465
 11
298.9194772783923
 21
170.3702131726098
  0
LINE
  5
366
100
AcDbEntity
  8
schematic
  6
ByLayer
 62
  256
370
   -1
100
AcDbLine
 10
298.9194772783923
 20
170.3702131726098
 11
306.3268778511145
 21
165.4319461241283
  0
LINE
  5
367
100
AcDbEntity
  8
schematic
  6
ByLayer
 62
  256
370
   -1
100
AcDbLine
 10
306.3268778511145
 20
165.4319461241283
 11
306.4811986963795
 21
175.4628010663562
  0
LINE
  5
368
100
AcDbEntity
  8
schematic
  6
ByLayer
 62
  256
370
   -1
100
AcDbLine
 10
306.3268778511145
 20
167.1294754220438
 11
310.0305781374756
 21
167.1294754220438
  0
LINE
  5
369
100
AcDbEntity
  8
schematic
  6
ByLayer
 62
  256
370
   -1
100
AcDbLine
 10
310.0305781374756
 20
167.1294754220438
 11
309.7486766260633
 21
119.6697634925007
  0
LINE
  5
36A
100
AcDbEntity
  8
schematic
  6
ByLayer
 62
  256
370
   -1
100
AcDbLine
 10
192.1274407813744
 20
119.7677552922854
 11
343.878630725577
 21
119.7677552922854
  0
LINE
  5
36B
100
AcDbEntity
  8
schematic
  6
ByLayer
 62
  256
370
   -1
100
AcDbLine
 10
317.7928506903254
 20
145.3998695877934
 11
317.7928506903254
 21
120.4482539019006
  0
INSERT
  5
36C
100
AcDbEntity
  8
schematic
  6
ByLayer
 62
  256
370
   -1
100
AcDbBlockReference
  2
junction
 10
310.0805331146858
 20
119.7677552922854
 30
0
 41
1
 42
1
 43
0
 50
0
 70
    1
 71
    1
 44
1
 45
1
  0
MTEXT
  5
36D
100
AcDbEntity
  8
schematic
  6
ByLayer
 62
  256
370
   -1
100
AcDbMText
 10
221.019054959605
 20
229.5405825333839
 30
0
 40
3
 41
19.66666666666685
 71
    1
 72
    1
  1
INDUTTORI
  7
standard
210
0
220
0
230
1
 50
0
 73
    2
 44
1
  0
MTEXT
  5
36E
100
AcDbEntity
  8
schematic
  6
ByLayer
 62
  256
370
   -1
100
AcDbMText
 10
252.5488238717785
 20
229.5405825333839
 30
0
 40
3
 41
15.66666603066022
 71
    1
 72
    1
  1
SEGNALI
  7
standard
210
0
220
0
230
1
 50
0
 73
    2
 44
1
  0
INSERT
  5
36F
100
AcDbEntity
  8
schematic
  6
ByLayer
 62
  256
370
   -1
100
AcDbBlockReference
  2
Terminal-in
 10
228.9323508520191
 20
68.17038638048858
 30
0
 41
1
 42
1
 43
0
 50
180
 70
    1
 71
    1
 44
0
 45
0
  0
INSERT
  5
370
100
AcDbEntity
  8
schematic
  6
ByLayer
 62
  256
370
   -1
100
AcDbBlockReference
  2
Terminal-in
 10
238.4593313866325
 20
67.94355351061682
 30
0
 41
1
 42
1
 43
0
 50
180
 70
    1
 71
    1
 44
0
 45
0
  0
INSERT
  5
371
100
AcDbEntity
  8
schematic
  6
ByLayer
 62
  256
370
   -1
100
AcDbBlockReference
  2
Terminal-in
 10
247.5326461815025
 20
68.17038638048858
 30
0
 41
1
 42
1
 43
0
 50
180
 70
    1
 71
    1
 44
0
 45
0
  0
INSERT
  5
372
100
AcDbEntity
  8
schematic
  6
ByLayer
 62
  256
370
   -1
100
AcDbBlockReference
  2
Terminal-in
 10
257.0596267161159
 20
67.94355351061682
 30
0
 41
1
 42
1
 43
0
 50
180
 70
    1
 71
    1
 44
0
 45
0
  0
INSERT
  5
373
100
AcDbEntity
  8
schematic
  6
ByLayer
 62
  256
370
   -1
100
AcDbBlockReference
  2
Terminal-in
 10
191.9585930629241
 20
68.17038638048858
 30
0
 41
1
 42
1
 43
0
 50
180
 70
    1
 71
    1
 44
0
 45
0
  0
INSERT
  5
374
100
AcDbEntity
  8
schematic
  6
ByLayer
 62
  256
370
   -1
100
AcDbBlockReference
  2
Terminal-in
 10
201.4855735975376
 20
67.94355351061682
 30
0
 41
1
 42
1
 43
0
 50
180
 70
    1
 71
    1
 44
0
 45
0
  0
INSERT
  5
375
100
AcDbEntity
  8
schematic
  6
ByLayer
 62
  256
370
   -1
100
AcDbBlockReference
  2
Terminal-in
 10
210.5588883924075
 20
68.17038638048858
 30
0
 41
1
 42
1
 43
0
 50
180
 70
    1
 71
    1
 44
0
 45
0
  0
INSERT
  5
376
100
AcDbEntity
  8
schematic
  6
ByLayer
 62
  256
370
   -1
100
AcDbBlockReference
  2
Terminal-in
 10
220.0858689270209
 20
67.94355351061682
 30
0
 41
1
 42
1
 43
0
 50
180
 70
    1
 71
    1
 44
0
 45
0
  0
INSERT
  5
377
100
AcDbEntity
  8
schematic
  6
ByLayer
 62
  256
370
   -1
100
AcDbBlockReference
  2
Terminal-in
 10
154.5311695340857
 20
68.17038638048858
 30
0
 41
1
 42
1
 43
0
 50
180
 70
    1
 71
    1
 44
0
 45
0
  0
INSERT
  5
378
100
AcDbEntity
  8
schematic
  6
ByLayer
 62
  256
370
   -1
100
AcDbBlockReference
  2
Terminal-in
 10
164.0581500686991
 20
67.94355351061682
 30
0
 41
1
 42
1
 43
0
 50
180
 70
    1
 71
    1
 44
0
 45
0
  0
INSERT
  5
379
100
AcDbEntity
  8
schematic
  6
ByLayer
 62
  256
370
   -1
100
AcDbBlockReference
  2
Terminal-in
 10
173.1314648635691
 20
68.17038638048858
 30
0
 41
1
 42
1
 43
0
 50
180
 70
    1
 71
    1
 44
0
 45
0
  0
INSERT
  5
37A
100
AcDbEntity
  8
schematic
  6
ByLayer
 62
  256
370
   -1
100
AcDbBlockReference
  2
Terminal-in
 10
182.6584453981825
 20
67.94355351061682
 30
0
 41
1
 42
1
 43
0
 50
180
 70
    1
 71
    1
 44
0
 45
0
  0
INSERT
  5
37B
100
AcDbEntity
  8
schematic
  6
ByLayer
 62
  256
370
   -1
100
AcDbBlockReference
  2
Terminal-in
 10
117.5574117449907
 20
68.17038638048858
 30
0
 41
1
 42
1
 43
0
 50
180
 70
    1
 71
    1
 44
0
 45
0
  0
INSERT
  5
37C
100
AcDbEntity
  8
schematic
  6
ByLayer
 62
  256
370
   -1
100
AcDbBlockReference
  2
Terminal-in
 10
127.0843922796041
 20
67.94355351061682
 30
0
 41
1
 42
1
 43
0
 50
180
 70
    1
 71
    1
 44
0
 45
0
  0
INSERT
  5
37D
100
AcDbEntity
  8
schematic
  6
ByLayer
 62
  256
370
   -1
100
AcDbBlockReference
  2
Terminal-in
 10
136.1577070744741
 20
68.17038638048858
 30
0
 41
1
 42
1
 43
0
 50
180
 70
    1
 71
    1
 44
0
 45
0
  0
INSERT
  5
37E
100
AcDbEntity
  8
schematic
  6
ByLayer
 62
  256
370
   -1
100
AcDbBlockReference
  2
Terminal-in
 10
145.6846876090875
 20
67.94355351061682
 30
0
 41
1
 42
1
 43
0
 50
180
 70
    1
 71
    1
 44
0
 45
0
  0
INSERT
  5
37F
100
AcDbEntity
  8
schematic
  6
ByLayer
 62
  256
370
   -1
100
AcDbBlockReference
  2
Terminal-in
 10
79.90315534628047
 20
68.39721925036034
 30
0
 41
1
 42
1
 43
0
 50
180
 70
    1
 71
    1
 44
0
 45
0
  0
INSERT
  5
380
100
AcDbEntity
  8
schematic
  6
ByLayer
 62
  256
370
   -1
100
AcDbBlockReference
  2
Terminal-in
 10
89.43013588089389
 20
68.17038638048858
 30
0
 41
1
 42
1
 43
0
 50
180
 70
    1
 71
    1
 44
0
 45
0
  0
INSERT
  5
381
100
AcDbEntity
  8
schematic
  6
ByLayer
 62
  256
370
   -1
100
AcDbBlockReference
  2
Terminal-in
 10
98.50345067576384
 20
68.39721925036034
 30
0
 41
1
 42
1
 43
0
 50
180
 70
    1
 71
    1
 44
0
 45
0
  0
INSERT
  5
382
100
AcDbEntity
  8
schematic
  6
ByLayer
 62
  256
370
   -1
100
AcDbBlockReference
  2
Terminal-in
 10
108.0304312103773
 20
68.17038638048858
 30
0
 41
1
 42
1
 43
0
 50
180
 70
    1
 71
    1
 44
0
 45
0
  0
INSERT
  5
383
100
AcDbEntity
  8
schematic
  6
ByLayer
 62
  256
370
   -1
100
AcDbBlockReference
  2
Terminal-in
 10
42.9293975571855
 20
68.39721925036034
 30
0
 41
1
 42
1
 43
0
 50
180
 70
    1
 71
    1
 44
0
 45
0
  0
INSERT
  5
384
100
AcDbEntity
  8
schematic
  6
ByLayer
 62
  256
370
   -1
100
AcDbBlockReference
  2
Terminal-in
 10
52.45637809179891
 20
68.17038638048858
 30
0
 41
1
 42
1
 43
0
 50
180
 70
    1
 71
    1
 44
0
 45
0
  0
INSERT
  5
385
100
AcDbEntity
  8
schematic
  6
ByLayer
 62
  256
370
   -1
100
AcDbBlockReference
  2
Terminal-in
 10
61.52969288666887
 20
68.39721925036034
 30
0
 41
1
 42
1
 43
0
 50
180
 70
    1
 71
    1
 44
0
 45
0
  0
INSERT
  5
386
100
AcDbEntity
  8
schematic
  6
ByLayer
 62
  256
370
   -1
100
AcDbBlockReference
  2
Terminal-in
 10
71.05667342128228
 20
68.17038638048858
 30
0
 41
1
 42
1
 43
0
 50
180
 70
    1
 71
    1
 44
0
 45
0
  0
INSERT
  5
387
100
AcDbEntity
  8
schematic
  6
ByLayer
 62
  256
370
   -1
100
AcDbBlockReference
  2
Terminal-in
 10
266.0082295704999
 20
67.94355351061682
 30
0
 41
1
 42
1
 43
0
 50
180
 70
    1
 71
    1
 44
0
 45
0
  0
LINE
  5
388
100
AcDbEntity
  8
schematic
  6
ByLayer
 62
  256
370
   -1
100
AcDbLine
 10
360.0900631872171
 20
173.7101138153149
 11
360.0900631872171
 21
81.68709766747054
  0
LINE
  5
389
100
AcDbEntity
  8
schematic
  6
ByLayer
 62
  256
370
   -1
100
AcDbLine
 10
360.0900631872171
 20
81.68709766747054
 11
247.3952100786251
 21
81.68709766747054
  0
LINE
  5
38A
100
AcDbEntity
  8
schematic
  6
ByLayer
 62
  256
370
   -1
100
AcDbLine
 10
247.3952100786251
 20
81.68709766747054
 11
247.0617933534517
 21
65.68309485914978
  0
LINE
  5
38B
100
AcDbEntity
  8
schematic
  6
ByLayer
 62
  256
370
   -1
100
AcDbLine
 10
257.0642951086522
 20
67.35017848501653
 11
257.0642951086522
 21
74.35192971365686
  0
LINE
  5
38C
100
AcDbEntity
  8
schematic
  6
ByLayer
 62
  256
370
   -1
100
AcDbLine
 10
257.0642951086522
 20
74.35192971365686
 11
370.0925649424175
 21
74.35192971365686
  0
LINE
  5
38D
100
AcDbEntity
  8
schematic
  6
ByLayer
 62
  256
370
   -1
100
AcDbLine
 10
370.0925649424175
 20
74.35192971365686
 11
370.0925649424175
 21
178.0445312425684
  0
LINE
  5
38E
100
AcDbEntity
  8
schematic
  6
ByLayer
 62
  256
370
   -1
100
AcDbLine
 10
403.7676541849258
 20
189.0472831732889
 11
403.7676541849258
 21
68.01701193536323
  0
LINE
  5
38F
100
AcDbEntity
  8
schematic
  6
ByLayer
 62
  256
370
   -1
100
AcDbLine
 10
403.7676541849258
 20
68.01701193536323
 11
266.0665466883326
 21
68.01701193536323
  0
MTEXT
  5
390
100
AcDbEntity
  8
schematic
  6
ByLayer
 62
  256
370
   -1
100
AcDbMText
 10
246.6169444773846
 20
51.90392291616775
 30
0
 40
4
 41
2.666666666666667
 71
    1
 72
    1
  1
A\PP\P1
  7
standard
210
0
220
0
230
1
 50
0
 73
    2
 44
1
  0
MTEXT
  5
391
100
AcDbEntity
  8
schematic
  6
ByLayer
 62
  256
370
   -1
100
AcDbMText
 10
256.8804320596777
 20
52.19716541851898
 30
0
 40
4
 41
2.222222222222222
 71
    1
 72
    1
  1
C\PP\P1
  7
standard
210
0
220
0
230
1
 50
0
 73
    2
 44
1
  0
MTEXT
  5
392
100
AcDbEntity
  8
schematic
  6
ByLayer
 62
  256
370
   -1
100
AcDbMText
 10
265.6777071302146
 20
52.19716541851898
 30
0
 40
4
 41
2.666666666666667
 71
    1
 72
    1
  1
C\PO\PM
  7
standard
210
0
220
0
230
1
 50
0
 73
    2
 44
1
  0
MTEXT
  5
393
100
AcDbEntity
  8
schematic
  6
ByLayer
 62
  256
370
   -1
100
AcDbMText
 10
220.2251192657739
 20
51.61068041381652
 30
0
 40
4
 41
2.222222222222222
 71
    1
 72
    1
  1
C\PB
  7
standard
210
0
220
0
230
1
 50
0
 73
    2
 44
1
  0
MTEXT
  5
394
100
AcDbEntity
  8
schematic
  6
ByLayer
 62
  256
370
   -1
100
AcDbMText
 10
228.1426668292571
 20
51.61068041381652
 30
0
 40
4
 41
2.666666666666667
 71
    1
 72
    1
  1
M\PB
  7
standard
210
0
220
0
230
1
 50
0
 73
    2
 44
1
  0
MTEXT
  5
395
100
AcDbEntity
  8
schematic
  6
ByLayer
 62
  256
370
   -1
100
AcDbMText
 10
237.2331844021452
 20
51.02419540911406
 30
0
 40
4
 41
2.666666666666667
 71
    1
 72
    1
  1
M\PA
  7
standard
210
0
220
0
230
1
 50
0
 73
    2
 44
1
  0
MTEXT
  5
396
100
AcDbEntity
  8
schematic
  6
ByLayer
 62
  256
370
   -1
100
AcDbMText
 10
209.9616316834808
 20
51.61068041381652
 30
0
 40
4
 41
1.777777777778026
 71
    1
 72
    1
  1
9
  7
standard
210
0
220
0
230
1
 50
0
 73
    2
 44
1
  0
MTEXT
  5
397
100
AcDbEntity
  8
schematic
  6
ByLayer
 62
  256
370
   -1
100
AcDbMText
 10
201.4575991152952
 20
51.31743791146529
 30
0
 40
4
 41
1.777777777777778
 71
    1
 72
    1
  1
8
  7
standard
210
0
220
0
230
1
 50
0
 73
    2
 44
1
  0
MTEXT
  5
398
100
AcDbEntity
  8
schematic
  6
ByLayer
 62
  256
370
   -1
100
AcDbMText
 10
191.7805965377046
 20
51.02419540911406
 30
0
 40
4
 41
1.777777777778026
 71
    1
 72
    1
  1
6
  7
standard
210
0
220
0
230
1
 50
0
 73
    2
 44
1
  0
MTEXT
  5
399
100
AcDbEntity
  8
schematic
  6
ByLayer
 62
  256
370
   -1
100
AcDbMText
 10
182.3968364624652
 20
51.02419540911406
 30
0
 40
4
 41
1.777777777778026
 71
    1
 72
    1
  1
5
  7
standard
210
0
220
0
230
1
 50
0
 73
    2
 44
1
  0
MTEXT
  5
39A
100
AcDbEntity
  8
schematic
  6
ByLayer
 62
  256
370
   -1
100
AcDbMText
 10
172.4265913825234
 20
51.02419540911406
 30
0
 40
4
 41
2.222222222222222
 71
    1
 72
    1
  1
4
  7
standard
210
0
220
0
230
1
 50
0
 73
    2
 44
1
  0
MTEXT
  5
39B
100
AcDbEntity
  8
schematic
  6
ByLayer
 62
  256
370
   -1
100
AcDbMText
 10
163.6293163119865
 20
50.73095290676283
 30
0
 40
4
 41
1.777777777777778
 71
    1
 72
    1
  1
2
  7
standard
210
0
220
0
230
1
 50
0
 73
    2
 44
1
  0
MTEXT
  5
39C
100
AcDbEntity
  8
schematic
  6
ByLayer
 62
  256
370
   -1
100
AcDbMText
 10
154.5387987390983
 20
50.14446790206037
 30
0
 40
4
 41
0.8888888888888888
 71
    1
 72
    1
  1
1
  7
standard
210
0
220
0
230
1
 50
0
 73
    2
 44
1
  0
MTEXT
  5
39D
100
AcDbEntity
  8
schematic
  6
ByLayer
 62
  256
370
   -1
100
AcDbMText
 10
144.5685536591565
 20
52.19716541851898
 30
0
 40
4
 41
2.22222222222247
 71
    1
 72
    1
  1
G\PN\PD
  7
standard
210
0
220
0
230
1
 50
0
 73
    2
 44
1
  0
MTEXT
  5
39E
100
AcDbEntity
  8
schematic
  6
ByLayer
 62
  256
370
   -1
100
AcDbMText
 10
126.9740035180827
 20
52.19716541851898
 30
0
 40
4
 41
2.222222222222222
 71
    1
 72
    1
  1
+\P2\P4
  7
standard
210
0
220
0
230
1
 50
0
 73
    2
 44
1
  0
MTEXT
  5
39F
100
AcDbEntity
  8
schematic
  6
ByLayer
 62
  256
370
   -1
100
AcDbMText
 10
117.5902434428433
 20
52.19716541851898
 30
0
 40
4
 41
2.222222222222222
 71
    1
 72
    1
  1
+\P2\P4
  7
standard
210
0
220
0
230
1
 50
0
 73
    2
 44
1
  0
MTEXT
  5
3A0
100
AcDbEntity
  8
schematic
  6
ByLayer
 62
  256
370
   -1
100
AcDbMText
 10
135.1847935839171
 20
52.19716541851898
 30
0
 40
4
 41
2.22222222222247
 71
    1
 72
    1
  1
G\PN\PD
  7
standard
210
0
220
0
230
1
 50
0
 73
    2
 44
1
  0
LINE
  5
3A1
100
AcDbEntity
  8
schematic
  6
ByLayer
 62
  256
370
   -1
100
AcDbLine
 10
157.4712237626106
 20
106.1537858511453
 11
219.9318767634227
 21
106.1537858511453
  0
LINE
  5
3A2
100
AcDbEntity
  8
schematic
  6
ByLayer
 62
  256
370
   -1
100
AcDbLine
 10
219.9318767634227
 20
106.1537858511453
 11
219.9318767634227
 21
64.80659301962187
  0
LINE
  5
3A3
100
AcDbEntity
  8
schematic
  6
ByLayer
 62
  256
370
   -1
100
AcDbLine
 10
266.4211428576119
 20
203.7206830151416
 11
264.9811428576119
 21
203.7206830151416
  0
LINE
  5
3A4
100
AcDbEntity
  8
schematic
  6
ByLayer
 62
  256
370
   -1
100
AcDbLine
 10
264.9811428576119
 20
203.7206830151416
 11
266.4211428576119
 21
205.8806830151416
  0
LINE
  5
3A5
100
AcDbEntity
  8
schematic
  6
ByLayer
 62
  256
370
   -1
100
AcDbLine
 10
266.4211428576119
 20
205.8806830151416
 11
267.8611428576119
 21
203.7206830151416
  0
LINE
  5
3A6
100
AcDbEntity
  8
schematic
  6
ByLayer
 62
  256
370
   -1
100
AcDbLine
 10
267.8611428576119
 20
203.7206830151416
 11
266.4211428576119
 21
203.7206830151416
  0
LINE
  5
3A7
100
AcDbEntity
  8
schematic
  6
ByLayer
 62
  256
370
   -1
100
AcDbLine
 10
266.264192134917
 20
203.5102966317538
 11
266.264192134917
 21
186.2089889930312
  0
LINE
  5
3A8
100
AcDbEntity
  8
schematic
  6
ByLayer
 62
  256
370
   -1
100
AcDbLine
 10
266.264192134917
 20
186.2089889930312
 11
280.6330747501273
 21
186.5022314953824
  0
LINE
  5
3A9
100
AcDbEntity
  8
schematic
  6
ByLayer
 62
  256
370
   -1
100
AcDbLine
 10
280.6330747501273
 20
186.5022314953824
 11
280.6330747501273
 21
88.55923571007152
  0
LINE
  5
3AA
100
AcDbEntity
  8
schematic
  6
ByLayer
 62
  256
370
   -1
100
AcDbLine
 10
280.6330747501273
 20
88.55923571007152
 11
238.6993969139014
 21
88.55923571007152
  0
LINE
  5
3AB
100
AcDbEntity
  8
schematic
  6
ByLayer
 62
  256
370
   -1
100
AcDbLine
 10
238.6993969139014
 20
88.55923571007152
 11
238.4061544115502
 21
65.39307802432434
  0
MTEXT
  5
3AC
100
AcDbEntity
  8
schematic
  6
ByLayer
 62
  256
370
   -1
100
AcDbMText
 10
299.4005949006061
 20
181.8103514577627
 30
0
 40
3
 41
9.666666666666853
 71
    1
 72
    1
  1
GONG
  7
standard
210
0
220
0
230
1
 50
0
 73
    2
 44
1
  0
MTEXT
  5
3AD
100
AcDbEntity
  8
schematic
  6
ByLayer
 62
  256
370
   -1
100
AcDbMText
 10
325.2059351075143
 20
165.9752563307963
 30
0
 40
3
 41
15
 71
    1
 72
    1
  1
FRECCIA\PSALITA
  7
standard
210
0
220
0
230
1
 50
0
 73
    2
 44
1
  0
MTEXT
  5
3AE
100
AcDbEntity
  8
schematic
  6
ByLayer
 62
  256
370
   -1
100
AcDbMText
 10
324.6194501028119
 20
148.0874636873713
 30
0
 40
3
 41
15.66666539465396
 71
    1
 72
    1
  1
FRECCIA\PDISCESA
  7
standard
210
0
220
0
230
1
 50
0
 73
    2
 44
1
  0
MTEXT
  5
3AF
100
AcDbEntity
  8
schematic
  6
ByLayer
 62
  256
370
   -1
100
AcDbMText
 10
346.9058802815053
 20
128.7334585321901
 30
0
 40
3
 41
29.33333269732688
 71
    1
 72
    1
  1
SOVRACCARICO
  7
standard
210
0
220
0
230
1
 50
0
 73
    2
 44
1
  0
MTEXT
  5
3B0
100
AcDbEntity
  8
schematic
  6
ByLayer
 62
  256
370
   -1
100
AcDbMText
 10
320.5140550698947
 20
229.315636838662
 30
0
 40
3
 41
67.58333269732688
 71
    1
 72
    1
  1
SEGNALAZIONI/OPERATORI PORTE
  7
standard
210
0
220
0
230
1
 50
0
 73
    2
 44
1
  0
LINE
  5
3B1
100
AcDbEntity
  8
schematic
  6
ByLayer
 62
  256
370
   -1
100
AcDbLine
 10
241.9250644397649
 20
42.52016284092838
 11
241.9250644397649
 21
35.18910028214763
  0
LINE
  5
3B2
100
AcDbEntity
  8
schematic
  6
ByLayer
 62
  256
370
   -1
100
AcDbLine
 10
241.9250644397649
 20
35.18910028214763
 11
217.879179246964
 21
35.18910028214763
  0
LINE
  5
3B3
100
AcDbEntity
  8
schematic
  6
ByLayer
 62
  256
370
   -1
100
AcDbLine
 10
217.879179246964
 20
35.18910028214763
 11
217.5859367446128
 21
42.52016284092838
  0
LINE
  5
3B4
100
AcDbEntity
  8
schematic
  6
ByLayer
 62
  256
370
   -1
100
AcDbLine
 10
160.9901337908254
 20
45.74583036679191
 11
160.6968912884741
 21
35.18910028214763
  0
LINE
  5
3B5
100
AcDbEntity
  8
schematic
  6
ByLayer
 62
  256
370
   -1
100
AcDbLine
 10
160.6968912884741
 20
35.18910028214763
 11
177.118471420143
 21
35.18910028214763
  0
LINE
  5
3B6
100
AcDbEntity
  8
schematic
  6
ByLayer
 62
  256
370
   -1
100
AcDbLine
 10
177.118471420143
 20
35.18910028214763
 11
177.118471420143
 21
46.6255578738456
  0
LINE
  5
3B7
100
AcDbEntity
  8
schematic
  6
ByLayer
 62
  256
370
   -1
100
AcDbLine
 10
244.564246960926
 20
42.52016284092838
 11
244.2710044585748
 21
31.0837052492304
  0
LINE
  5
3B8
100
AcDbEntity
  8
schematic
  6
ByLayer
 62
  256
370
   -1
100
AcDbLine
 10
244.2710044585748
 20
31.0837052492304
 11
273.0087696889954
 21
31.37694775158163
  0
LINE
  5
3B9
100
AcDbEntity
  8
schematic
  6
ByLayer
 62
  256
370
   -1
100
AcDbLine
 10
273.0087696889954
 20
31.37694775158163
 11
273.3020121913465
 21
43.10664784563084
  0
LINE
  5
3BA
100
AcDbEntity
  8
schematic
  6
ByLayer
 62
  256
370
   -1
100
AcDbLine
 10
112.6051209028724
 20
50.4377104044116
 11
112.6051209028724
 21
35.18910028214763
  0
LINE
  5
3BB
100
AcDbEntity
  8
schematic
  6
ByLayer
 62
  256
370
   -1
100
AcDbLine
 10
112.6051209028724
 20
35.18910028214763
 11
36.94855529625501
 21
35.18910028214763
  0
LINE
  5
3BC
100
AcDbEntity
  8
schematic
  6
ByLayer
 62
  256
370
   -1
100
AcDbLine
 10
36.94855529625501
 20
35.18910028214763
 11
36.94855529625501
 21
50.73095290676283
  0
MTEXT
  5
3BD
100
AcDbEntity
  8
schematic
  6
ByLayer
 62
  256
370
   -1
100
AcDbMText
 10
158.3509512696643
 20
89.43896321712522
 30
0
 40
3
 41
2
 71
    1
 72
    1
  1
E\PX\PT\PR\PA\PC
  7
standard
210
0
220
0
230
1
 50
0
 73
    2
 44
1
  0
MTEXT
  5
3BE
100
AcDbEntity
  8
schematic
  6
ByLayer
 62
  256
370
   -1
100
AcDbMText
 10
177.118471420143
 20
89.73220571947644
 30
0
 40
3
 41
2
 71
    1
 72
    1
  1
A\PL\PT\PC\PA\PB
  7
standard
210
0
220
0
230
1
 50
0
 73
    2
 44
1
  0
MTEXT
  5
3BF
100
AcDbEntity
  8
schematic
  6
ByLayer
 62
  256
370
   -1
100
AcDbMText
 10
186.7954739977336
 20
94.71732825944736
 30
0
 40
3
 41
2
 71
    1
 72
    1
  1
P\PA\PR\PA\PC\PA\PD
  7
standard
210
0
220
0
230
1
 50
0
 73
    2
 44
1
  0
MTEXT
  5
3C0
100
AcDbEntity
  8
schematic
  6
ByLayer
 62
  256
370
   -1
100
AcDbMText
 10
202.6305691247001
 20
95.59705576650104
 30
0
 40
3
 41
6.916666666666666
 71
    1
 72
    1
  1
P C\PO A\PR B\PT I\PE N\P  A
  7
standard
210
0
220
0
230
1
 50
0
 73
    2
 44
1
  0
MTEXT
  5
3C1
100
AcDbEntity
  8
schematic
  6
ByLayer
 62
  256
370
   -1
100
AcDbMText
 10
184.4495339789238
 20
33.42964526804025
 30
0
 40
3
 41
28.50000000000037
 71
    1
 72
    1
  1
BOTTONIERA\PISPEZIONE\PVEDI FOGLIO 3
  7
standard
210
0
220
0
230
1
 50
0
 73
    2
 44
1
  0
LEADER
  5
3C2
100
AcDbEntity
  8
schematic
  6
ByLayer
 62
  256
370
   -1
100
AcDbLeader
  3
Standard
 71
    1
 72
    0
 73
    3
 74
    0
 75
    0
 40
1
 41
10
 76
3
 76
3
 10
169.2009238566598
 20
32.54991776098655
 30
0
 10
169.2009238566598
 20
25.80534020690826
 30
0
 10
179.7576539413041
 20
25.80534020690826
 30
0
  0
LEADER
  5
3C3
100
AcDbEntity
  8
schematic
  6
ByLayer
 62
  256
370
   -1
100
AcDbLeader
  3
Standard
 71
    1
 72
    0
 73
    3
 74
    0
 75
    0
 40
1
 41
10
 76
3
 76
3
 10
229.6088793410132
 20
32.54991776098655
 30
0
 10
229.6088793410132
 20
25.80534020690826
 30
0
 10
214.3602692187493
 20
25.80534020690826
 30
0
  0
MTEXT
  5
3C4
100
AcDbEntity
  8
schematic
  6
ByLayer
 62
  256
370
   -1
100
AcDbMText
 10
248.376399491492
 20
28.1512802257181
 30
0
 40
3
 41
21.33333333333333
 71
    1
 72
    1
  1
COMANDO\POPERATORI
  7
standard
210
0
220
0
230
1
 50
0
 73
    2
 44
1
  0
MTEXT
  5
3C5
100
AcDbEntity
  8
schematic
  6
ByLayer
 62
  256
370
   -1
100
AcDbMText
 10
59.52822797729974
 20
45.15934536208945
 30
0
 40
3
 41
32.91666603066022
 71
    1
 72
    1
  1
MORSETTI LIBERI\PPER APPOGGIO
  7
standard
210
0
220
0
230
1
 50
0
 73
    2
 44
1
  0
CIRCLE
  5
3C6
100
AcDbEntity
  8
schematic
  6
ByLayer
 62
  256
370
   -1
100
AcDbCircle
 10
33.62899938529088
 20
228.3510393438806
 40
1.44
  0
CIRCLE
  5
3C7
100
AcDbEntity
  8
schematic
  6
ByLayer
 62
  256
370
   -1
100
AcDbCircle
 10
38.66899938529083
 20
228.3510393438806
 40
1.44
  0
CIRCLE
  5
3C8
100
AcDbEntity
  8
schematic
  6
ByLayer
 62
  256
370
   -1
100
AcDbCircle
 10
43.70899938529084
 20
228.3510393438806
 40
1.44
  0
CIRCLE
  5
3C9
100
AcDbEntity
  8
schematic
  6
ByLayer
 62
  256
370
   -1
100
AcDbCircle
 10
48.74899938529084
 20
228.3510393438806
 40
1.44
  0
CIRCLE
  5
3CA
100
AcDbEntity
  8
schematic
  6
ByLayer
 62
  256
370
   -1
100
AcDbCircle
 10
53.78899938529092
 20
228.3510393438806
 40
1.44
  0
LWPOLYLINE
  5
3CB
100
AcDbEntity
  8
schematic
  6
ByLayer
 62
  256
370
   -1
100
AcDbPolyline
 90
    4
 70
    1
 43
0
 10
29.65953190008045
 20
223.8649886023463
 10
60.35069969233761
 20
223.8649886023463
 10
60.35069969233761
 20
232.6338936858483
 10
29.65953190008045
 20
232.6338936858483
  0
LINE
  5
3CC
100
AcDbEntity
  8
schematic
  6
ByLayer
 62
  256
370
   -1
100
AcDbLine
 10
33.79626511304428
 20
232.5615138144188
 11
33.79626511304428
 21
260.9565493431866
  0
LINE
  5
3CD
100
AcDbEntity
  8
schematic
  6
ByLayer
 62
  256
370
   -1
100
AcDbLine
 10
33.79626511304428
 20
260.9565493431866
 11
32.56169835092394
 21
260.9565493431866
  0
LINE
  5
3CE
100
AcDbEntity
  8
schematic
  6
ByLayer
 62
  256
370
   -1
100
AcDbLine
 10
32.56169835092394
 20
260.9565493431866
 11
33.79626511304428
 21
263.4256828674273
  0
LINE
  5
3CF
100
AcDbEntity
  8
schematic
  6
ByLayer
 62
  256
370
   -1
100
AcDbLine
 10
33.79626511304428
 20
263.4256828674273
 11
34.72219018463453
 21
261.1108701884517
  0
LINE
  5
3D0
100
AcDbEntity
  8
schematic
  6
ByLayer
 62
  256
370
   -1
100
AcDbLine
 10
34.72219018463453
 20
261.1108701884517
 11
33.64194426777924
 21
261.1108701884517
  0
LINE
  5
3D1
100
AcDbEntity
  8
schematic
  6
ByLayer
 62
  256
370
   -1
100
AcDbLine
 10
38.73453216152563
 20
232.5615138144188
 11
38.73453216152563
 21
260.9565493431866
  0
LINE
  5
3D2
100
AcDbEntity
  8
schematic
  6
ByLayer
 62
  256
370
   -1
100
AcDbLine
 10
38.73453216152563
 20
260.9565493431866
 11
37.49996539940529
 21
260.9565493431866
  0
LINE
  5
3D3
100
AcDbEntity
  8
schematic
  6
ByLayer
 62
  256
370
   -1
100
AcDbLine
 10
37.49996539940529
 20
260.9565493431866
 11
38.73453216152563
 21
263.4256828674273
  0
LINE
  5
3D4
100
AcDbEntity
  8
schematic
  6
ByLayer
 62
  256
370
   -1
100
AcDbLine
 10
38.73453216152563
 20
263.4256828674273
 11
39.66045723311588
 21
261.1108701884517
  0
LINE
  5
3D5
100
AcDbEntity
  8
schematic
  6
ByLayer
 62
  256
370
   -1
100
AcDbLine
 10
39.66045723311588
 20
261.1108701884517
 11
38.58021131626059
 21
261.1108701884517
  0
MTEXT
  5
3D6
100
AcDbEntity
  8
schematic
  6
ByLayer
 62
  256
370
   -1
100
AcDbMText
 10
32.71601919618898
 20
278.5491257034014
 30
0
 40
3
 41
1.666666666666667
 71
    1
 72
    1
  1
+\P2\P4
  7
standard
210
0
220
0
230
1
 50
0
 73
    2
 44
1
  0
MTEXT
  5
3D7
100
AcDbEntity
  8
schematic
  6
ByLayer
 62
  256
370
   -1
100
AcDbMText
 10
37.80860708993538
 20
278.7034465486665
 30
0
 40
3
 41
1.666666666666853
 71
    1
 72
    1
  1
G\PN\PD
  7
standard
210
0
220
0
230
1
 50
0
 73
    2
 44
1
  0
MTEXT
  5
3D8
100
AcDbEntity
  8
schematic
  6
ByLayer
 62
  256
370
   -1
100
AcDbMText
 10
32.25305666039385
 20
171.296138244197
 30
0
 40
3
 41
1.666666666666853
 71
    1
 72
    1
  1
G\PN\PD
  7
standard
210
0
220
0
230
1
 50
0
 73
    2
 44
1
  0
MTEXT
  5
3D9
100
AcDbEntity
  8
schematic
  6
ByLayer
 62
  256
370
   -1
100
AcDbMText
 10
37.19132370887521
 20
161.4196041472343
 30
0
 40
3
 41
2
 71
    1
 72
    1
  1
A
  7
standard
210
0
220
0
230
1
 50
0
 73
    2
 44
1
  0
MTEXT
  5
3DA
100
AcDbEntity
  8
schematic
  6
ByLayer
 62
  256
370
   -1
100
AcDbMText
 10
42.43823244788665
 20
161.4196041472343
 30
0
 40
3
 41
1.333333333333333
 71
    1
 72
    1
  1
/
  7
standard
210
0
220
0
230
1
 50
0
 73
    2
 44
1
  0
MTEXT
  5
3DB
100
AcDbEntity
  8
schematic
  6
ByLayer
 62
  256
370
   -1
100
AcDbMText
 10
47.37649949636801
 20
161.4196041472343
 30
0
 40
3
 41
1.666666666666667
 71
    1
 72
    1
  1
B
  7
standard
210
0
220
0
230
1
 50
0
 73
    2
 44
1
  0
MTEXT
  5
3DC
100
AcDbEntity
  8
schematic
  6
ByLayer
 62
  256
370
   -1
100
AcDbMText
 10
52.31476654484936
 20
171.6047799347271
 30
0
 40
3
 41
1.666666666666667
 71
    1
 72
    1
  1
+\P2\P4
  7
standard
210
0
220
0
230
1
 50
0
 73
    2
 44
1
  0
LINE
  5
3DD
100
AcDbEntity
  8
schematic
  6
ByLayer
 62
  256
370
   -1
100
AcDbLine
 10
43.51847836474195
 20
147.0677655375854
 11
43.51847836474195
 21
126.2344514268047
  0
LINE
  5
3DE
100
AcDbEntity
  8
schematic
  6
ByLayer
 62
  256
370
   -1
100
AcDbLine
 10
43.51847836474195
 20
126.2344514268047
 11
35.95675694675487
 21
126.2344514268047
  0
LINE
  5
3DF
100
AcDbEntity
  8
schematic
  6
ByLayer
 62
  256
370
   -1
100
AcDbLine
 10
35.95675694675487
 20
126.2344514268047
 11
43.51847836474195
 21
118.3640883182875
  0
LINE
  5
3E0
100
AcDbEntity
  8
schematic
  6
ByLayer
 62
  256
370
   -1
100
AcDbLine
 10
43.51847836474195
 20
118.3640883182875
 11
50.30859555640381
 21
126.2344514268047
  0
LINE
  5
3E1
100
AcDbEntity
  8
schematic
  6
ByLayer
 62
  256
370
   -1
100
AcDbLine
 10
50.30859555640381
 20
126.2344514268047
 11
43.20983667421186
 21
126.2344514268047
  0
MTEXT
  5
3E2
100
AcDbEntity
  8
schematic
  6
ByLayer
 62
  256
370
   -1
100
AcDbMText
 10
24.84565608767182
 20
116.512238175107
 30
0
 40
3
 41
52.49999872798728
 71
    1
 72
    1
  1
ALLA SCHEDA CONSER-PE\PDEL QUADRO
  7
standard
210
0
220
0
230
1
 50
0
 73
    2
 44
1
  0
MTEXT
  5
3E3
100
AcDbEntity
  8
schematic
  6
ByLayer
 62
  256
370
   -1
100
AcDbMText
 10
24.69133524240678
 20
106.9443457686744
 30
0
 40
3
 41
28.91666603066022
 71
    1
 72
    1
  1
LINEA SERIALE
  7
standard
210
0
220
0
230
1
 50
0
 73
    2
 44
1
  0
MTEXT
  5
3E4
100
AcDbEntity
  8
schematic
  6
ByLayer
 62
  256
370
   -1
100
AcDbMText
 10
24.3826935518767
 20
102.6233621012532
 30
0
 40
3
 41
47.83333333333351
 71
    1
 72
    1
  1
MONTARE LONTANO DAI\PCIRCUITI DI POTENZA\P(LUCE-PATTINO-MOTORI\PPORTE-SICUREZZE)
  7
standard
210
0
220
0
230
1
 50
0
 73
    2
 44
1
  0
MTEXT
  5
3E5
100
AcDbEntity
  8
schematic
  6
ByLayer
 62
  256
370
   -1
100
AcDbMText
 10
24.22837270661165
 20
83.17893559785783
 30
0
 40
3
 41
67.33333333333353
 71
    1
 72
    1
  1
NON INVERTIRE I COLLEGAMENTI\PPER EVITARE DANNI AL CIRCUITO
  7
standard
210
0
220
0
230
1
 50
0
 73
    2
 44
1
  0
MTEXT
  5
3E6
100
AcDbEntity
  8
schematic
  6
ByLayer
 62
  256
370
   -1
100
AcDbMText
 10
71.32457786116323
 20
271.3677298311445
 30
0
 40
8
 41
64.66666666666666
 71
    1
 72
    1
  1
BOX CABINA
  7
standard
210
0
220
0
230
1
 50
0
 73
    2
 44
1
  0
LINE
  5
3E7
100
AcDbEntity
  8
schematic
  6
ByLayer
 62
  256
370
   -1
100
AcDbLine
 10
364.8882040270819
 20
203.7206830151416
 11
363.4482040270819
 21
203.7206830151416
  0
LINE
  5
3E8
100
AcDbEntity
  8
schematic
  6
ByLayer
 62
  256
370
   -1
100
AcDbLine
 10
363.4482040270819
 20
203.7206830151416
 11
364.8882040270819
 21
205.8806830151416
  0
LINE
  5
3E9
100
AcDbEntity
  8
schematic
  6
ByLayer
 62
  256
370
   -1
100
AcDbLine
 10
364.8882040270819
 20
205.8806830151416
 11
366.3282040270819
 21
203.7206830151416
  0
LINE
  5
3EA
100
AcDbEntity
  8
schematic
  6
ByLayer
 62
  256
370
   -1
100
AcDbLine
 10
366.3282040270819
 20
203.7206830151416
 11
364.8882040270819
 21
203.7206830151416
  0
LINE
  5
3EB
100
AcDbEntity
  8
schematic
  6
ByLayer
 62
  256
370
   -1
100
AcDbLine
 10
381.0473011917672
 20
189.9251469814463
 11
381.0473011917672
 21
191.5211566199458
  0
LINE
  5
3EC
100
AcDbEntity
  8
schematic
  6
ByLayer
 62
  256
370
   -1
100
AcDbLine
 10
381.0473011917672
 20
191.5211566199458
 11
380.8477999869548
 21
188.1296361381343
  0
LINE
  5
3ED
100
AcDbEntity
  8
schematic
  6
ByLayer
 62
  256
370
   -1
100
AcDbLine
 10
380.8477999869548
 20
188.1296361381343
 11
383.640816854329
 21
189.7256457766339
  0
LINE
  5
3EE
100
AcDbEntity
  8
schematic
  6
ByLayer
 62
  256
370
   -1
100
AcDbLine
 10
383.640816854329
 20
189.7256457766339
 11
381.0473011917672
 21
191.122154210321
  0
LINE
  5
3EF
100
AcDbEntity
  8
schematic
  6
DASHEDTINY
 62
  256
370
   -1
100
AcDbLine
 10
364.888
 20
189.726
 11
381.047
 21
189.925
  0
LINE
  5
3F0
100
AcDbEntity
  8
schematic
  6
DASHEDTINY
 62
  256
370
   -1
100
AcDbLine
 10
364.888
 20
203.491
 11
364.888
 21
189.726
  0
MTEXT
  5
3F1
100
AcDbEntity
  8
schematic
  6
ByLayer
 62
  256
370
   -1
100
AcDbMText
 10
385.2368264928285
 20
190.7231518006961
 30
0
 40
3
 41
6.999999999999999
 71
    1
 72
    1
  1
AP2
  7
standard
210
0
220
0
230
1
 50
0
 73
    2
 44
1
  0
MTEXT
  5
3F2
100
AcDbEntity
  8
frame-title
  6
ByLayer
 62
  256
370
   -1
100
AcDbMText
 10
302.654478423
 20
35.60291674463865
 30
0
 40
3
 41
47.24999872798751
 71
    1
 72
    1
  1
Schema: MC-FAL10ASCX\PFoglio: 7 di 17
  7
standard
210
0
220
0
230
1
 50
0
 73
    2
 44
1
  0
MTEXT
  5
3F3
100
AcDbEntity
  8
schematic
  6
ByLayer
 62
  256
370
   -1
100
AcDbMText
 10
32.54991776098655
 20
197.6454465847291
 30
0
 40
4
 41
28.88888804088054
 71
    1
 72
    1
  1
ECA\PCONSER-PE\P
  7
standard
210
0
220
0
230
1
 50
0
 73
    2
 44
1
  0
LINE
  5
3F4
100
AcDbEntity
  8
schematic
  6
ByLayer
 62
  256
370
   -1
100
AcDbLine
 10
136.1109855237674
 20
68.36413445241377
 11
145.5245570849349
 21
68.36413445241377
  0
LINE
  5
3F5
100
AcDbEntity
  8
schematic
  6
ByLayer
 62
  256
370
   -1
100
AcDbLine
 10
127.0060556531299
 20
68.36413445241377
 11
117.5924840919623
 21
68.36413445241377
  0
MTEXT
  5
3F6
100
AcDbEntity
  8
schematic
  6
ByLayer
 62
  256
370
   -1
100
AcDbMText
 10
197.1672134841847
 20
163.7114066739295
 30
0
 40
3
 41
19.66666666666685
 71
    1
 72
    1
  1
INDUTTORI
  7
standard
210
0
220
0
230
1
 50
0
 73
    2
 44
1
  0
MTEXT
  5
3F7
100
AcDbEntity
  8
schematic
  6
ByLayer
 62
  256
370
   -1
100
AcDbMText
 10
273.5731437060452
 20
163.4534977008854
 30
0
 40
3
 41
15.66666603066022
 71
    1
 72
    1
  1
SEGNALI
  7
standard
210
0
220
0
230
1
 50
0
 73
    2
 44
1
  0
INSERT
  5
3F8
100
AcDbEntity
  8
schematic
  6
ByLayer
 62
  256
370
   35
100
AcDbBlockReference
  2
Switch-button-mk
 10
291.9983596015002
 20
123.7310707247411
 30
0
 41
0.5
 42
0.5
 43
0
 50
179.7517
 70
    1
 71
    1
 44
0
 45
0
  0
LINE
  5
3F9
100
AcDbEntity
  8
schematic
  6
ByLayer
 62
  256
370
   -1
100
AcDbLine
 10
251.9287076909744
 20
124.4818721740563
 11
251.9287076909744
 21
131.6818721740563
  0
LINE
  5
3FA
100
AcDbEntity
  8
schematic
  6
ByLayer
 62
  256
370
   -1
100
AcDbLine
 10
251.9287076909744
 20
131.6818721740563
 11
254.8087076909744
 21
138.8818721740563
  0
LINE
  5
3FB
100
AcDbEntity
  8
schematic
  6
ByLayer
 62
  256
370
   -1
100
AcDbLine
 10
256.8289781788137
 20
124.4818721740563
 11
256.8289781788137
 21
131.6818721740563
  0
LINE
  5
3FC
100
AcDbEntity
  8
schematic
  6
ByLayer
 62
  256
370
   -1
100
AcDbLine
 10
256.8289781788137
 20
131.6818721740563
 11
259.7089781788137
 21
138.8818721740563
  0
INSERT
  5
3FD
100
AcDbEntity
  8
schematic
  6
ByLayer
 62
  256
370
   -1
100
AcDbBlockReference
  2
vd1
 10
264.8374336700232
 20
142.2054069303863
 30
0
 41
0.5
 42
0.5
 43
0
 50
0
 70
    1
 71
    1
 44
0
 45
0
  0
INSERT
  5
3FE
100
AcDbEntity
  8
schematic
  6
ByLayer
 62
  256
370
   -1
100
AcDbBlockReference
  2
vd1
 10
264.7180613418926
 20
146.0253214305648
 30
0
 41
0.5
 42
0.5
 43
0
 50
0
 70
    1
 71
    1
 44
0
 45
0
  0
LINE
  5
3FF
100
AcDbEntity
  8
schematic
  6
ByLayer
 62
  256
370
   -1
100
AcDbLine
 10
269.6620892469812
 20
145.2761233349164
 11
271.9301634814623
 21
145.395495663047
  0
LINE
  5
400
100
AcDbEntity
  8
schematic
  6
ByLayer
 62
  256
370
   -1
100
AcDbLine
 10
271.9301634814623
 20
145.395495663047
 11
271.9301634814623
 21
138.3525283033428
  0
LINE
  5
401
100
AcDbEntity
  8
schematic
  6
ByLayer
 62
  256
370
   -1
100
AcDbLine
 10
269.7814615751118
 20
141.5755811628684
 11
271.8107911533317
 21
141.4562088347379
  0
LINE
  5
402
100
AcDbEntity
  8
schematic
  6
ByLayer
 62
  256
370
   -1
100
AcDbLine
 10
256.8892501370091
 20
139.0687622721262
 11
256.7698778088786
 21
147.7829422256586
  0
LINE
  5
403
100
AcDbEntity
  8
schematic
  6
ByLayer
 62
  256
370
   -1
100
AcDbLine
 10
251.8756123555248
 20
139.1881346002568
 11
251.7562400273942
 21
147.7829422256586
  0
LINE
  5
404
100
AcDbEntity
  8
schematic
  6
ByLayer
 62
  256
370
   -1
100
AcDbLine
 10
251.7562400273942
 20
124.3859659120648
 11
271.9301634814623
 21
124.5053382401954
  0
LINE
  5
405
100
AcDbEntity
  8
schematic
  6
ByLayer
 62
  256
370
   -1
100
AcDbLine
 10
265.2453131061498
 20
141.4562088347379
 11
256.7698778088786
 21
141.5755811628684
  0
LINE
  5
406
100
AcDbEntity
  8
schematic
  6
ByLayer
 62
  256
370
   -1
100
AcDbLine
 10
265.2453131061498
 20
145.2761233349164
 11
251.7562400273942
 21
145.2761233349164
  0
INSERT
  5
407
100
AcDbEntity
  8
schematic
  6
ByLayer
 62
  256
370
   -1
100
AcDbBlockReference
  2
junction
 10
271.9301634814623
 20
141.4562088347379
 30
0
 41
1
 42
1
 43
0
 50
0
 70
    1
 71
    1
 44
1
 45
1
  0
INSERT
  5
408
100
AcDbEntity
  8
schematic
  6
ByLayer
 62
  256
370
   -1
100
AcDbBlockReference
  2
junction
 10
256.7698778088786
 20
141.694953490999
 30
0
 41
1
 42
1
 43
0
 50
0
 70
    1
 71
    1
 44
1
 45
1
  0
INSERT
  5
409
100
AcDbEntity
  8
schematic
  6
ByLayer
 62
  256
370
   -1
100
AcDbBlockReference
  2
junction
 10
251.7562400273942
 20
145.395495663047
 30
0
 41
1
 42
1
 43
0
 50
0
 70
    1
 71
    1
 44
1
 45
1
  0
INSERT
  5
40A
100
AcDbEntity
  8
schematic
  6
ByLayer
 62
  256
370
   -1
100
AcDbBlockReference
  2
junction
 10
256.650505480748
 20
124.5053382401954
 30
0
 41
1
 42
1
 43
0
 50
0
 70
    1
 71
    1
 44
1
 45
1
  0
MTEXT
  5
40B
100
AcDbEntity
  8
schematic
  6
ByLayer
 62
  256
370
   -1
100
AcDbMText
 10
265.3646854342804
 20
133.6970075062501
 30
0
 40
3
 41
4.666666666666666
 71
    1
 72
    1
  1
PA\P\P
  7
standard
210
0
220
0
230
1
 50
0
 73
    2
 44
1
  0
MTEXT
  5
40C
100
AcDbEntity
  8
labels
  6
ByLayer
 62
  256
370
   -1
100
AcDbMText
 10
259.7115509692288
 20
136.8043359688418
 30
0
 40
2.4
 41
5.333333333333482
 71
    1
 72
    1
  1
CM2
  7
standard
210
0
220
0
230
1
 50
0
 73
    2
 44
1
  0
MTEXT
  5
40D
100
AcDbEntity
  8
labels
  6
ByLayer
 62
  256
370
   -1
100
AcDbMText
 10
245.4619102536381
 20
136.7955631139769
 30
0
 40
2.4
 41
4.800000000000149
 71
    1
 72
    1
  1
CM1
  7
standard
210
0
220
0
230
1
 50
0
 73
    2
 44
1
  0
MTEXT
  5
40E
100
AcDbEntity
  8
schematic
  6
ByLayer
 62
  256
370
   -1
100
AcDbMText
 10
225.0168385261442
 20
139.5462515846486
 30
0
 40
3
 41
17.9166660306604
 71
    1
 72
    1
  1
SE DOPPI\PINGRESSI
  7
standard
210
0
220
0
230
1
 50
0
 73
    2
 44
1
  0
ENDSEC
  0
SECTION
  2
OBJECTS
  0
DICTIONARY
  5
C
330
0
100
AcDbDictionary
281
    1
  3
ACAD_GROUP
350
D
  0
DICTIONARY
  5
D
330
C
100
AcDbDictionary
281
    1
  0
ENDSEC
  0
EOF
